<?xml version="1.0" encoding="utf-8" standalone="no"?>
<!DOCTYPE svg PUBLIC "-//W3C//DTD SVG 1.1//EN"
  "http://www.w3.org/Graphics/SVG/1.1/DTD/svg11.dtd">
<svg xmlns:xlink="http://www.w3.org/1999/xlink" width="207.09347pt" height="443.52pt" viewBox="0 0 207.09347 443.52" xmlns="http://www.w3.org/2000/svg" version="1.1">
 <metadata>
  <rdf:RDF xmlns:dc="http://purl.org/dc/elements/1.1/" xmlns:cc="http://creativecommons.org/ns#" xmlns:rdf="http://www.w3.org/1999/02/22-rdf-syntax-ns#">
   <cc:Work>
    <dc:type rdf:resource="http://purl.org/dc/dcmitype/StillImage"/>
    <dc:date>2026-02-12T12:55:59.154867</dc:date>
    <dc:format>image/svg+xml</dc:format>
    <dc:creator>
     <cc:Agent>
      <dc:title>Matplotlib v3.9.2, https://matplotlib.org/</dc:title>
     </cc:Agent>
    </dc:creator>
   </cc:Work>
  </rdf:RDF>
 </metadata>
 <defs>
  <style type="text/css">*{stroke-linejoin: round; stroke-linecap: butt}</style>
 </defs>
 <g id="figure_1">
  <g id="patch_1">
   <path d="M 0 443.52 
L 207.09347 443.52 
L 207.09347 0 
L 0 0 
L 0 443.52 
z
" style="fill: none"/>
  </g>
  <g id="axes_1">
   <g id="line2d_1">
    <path d="M 76.856761 248.120178 
L 144.300182 240.48774 
L 150.118738 240.016602 
L 153.887843 239.521907 
L 158.410769 238.179163 
L 160.389549 237.001318 
L 162.179874 235.281664 
L 163.8053 232.289937 
L 164.323552 230.264043 
L 164.676906 226.754064 
L 164.700463 224.633943 
L 164.582678 221.524431 
L 164.252882 218.014452 
L 163.499061 213.043945 
L 162.391886 207.248946 
L 161.237598 202.184211 
L 159.824183 196.883907 
L 157.115139 187.767385 
L 154.735892 182.066614 
L 153.251806 179.640252 
L 150.872559 177.025436 
L 146.702987 174.198607 
L 143.522804 172.832307 
L 130.30738 168.450722 
L 126.985857 167.296434 
L 120.036569 162.98552 
L 115.136733 156.884281 
L 113.157953 152.714709 
L 111.932994 148.191783 
L 111.57964 142.844366 
L 111.956551 138.085871 
L 113.55842 127.720832 
L 115.183847 118.392297 
L 116.762159 109.275775 
L 117.680879 102.255817 
L 118.104903 93.610432 
L 117.963562 79.970984 
L 117.727993 73.539949 
L 117.162627 64.046516 
L 116.267464 52.197392 
L 115.325188 41.479 
L 114.759822 36.885403 
L 113.888217 32.103351 
L 112.87527 28.616929 
L 111.626754 25.813657 
L 110.425352 23.952662 
L 109.082608 22.468577 
L 107.056714 20.960935 
L 104.96015 20.16 
L 102.392447 20.207114 
L 101.450171 20.513354 
L 100.154541 21.14939 
L 98.670456 22.185894 
L 97.633952 23.104613 
L 95.678729 25.554531 
L 94.618668 27.415527 
L 93.864847 29.06451 
L 92.687002 32.197579 
L 88.493872 45.507231 
L 81.568142 67.43871 
L 77.210115 80.065211 
L 58.906399 132.45577 
L 28.682889 218.391362 
L 18.93033 245.128451 
L 14.006936 258.438102 
L 11.156551 267.083487 
L 10.332059 270.075214 
L 9.743136 272.925599 
L 9.41334 276.129339 
L 9.41334 277.165842 
L 9.719579 280.15757 
L 9.931591 281.005618 
L 10.308502 281.995008 
L 11.321449 283.361309 
L 12.098827 283.80889 
L 14.218948 284.020902 
L 20.178846 283.055069 
L 21.074008 283.078626 
L 23.099902 283.620435 
L 24.112849 284.256471 
L 25.008011 285.128077 
L 25.738275 286.211694 
L 26.704108 288.355373 
L 27.363702 290.404824 
L 28.588661 295.092648 
L 30.685226 303.549577 
L 31.603945 306.706202 
L 33.205814 311.229128 
L 36.079757 317.777948 
L 36.762907 319.097135 
L 39.70752 324.067642 
L 41.097378 326.164207 
L 45.102052 331.629409 
L 46.986604 333.937986 
L 49.22451 336.458574 
L 52.334022 339.662314 
L 54.619042 341.829549 
L 60.249142 346.752942 
L 89.153466 371.181454 
L 105.33706 384.750231 
L 107.857649 386.776125 
L 115.042505 392.194214 
L 121.850451 396.834924 
L 128.493498 401.004496 
L 134.641851 404.443805 
L 139.14122 406.634597 
L 152.592213 412.641608 
L 164.79469 417.588558 
L 173.911213 421.169208 
L 179.4942 423.05376 
L 181.637878 423.36 
L 184.841617 423.124431 
L 188.445824 422.017256 
L 190.07125 421.216322 
L 193.981697 418.153924 
L 197.091208 412.830063 
L 197.515233 410.969068 
L 197.680131 408.542706 
L 197.444562 405.810105 
L 196.714298 402.794821 
L 195.819135 400.321346 
L 194.876859 398.38968 
L 192.850965 395.138827 
L 189.529441 391.346165 
L 185.336312 388.519336 
L 181.567207 387.412162 
L 174.099668 386.564113 
L 162.81591 384.750231 
L 157.209367 384.208423 
L 138.787866 382.747894 
L 134.217827 382.229642 
L 131.108315 381.64072 
L 125.431101 379.66194 
L 121.826894 377.800944 
L 117.727993 375.351026 
L 114.665595 373.325132 
L 109.977771 369.791596 
L 105.831755 365.763365 
L 102.274662 360.32172 
L 99.895415 353.348876 
L 98.835354 348.260584 
L 98.269988 343.808329 
L 98.199318 342.27713 
L 98.317102 338.296013 
L 98.552671 336.505688 
L 99.589175 333.325506 
L 100.76702 331.888535 
L 102.298219 331.016929 
L 104.112101 330.522234 
L 105.737527 330.357336 
L 107.292283 330.333779 
L 114.524253 330.828474 
L 117.82222 329.956868 
L 120.460594 328.284328 
L 121.685553 327.294938 
L 123.970573 325.009918 
L 124.512381 324.256097 
L 125.195532 322.93691 
L 125.808011 321.075915 
L 126.396934 316.788558 
L 126.561832 313.584819 
L 126.538275 311.794494 
L 126.326263 309.556588 
L 124.795064 304.986548 
L 123.428764 303.078439 
L 120.248581 300.275167 
L 115.819883 298.131489 
L 110.990717 297.566123 
L 106.420678 297.943033 
L 90.425539 300.180939 
L 87.080458 300.628521 
L 78.317289 302.089049 
L 73.111213 302.960654 
L 68.164263 303.549577 
L 63.61778 303.361122 
L 58.034793 301.735695 
L 55.255078 300.416509 
L 50.096116 296.223379 
L 46.633251 291.158645 
L 39.63685 279.356635 
L 36.904249 273.443851 
L 35.655733 269.250722 
L 35.113924 266.494564 
L 34.807684 263.926861 
L 34.737013 260.652452 
L 34.878355 258.414545 
L 34.854798 258.461659 
L 35.585062 255.399262 
L 36.36244 253.915176 
L 37.540285 252.713774 
L 38.105651 252.313307 
L 40.367114 251.394588 
L 42.60502 250.99412 
L 49.436523 250.381641 
L 52.145567 250.00473 
L 57.492984 249.651376 
L 64.560056 249.298023 
L 70.637738 248.921112 
L 70.637738 248.921112 
" clip-path="url(#pd6ae6f11de)" style="fill: none; stroke: #ff1801; stroke-opacity: 0.3; stroke-width: 10; stroke-linecap: square"/>
   </g>
   <g id="line2d_2">
    <path d="M 76.856761 248.120178 
L 144.300182 240.48774 
L 150.118738 240.016602 
L 153.887843 239.521907 
L 158.410769 238.179163 
L 160.389549 237.001318 
L 162.179874 235.281664 
L 163.8053 232.289937 
L 164.323552 230.264043 
L 164.676906 226.754064 
L 164.700463 224.633943 
L 164.582678 221.524431 
L 164.252882 218.014452 
L 163.499061 213.043945 
L 162.391886 207.248946 
L 161.237598 202.184211 
L 159.824183 196.883907 
L 157.115139 187.767385 
L 154.735892 182.066614 
L 153.251806 179.640252 
L 150.872559 177.025436 
L 146.702987 174.198607 
L 143.522804 172.832307 
L 130.30738 168.450722 
L 126.985857 167.296434 
L 120.036569 162.98552 
L 115.136733 156.884281 
L 113.157953 152.714709 
L 111.932994 148.191783 
L 111.57964 142.844366 
L 111.956551 138.085871 
L 113.55842 127.720832 
L 115.183847 118.392297 
L 116.762159 109.275775 
L 117.680879 102.255817 
L 118.104903 93.610432 
L 117.963562 79.970984 
L 117.727993 73.539949 
L 117.162627 64.046516 
L 116.267464 52.197392 
L 115.325188 41.479 
L 114.759822 36.885403 
L 113.888217 32.103351 
L 112.87527 28.616929 
L 111.626754 25.813657 
L 110.425352 23.952662 
L 109.082608 22.468577 
L 107.056714 20.960935 
L 104.96015 20.16 
L 102.392447 20.207114 
L 101.450171 20.513354 
L 100.154541 21.14939 
L 98.670456 22.185894 
L 97.633952 23.104613 
L 95.678729 25.554531 
L 94.618668 27.415527 
L 93.864847 29.06451 
L 92.687002 32.197579 
L 88.493872 45.507231 
L 81.568142 67.43871 
L 77.210115 80.065211 
L 58.906399 132.45577 
L 28.682889 218.391362 
L 18.93033 245.128451 
L 14.006936 258.438102 
L 11.156551 267.083487 
L 10.332059 270.075214 
L 9.743136 272.925599 
L 9.41334 276.129339 
L 9.41334 277.165842 
L 9.719579 280.15757 
L 9.931591 281.005618 
L 10.308502 281.995008 
L 11.321449 283.361309 
L 12.098827 283.80889 
L 14.218948 284.020902 
L 20.178846 283.055069 
L 21.074008 283.078626 
L 23.099902 283.620435 
L 24.112849 284.256471 
L 25.008011 285.128077 
L 25.738275 286.211694 
L 26.704108 288.355373 
L 27.363702 290.404824 
L 28.588661 295.092648 
L 30.685226 303.549577 
L 31.603945 306.706202 
L 33.205814 311.229128 
L 36.079757 317.777948 
L 36.762907 319.097135 
L 39.70752 324.067642 
L 41.097378 326.164207 
L 45.102052 331.629409 
L 46.986604 333.937986 
L 49.22451 336.458574 
L 52.334022 339.662314 
L 54.619042 341.829549 
L 60.249142 346.752942 
L 89.153466 371.181454 
L 105.33706 384.750231 
L 107.857649 386.776125 
L 115.042505 392.194214 
L 121.850451 396.834924 
L 128.493498 401.004496 
L 134.641851 404.443805 
L 139.14122 406.634597 
L 152.592213 412.641608 
L 164.79469 417.588558 
L 173.911213 421.169208 
L 179.4942 423.05376 
L 181.637878 423.36 
L 184.841617 423.124431 
L 188.445824 422.017256 
L 190.07125 421.216322 
L 193.981697 418.153924 
L 197.091208 412.830063 
L 197.515233 410.969068 
L 197.680131 408.542706 
L 197.444562 405.810105 
L 196.714298 402.794821 
L 195.819135 400.321346 
L 194.876859 398.38968 
L 192.850965 395.138827 
L 189.529441 391.346165 
L 185.336312 388.519336 
L 181.567207 387.412162 
L 174.099668 386.564113 
L 162.81591 384.750231 
L 157.209367 384.208423 
L 138.787866 382.747894 
L 134.217827 382.229642 
L 131.108315 381.64072 
L 125.431101 379.66194 
L 121.826894 377.800944 
L 117.727993 375.351026 
L 114.665595 373.325132 
L 109.977771 369.791596 
L 105.831755 365.763365 
L 102.274662 360.32172 
L 99.895415 353.348876 
L 98.835354 348.260584 
L 98.269988 343.808329 
L 98.199318 342.27713 
L 98.317102 338.296013 
L 98.552671 336.505688 
L 99.589175 333.325506 
L 100.76702 331.888535 
L 102.298219 331.016929 
L 104.112101 330.522234 
L 105.737527 330.357336 
L 107.292283 330.333779 
L 114.524253 330.828474 
L 117.82222 329.956868 
L 120.460594 328.284328 
L 121.685553 327.294938 
L 123.970573 325.009918 
L 124.512381 324.256097 
L 125.195532 322.93691 
L 125.808011 321.075915 
L 126.396934 316.788558 
L 126.561832 313.584819 
L 126.538275 311.794494 
L 126.326263 309.556588 
L 124.795064 304.986548 
L 123.428764 303.078439 
L 120.248581 300.275167 
L 115.819883 298.131489 
L 110.990717 297.566123 
L 106.420678 297.943033 
L 90.425539 300.180939 
L 87.080458 300.628521 
L 78.317289 302.089049 
L 73.111213 302.960654 
L 68.164263 303.549577 
L 63.61778 303.361122 
L 58.034793 301.735695 
L 55.255078 300.416509 
L 50.096116 296.223379 
L 46.633251 291.158645 
L 39.63685 279.356635 
L 36.904249 273.443851 
L 35.655733 269.250722 
L 35.113924 266.494564 
L 34.807684 263.926861 
L 34.737013 260.652452 
L 34.878355 258.414545 
L 34.854798 258.461659 
L 35.585062 255.399262 
L 36.36244 253.915176 
L 37.540285 252.713774 
L 38.105651 252.313307 
L 40.367114 251.394588 
L 42.60502 250.99412 
L 49.436523 250.381641 
L 52.145567 250.00473 
L 57.492984 249.651376 
L 64.560056 249.298023 
L 70.637738 248.921112 
L 70.637738 248.921112 
" clip-path="url(#pd6ae6f11de)" style="fill: none; stroke: #ff1801; stroke-width: 3; stroke-linecap: square"/>
   </g>
  </g>
 </g>
 <defs>
  <clipPath id="pd6ae6f11de">
   <rect x="0" y="-0" width="207.09347" height="443.52"/>
  </clipPath>
 </defs>
</svg>
