<?xml version="1.0" encoding="utf-8" standalone="no"?>
<!DOCTYPE svg PUBLIC "-//W3C//DTD SVG 1.1//EN"
  "http://www.w3.org/Graphics/SVG/1.1/DTD/svg11.dtd">
<svg xmlns:xlink="http://www.w3.org/1999/xlink" width="446.4pt" height="283.409264pt" viewBox="0 0 446.4 283.409264" xmlns="http://www.w3.org/2000/svg" version="1.1">
 <metadata>
  <rdf:RDF xmlns:dc="http://purl.org/dc/elements/1.1/" xmlns:cc="http://creativecommons.org/ns#" xmlns:rdf="http://www.w3.org/1999/02/22-rdf-syntax-ns#">
   <cc:Work>
    <dc:type rdf:resource="http://purl.org/dc/dcmitype/StillImage"/>
    <dc:date>2026-02-12T12:53:16.385539</dc:date>
    <dc:format>image/svg+xml</dc:format>
    <dc:creator>
     <cc:Agent>
      <dc:title>Matplotlib v3.9.2, https://matplotlib.org/</dc:title>
     </cc:Agent>
    </dc:creator>
   </cc:Work>
  </rdf:RDF>
 </metadata>
 <defs>
  <style type="text/css">*{stroke-linejoin: round; stroke-linecap: butt}</style>
 </defs>
 <g id="figure_1">
  <g id="patch_1">
   <path d="M 0 283.409264 
L 446.4 283.409264 
L 446.4 -0 
L 0 -0 
L 0 283.409264 
z
" style="fill: none"/>
  </g>
  <g id="axes_1">
   <g id="line2d_1">
    <path d="M 314.426158 239.435329 
L 254.454309 255.599108 
L 208.824969 268.185391 
L 205.637745 268.998458 
L 200.14141 270.169275 
L 196.856617 270.527025 
L 193.604348 270.494502 
L 190.547215 270.071707 
L 187.067286 268.868368 
L 184.790698 267.56746 
L 181.668519 264.868076 
L 179.587067 261.810943 
L 175.814434 254.65595 
L 172.887392 249.745023 
L 169.895304 245.48455 
L 160.723904 231.825019 
L 139.356494 199.432415 
L 132.038887 188.179563 
L 126.99787 179.918798 
L 123.940736 174.487508 
L 117.338629 161.83618 
L 109.565705 146.3879 
L 91.320474 108.108689 
L 86.507115 99.034857 
L 83.449982 94.12393 
L 79.644827 88.33489 
L 74.896513 81.797829 
L 69.270087 75.163199 
L 64.164024 69.731909 
L 55.968305 61.341054 
L 39.902094 45.665115 
L 27.120675 33.53415 
L 23.31552 29.761518 
L 21.689385 27.549975 
L 21.136499 26.509248 
L 20.290909 23.549683 
L 20.388477 21.565799 
L 21.299113 19.484346 
L 21.819476 18.833892 
L 22.827679 17.923257 
L 23.998496 17.175235 
L 26.144994 16.2646 
L 30.112763 15.321441 
L 35.15378 14.605942 
L 41.723365 13.85792 
L 44.617885 13.565216 
L 52.618467 13.077375 
L 57.822099 12.914762 
L 67.221157 12.914762 
L 75.416876 13.272512 
L 83.287368 13.922966 
L 88.848749 14.475851 
L 101.435032 16.134509 
L 105.630459 16.784963 
L 114.639246 18.313529 
L 129.827344 21.273094 
L 165.179513 28.330519 
L 171.098643 29.338723 
L 188.725944 31.875493 
L 205.475132 34.087036 
L 218.874482 35.257853 
L 229.899675 35.745694 
L 250.323927 36.331102 
L 263.463096 36.656329 
L 268.081318 37.046601 
L 270.422952 37.566964 
L 273.447563 38.737781 
L 276.894969 41.046893 
L 278.488581 42.900686 
L 279.431739 44.949616 
L 280.017147 48.169363 
L 280.114715 50.348383 
L 279.887056 52.267222 
L 278.976421 55.096697 
L 277.838127 57.600944 
L 275.203788 61.89394 
L 273.154859 64.593324 
L 269.772499 68.52857 
L 266.747888 71.520657 
L 264.438777 73.472019 
L 260.145781 76.561675 
L 255.267377 79.39115 
L 251.787448 81.08233 
L 245.413 83.521532 
L 241.445232 84.692349 
L 233.965012 86.351006 
L 229.249221 87.00146 
L 223.069909 87.196596 
L 217.150779 86.903892 
L 207.556584 85.79812 
L 203.361156 85.180189 
L 191.620464 83.098737 
L 182.514109 81.375034 
L 177.473092 80.496921 
L 170.480712 79.52124 
L 164.106264 79.0334 
L 160.268586 79.065923 
L 158.447315 79.196013 
L 150.674391 80.561967 
L 145.080488 82.838555 
L 141.828218 84.920008 
L 139.519107 86.936415 
L 136.624587 90.416343 
L 134.478089 94.254021 
L 133.112136 98.774675 
L 132.591773 102.189558 
L 132.42916 107.588326 
L 132.786909 111.458526 
L 133.339795 114.613228 
L 135.323679 121.573084 
L 137.925495 127.264556 
L 139.844334 130.646916 
L 148.983211 145.444742 
L 152.755844 151.266304 
L 157.243976 157.315526 
L 164.008696 164.177814 
L 166.870693 166.226744 
L 172.204415 168.926127 
L 175.359116 169.80424 
L 179.001658 170.129467 
L 186.416833 168.861082 
L 190.742351 167.137379 
L 195.19796 164.600609 
L 200.596727 160.340136 
L 215.914916 146.420423 
L 223.492704 140.338679 
L 229.444357 136.631092 
L 230.712742 135.980638 
L 241.250095 132.565755 
L 245.640659 131.850256 
L 250.096268 131.394938 
L 256.112967 131.069711 
L 271.788906 130.679439 
L 301.904921 130.386734 
L 312.832546 130.289166 
L 333.191753 129.866371 
L 370.430238 128.825645 
L 379.861819 129.085827 
L 387.537175 129.768803 
L 393.781533 131.004666 
L 400.38364 133.378822 
L 409.620085 140.273634 
L 410.823424 141.672109 
L 414.335876 147.656285 
L 415.539215 151.363872 
L 418.108508 160.340136 
L 424.580524 181.51241 
L 425.296024 184.40693 
L 425.913955 187.951904 
L 426.109091 190.846424 
L 425.979 194.42392 
L 424.417911 199.334847 
L 422.986912 201.839094 
L 420.742846 204.636046 
L 417.100305 207.725702 
L 414.173262 209.481927 
L 408.546836 212.213834 
L 404.579067 214.002582 
L 398.562369 216.376739 
L 395.049918 217.580078 
L 389.000696 219.368827 
L 381.813181 221.352711 
L 375.276119 223.011368 
L 342.525766 231.825019 
L 326.979918 236.020446 
L 326.979918 236.020446 
" clip-path="url(#pe93d29ccaa)" style="fill: none; stroke: #ff1801; stroke-opacity: 0.3; stroke-width: 10; stroke-linecap: square"/>
   </g>
   <g id="line2d_2">
    <path d="M 314.426158 239.435329 
L 254.454309 255.599108 
L 208.824969 268.185391 
L 205.637745 268.998458 
L 200.14141 270.169275 
L 196.856617 270.527025 
L 193.604348 270.494502 
L 190.547215 270.071707 
L 187.067286 268.868368 
L 184.790698 267.56746 
L 181.668519 264.868076 
L 179.587067 261.810943 
L 175.814434 254.65595 
L 172.887392 249.745023 
L 169.895304 245.48455 
L 160.723904 231.825019 
L 139.356494 199.432415 
L 132.038887 188.179563 
L 126.99787 179.918798 
L 123.940736 174.487508 
L 117.338629 161.83618 
L 109.565705 146.3879 
L 91.320474 108.108689 
L 86.507115 99.034857 
L 83.449982 94.12393 
L 79.644827 88.33489 
L 74.896513 81.797829 
L 69.270087 75.163199 
L 64.164024 69.731909 
L 55.968305 61.341054 
L 39.902094 45.665115 
L 27.120675 33.53415 
L 23.31552 29.761518 
L 21.689385 27.549975 
L 21.136499 26.509248 
L 20.290909 23.549683 
L 20.388477 21.565799 
L 21.299113 19.484346 
L 21.819476 18.833892 
L 22.827679 17.923257 
L 23.998496 17.175235 
L 26.144994 16.2646 
L 30.112763 15.321441 
L 35.15378 14.605942 
L 41.723365 13.85792 
L 44.617885 13.565216 
L 52.618467 13.077375 
L 57.822099 12.914762 
L 67.221157 12.914762 
L 75.416876 13.272512 
L 83.287368 13.922966 
L 88.848749 14.475851 
L 101.435032 16.134509 
L 105.630459 16.784963 
L 114.639246 18.313529 
L 129.827344 21.273094 
L 165.179513 28.330519 
L 171.098643 29.338723 
L 188.725944 31.875493 
L 205.475132 34.087036 
L 218.874482 35.257853 
L 229.899675 35.745694 
L 250.323927 36.331102 
L 263.463096 36.656329 
L 268.081318 37.046601 
L 270.422952 37.566964 
L 273.447563 38.737781 
L 276.894969 41.046893 
L 278.488581 42.900686 
L 279.431739 44.949616 
L 280.017147 48.169363 
L 280.114715 50.348383 
L 279.887056 52.267222 
L 278.976421 55.096697 
L 277.838127 57.600944 
L 275.203788 61.89394 
L 273.154859 64.593324 
L 269.772499 68.52857 
L 266.747888 71.520657 
L 264.438777 73.472019 
L 260.145781 76.561675 
L 255.267377 79.39115 
L 251.787448 81.08233 
L 245.413 83.521532 
L 241.445232 84.692349 
L 233.965012 86.351006 
L 229.249221 87.00146 
L 223.069909 87.196596 
L 217.150779 86.903892 
L 207.556584 85.79812 
L 203.361156 85.180189 
L 191.620464 83.098737 
L 182.514109 81.375034 
L 177.473092 80.496921 
L 170.480712 79.52124 
L 164.106264 79.0334 
L 160.268586 79.065923 
L 158.447315 79.196013 
L 150.674391 80.561967 
L 145.080488 82.838555 
L 141.828218 84.920008 
L 139.519107 86.936415 
L 136.624587 90.416343 
L 134.478089 94.254021 
L 133.112136 98.774675 
L 132.591773 102.189558 
L 132.42916 107.588326 
L 132.786909 111.458526 
L 133.339795 114.613228 
L 135.323679 121.573084 
L 137.925495 127.264556 
L 139.844334 130.646916 
L 148.983211 145.444742 
L 152.755844 151.266304 
L 157.243976 157.315526 
L 164.008696 164.177814 
L 166.870693 166.226744 
L 172.204415 168.926127 
L 175.359116 169.80424 
L 179.001658 170.129467 
L 186.416833 168.861082 
L 190.742351 167.137379 
L 195.19796 164.600609 
L 200.596727 160.340136 
L 215.914916 146.420423 
L 223.492704 140.338679 
L 229.444357 136.631092 
L 230.712742 135.980638 
L 241.250095 132.565755 
L 245.640659 131.850256 
L 250.096268 131.394938 
L 256.112967 131.069711 
L 271.788906 130.679439 
L 301.904921 130.386734 
L 312.832546 130.289166 
L 333.191753 129.866371 
L 370.430238 128.825645 
L 379.861819 129.085827 
L 387.537175 129.768803 
L 393.781533 131.004666 
L 400.38364 133.378822 
L 409.620085 140.273634 
L 410.823424 141.672109 
L 414.335876 147.656285 
L 415.539215 151.363872 
L 418.108508 160.340136 
L 424.580524 181.51241 
L 425.296024 184.40693 
L 425.913955 187.951904 
L 426.109091 190.846424 
L 425.979 194.42392 
L 424.417911 199.334847 
L 422.986912 201.839094 
L 420.742846 204.636046 
L 417.100305 207.725702 
L 414.173262 209.481927 
L 408.546836 212.213834 
L 404.579067 214.002582 
L 398.562369 216.376739 
L 395.049918 217.580078 
L 389.000696 219.368827 
L 381.813181 221.352711 
L 375.276119 223.011368 
L 342.525766 231.825019 
L 326.979918 236.020446 
L 326.979918 236.020446 
" clip-path="url(#pe93d29ccaa)" style="fill: none; stroke: #ff1801; stroke-width: 3; stroke-linecap: square"/>
   </g>
  </g>
 </g>
 <defs>
  <clipPath id="pe93d29ccaa">
   <rect x="0" y="0" width="446.4" height="283.409264"/>
  </clipPath>
 </defs>
</svg>
