<?xml version="1.0" encoding="utf-8" standalone="no"?>
<!DOCTYPE svg PUBLIC "-//W3C//DTD SVG 1.1//EN"
  "http://www.w3.org/Graphics/SVG/1.1/DTD/svg11.dtd">
<svg xmlns:xlink="http://www.w3.org/1999/xlink" width="374.596488pt" height="443.52pt" viewBox="0 0 374.596488 443.52" xmlns="http://www.w3.org/2000/svg" version="1.1">
 <metadata>
  <rdf:RDF xmlns:dc="http://purl.org/dc/elements/1.1/" xmlns:cc="http://creativecommons.org/ns#" xmlns:rdf="http://www.w3.org/1999/02/22-rdf-syntax-ns#">
   <cc:Work>
    <dc:type rdf:resource="http://purl.org/dc/dcmitype/StillImage"/>
    <dc:date>2026-02-12T12:52:29.373631</dc:date>
    <dc:format>image/svg+xml</dc:format>
    <dc:creator>
     <cc:Agent>
      <dc:title>Matplotlib v3.9.2, https://matplotlib.org/</dc:title>
     </cc:Agent>
    </dc:creator>
   </cc:Work>
  </rdf:RDF>
 </metadata>
 <defs>
  <style type="text/css">*{stroke-linejoin: round; stroke-linecap: butt}</style>
 </defs>
 <g id="figure_1">
  <g id="patch_1">
   <path d="M 0 443.52 
L 374.596488 443.52 
L 374.596488 0 
L 0 0 
L 0 443.52 
z
" style="fill: none"/>
  </g>
  <g id="axes_1">
   <g id="line2d_1">
    <path d="M 149.196504 318.72204 
L 106.938421 278.617382 
L 103.279913 274.634703 
L 101.913761 272.851759 
L 100.177127 269.95737 
L 99.135147 267.039825 
L 98.926751 264.191746 
L 99.158302 261.922545 
L 99.667715 259.444948 
L 101.520124 251.572209 
L 101.72852 247.265358 
L 101.172797 242.333319 
L 99.760335 237.262349 
L 98.625735 234.761597 
L 94.365194 228.556026 
L 90.660376 224.619657 
L 88.970052 223.068264 
L 81.884587 216.932159 
L 74.19709 209.869849 
L 66.509592 202.274972 
L 63.684668 199.380582 
L 57.594873 192.80453 
L 50.578873 184.769705 
L 45.484748 178.54098 
L 39.279178 170.413535 
L 33.444089 162.28609 
L 28.025792 154.27442 
L 24.228354 148.578262 
L 20.54669 142.835794 
L 18.393265 138.992045 
L 17.42075 136.306052 
L 17.027113 133.666369 
L 17.050268 131.976045 
L 17.351285 130.285722 
L 17.768077 129.104811 
L 19.018453 127.275557 
L 21.009793 125.955716 
L 22.769581 125.376838 
L 26.242848 124.79796 
L 37.820405 123.316033 
L 39.510729 122.829775 
L 41.710465 121.949881 
L 43.9102 120.63004 
L 45.507903 119.287043 
L 46.989831 117.550409 
L 48.541223 114.51709 
L 49.027481 112.803611 
L 49.444273 108.612535 
L 49.305342 106.134938 
L 48.541223 99.929368 
L 46.642504 87.819243 
L 46.248867 82.123085 
L 46.387798 78.418267 
L 47.082451 73.764089 
L 48.309672 69.804564 
L 50.416787 65.821885 
L 51.736629 63.969476 
L 54.445777 61.098242 
L 56.691823 59.106902 
L 62.781618 54.360103 
L 67.759968 50.747906 
L 70.075479 49.219668 
L 75.794792 45.815866 
L 80.541591 43.361424 
L 84.130633 41.671101 
L 103.488309 33.173174 
L 108.605589 30.834508 
L 114.348057 28.032739 
L 118.88646 25.508831 
L 123.610103 22.568132 
L 127.477007 20.646257 
L 129.977759 20.16 
L 132.339581 20.229465 
L 135.257125 20.970429 
L 139.332425 23.332251 
L 143.963448 26.759207 
L 147.274629 28.565306 
L 151.234154 30.000923 
L 156.397744 31.274455 
L 159.338444 31.899643 
L 165.335618 33.034243 
L 169.68878 33.983603 
L 174.018786 35.210824 
L 177.005796 36.206494 
L 182.817729 38.776712 
L 188.166561 42.226824 
L 191.130415 44.820196 
L 196.618177 51.072077 
L 200.068289 56.212512 
L 202.314335 60.403588 
L 204.213055 64.779905 
L 205.787602 69.295152 
L 206.829582 72.837884 
L 207.755787 76.426927 
L 210.765952 93.37647 
L 210.974348 100.901883 
L 210.488091 108.867242 
L 209.955523 115.304363 
L 209.44611 119.842766 
L 208.010493 126.117802 
L 202.499576 141.816969 
L 200.068289 149.296071 
L 197.590692 155.964744 
L 193.445927 165.064703 
L 192.126085 168.769522 
L 191.06095 173.076373 
L 190.389452 177.082208 
L 189.97266 181.921626 
L 190.412607 193.499183 
L 191.500897 202.460212 
L 192.14924 206.049255 
L 193.214375 210.425572 
L 194.395286 214.361941 
L 196.08561 218.969809 
L 199.582032 226.888858 
L 200.670322 229.111749 
L 203.008989 233.46491 
L 205.532896 237.702296 
L 209.631351 243.375299 
L 213.42879 247.774771 
L 217.342004 251.826916 
L 220.63003 255.022321 
L 227.73865 261.413133 
L 234.430478 266.993515 
L 239.964551 271.184591 
L 242.187442 272.712828 
L 246.424827 275.02834 
L 249.712854 276.000855 
L 254.066015 276.16294 
L 258.233936 275.699838 
L 262.911269 275.02834 
L 267.241275 274.565237 
L 272.103849 274.449462 
L 277.313749 275.07465 
L 278.263109 275.329356 
L 280.995413 276.440802 
L 284.144508 278.478452 
L 290.928957 284.081989 
L 295.258963 287.833118 
L 306.211332 296.933078 
L 317.696268 306.889777 
L 321.424242 310.501974 
L 323.438737 312.70171 
L 325.406921 315.017222 
L 328.579172 319.277763 
L 331.427251 323.79301 
L 333.858538 328.169326 
L 337.702287 336.667253 
L 340.874537 345.16518 
L 344.996148 357.205839 
L 353.60985 383.857376 
L 355.439104 390.711289 
L 357.569375 402.381467 
L 357.499909 406.294681 
L 356.712635 408.587037 
L 355.6475 409.860569 
L 354.327659 410.740463 
L 351.826906 411.759288 
L 345.088768 413.750628 
L 337.655977 415.718812 
L 322.304136 419.539406 
L 310.448718 422.688502 
L 307.461708 423.221069 
L 303.270632 423.36 
L 300.931966 423.035828 
L 299.519504 422.642191 
L 296.555649 421.252885 
L 294.286448 419.632027 
L 289.794356 414.908383 
L 286.784191 410.485757 
L 284.190818 405.715803 
L 280.740706 398.722959 
L 276.063373 388.789415 
L 272.659572 383.301653 
L 271.640747 381.889191 
L 269.857803 380.036782 
L 268.607427 379.203198 
L 266.731862 378.67063 
L 264.948919 378.740095 
L 263.768008 379.041112 
L 261.660892 380.198868 
L 260.410516 381.310313 
L 258.650728 383.371118 
L 257.909764 384.436253 
L 254.853289 389.553534 
L 252.885104 392.031131 
L 248.832959 395.226536 
L 244.387177 397.264187 
L 242.117976 397.773599 
L 239.709844 397.91253 
L 234.314703 396.986325 
L 231.443469 395.944345 
L 228.780631 394.601348 
L 227.020842 393.420438 
L 224.65902 391.544873 
L 218.986017 386.311818 
L 206.482256 374.085917 
L 173.995631 342.270791 
L 158.041757 327.127346 
L 158.041757 327.127346 
" clip-path="url(#pb7512a147b)" style="fill: none; stroke: #ff1801; stroke-opacity: 0.3; stroke-width: 10; stroke-linecap: square"/>
   </g>
   <g id="line2d_2">
    <path d="M 149.196504 318.72204 
L 106.938421 278.617382 
L 103.279913 274.634703 
L 101.913761 272.851759 
L 100.177127 269.95737 
L 99.135147 267.039825 
L 98.926751 264.191746 
L 99.158302 261.922545 
L 99.667715 259.444948 
L 101.520124 251.572209 
L 101.72852 247.265358 
L 101.172797 242.333319 
L 99.760335 237.262349 
L 98.625735 234.761597 
L 94.365194 228.556026 
L 90.660376 224.619657 
L 88.970052 223.068264 
L 81.884587 216.932159 
L 74.19709 209.869849 
L 66.509592 202.274972 
L 63.684668 199.380582 
L 57.594873 192.80453 
L 50.578873 184.769705 
L 45.484748 178.54098 
L 39.279178 170.413535 
L 33.444089 162.28609 
L 28.025792 154.27442 
L 24.228354 148.578262 
L 20.54669 142.835794 
L 18.393265 138.992045 
L 17.42075 136.306052 
L 17.027113 133.666369 
L 17.050268 131.976045 
L 17.351285 130.285722 
L 17.768077 129.104811 
L 19.018453 127.275557 
L 21.009793 125.955716 
L 22.769581 125.376838 
L 26.242848 124.79796 
L 37.820405 123.316033 
L 39.510729 122.829775 
L 41.710465 121.949881 
L 43.9102 120.63004 
L 45.507903 119.287043 
L 46.989831 117.550409 
L 48.541223 114.51709 
L 49.027481 112.803611 
L 49.444273 108.612535 
L 49.305342 106.134938 
L 48.541223 99.929368 
L 46.642504 87.819243 
L 46.248867 82.123085 
L 46.387798 78.418267 
L 47.082451 73.764089 
L 48.309672 69.804564 
L 50.416787 65.821885 
L 51.736629 63.969476 
L 54.445777 61.098242 
L 56.691823 59.106902 
L 62.781618 54.360103 
L 67.759968 50.747906 
L 70.075479 49.219668 
L 75.794792 45.815866 
L 80.541591 43.361424 
L 84.130633 41.671101 
L 103.488309 33.173174 
L 108.605589 30.834508 
L 114.348057 28.032739 
L 118.88646 25.508831 
L 123.610103 22.568132 
L 127.477007 20.646257 
L 129.977759 20.16 
L 132.339581 20.229465 
L 135.257125 20.970429 
L 139.332425 23.332251 
L 143.963448 26.759207 
L 147.274629 28.565306 
L 151.234154 30.000923 
L 156.397744 31.274455 
L 159.338444 31.899643 
L 165.335618 33.034243 
L 169.68878 33.983603 
L 174.018786 35.210824 
L 177.005796 36.206494 
L 182.817729 38.776712 
L 188.166561 42.226824 
L 191.130415 44.820196 
L 196.618177 51.072077 
L 200.068289 56.212512 
L 202.314335 60.403588 
L 204.213055 64.779905 
L 205.787602 69.295152 
L 206.829582 72.837884 
L 207.755787 76.426927 
L 210.765952 93.37647 
L 210.974348 100.901883 
L 210.488091 108.867242 
L 209.955523 115.304363 
L 209.44611 119.842766 
L 208.010493 126.117802 
L 202.499576 141.816969 
L 200.068289 149.296071 
L 197.590692 155.964744 
L 193.445927 165.064703 
L 192.126085 168.769522 
L 191.06095 173.076373 
L 190.389452 177.082208 
L 189.97266 181.921626 
L 190.412607 193.499183 
L 191.500897 202.460212 
L 192.14924 206.049255 
L 193.214375 210.425572 
L 194.395286 214.361941 
L 196.08561 218.969809 
L 199.582032 226.888858 
L 200.670322 229.111749 
L 203.008989 233.46491 
L 205.532896 237.702296 
L 209.631351 243.375299 
L 213.42879 247.774771 
L 217.342004 251.826916 
L 220.63003 255.022321 
L 227.73865 261.413133 
L 234.430478 266.993515 
L 239.964551 271.184591 
L 242.187442 272.712828 
L 246.424827 275.02834 
L 249.712854 276.000855 
L 254.066015 276.16294 
L 258.233936 275.699838 
L 262.911269 275.02834 
L 267.241275 274.565237 
L 272.103849 274.449462 
L 277.313749 275.07465 
L 278.263109 275.329356 
L 280.995413 276.440802 
L 284.144508 278.478452 
L 290.928957 284.081989 
L 295.258963 287.833118 
L 306.211332 296.933078 
L 317.696268 306.889777 
L 321.424242 310.501974 
L 323.438737 312.70171 
L 325.406921 315.017222 
L 328.579172 319.277763 
L 331.427251 323.79301 
L 333.858538 328.169326 
L 337.702287 336.667253 
L 340.874537 345.16518 
L 344.996148 357.205839 
L 353.60985 383.857376 
L 355.439104 390.711289 
L 357.569375 402.381467 
L 357.499909 406.294681 
L 356.712635 408.587037 
L 355.6475 409.860569 
L 354.327659 410.740463 
L 351.826906 411.759288 
L 345.088768 413.750628 
L 337.655977 415.718812 
L 322.304136 419.539406 
L 310.448718 422.688502 
L 307.461708 423.221069 
L 303.270632 423.36 
L 300.931966 423.035828 
L 299.519504 422.642191 
L 296.555649 421.252885 
L 294.286448 419.632027 
L 289.794356 414.908383 
L 286.784191 410.485757 
L 284.190818 405.715803 
L 280.740706 398.722959 
L 276.063373 388.789415 
L 272.659572 383.301653 
L 271.640747 381.889191 
L 269.857803 380.036782 
L 268.607427 379.203198 
L 266.731862 378.67063 
L 264.948919 378.740095 
L 263.768008 379.041112 
L 261.660892 380.198868 
L 260.410516 381.310313 
L 258.650728 383.371118 
L 257.909764 384.436253 
L 254.853289 389.553534 
L 252.885104 392.031131 
L 248.832959 395.226536 
L 244.387177 397.264187 
L 242.117976 397.773599 
L 239.709844 397.91253 
L 234.314703 396.986325 
L 231.443469 395.944345 
L 228.780631 394.601348 
L 227.020842 393.420438 
L 224.65902 391.544873 
L 218.986017 386.311818 
L 206.482256 374.085917 
L 173.995631 342.270791 
L 158.041757 327.127346 
L 158.041757 327.127346 
" clip-path="url(#pb7512a147b)" style="fill: none; stroke: #ff1801; stroke-width: 3; stroke-linecap: square"/>
   </g>
  </g>
 </g>
 <defs>
  <clipPath id="pb7512a147b">
   <rect x="0" y="-0" width="374.596488" height="443.52"/>
  </clipPath>
 </defs>
</svg>
