<?xml version="1.0" encoding="utf-8" standalone="no"?>
<!DOCTYPE svg PUBLIC "-//W3C//DTD SVG 1.1//EN"
  "http://www.w3.org/Graphics/SVG/1.1/DTD/svg11.dtd">
<svg xmlns:xlink="http://www.w3.org/1999/xlink" width="446.4pt" height="320.7425pt" viewBox="0 0 446.4 320.7425" xmlns="http://www.w3.org/2000/svg" version="1.1">
 <metadata>
  <rdf:RDF xmlns:dc="http://purl.org/dc/elements/1.1/" xmlns:cc="http://creativecommons.org/ns#" xmlns:rdf="http://www.w3.org/1999/02/22-rdf-syntax-ns#">
   <cc:Work>
    <dc:type rdf:resource="http://purl.org/dc/dcmitype/StillImage"/>
    <dc:date>2026-02-12T12:54:49.377822</dc:date>
    <dc:format>image/svg+xml</dc:format>
    <dc:creator>
     <cc:Agent>
      <dc:title>Matplotlib v3.9.2, https://matplotlib.org/</dc:title>
     </cc:Agent>
    </dc:creator>
   </cc:Work>
  </rdf:RDF>
 </metadata>
 <defs>
  <style type="text/css">*{stroke-linejoin: round; stroke-linecap: butt}</style>
 </defs>
 <g id="figure_1">
  <g id="patch_1">
   <path d="M 0 320.7425 
L 446.4 320.7425 
L 446.4 0 
L 0 0 
L 0 320.7425 
z
" style="fill: none"/>
  </g>
  <g id="axes_1">
   <g id="line2d_1">
    <path d="M 380.281709 96.124408 
L 413.875344 82.041831 
L 416.825604 81.019074 
L 419.71686 79.897975 
L 421.054311 79.229249 
L 422.568778 78.245829 
L 423.453856 77.518098 
L 424.102914 76.810035 
L 425.538707 74.548169 
L 426.050086 72.758344 
L 426.050086 70.693161 
L 425.774728 69.2377 
L 424.88965 66.720144 
L 419.46117 54.171702 
L 415.999531 46.383014 
L 408.210843 28.878134 
L 403.156063 17.608139 
L 402.507006 16.506708 
L 401.34657 15.287267 
L 400.009119 14.677547 
L 399.025698 14.579205 
L 397.924268 14.677547 
L 396.488474 14.992241 
L 394.93467 15.464283 
L 391.355021 16.801734 
L 384.982458 19.260285 
L 355.283168 30.313928 
L 339.450102 36.293123 
L 329.281538 40.561166 
L 306.230168 50.533047 
L 283.021451 60.60327 
L 247.480645 76.515009 
L 245.19911 77.852461 
L 244.097679 78.816212 
L 243.035586 80.763384 
L 243.015917 82.041831 
L 243.153596 82.808898 
L 243.527296 83.949666 
L 244.904084 86.899926 
L 246.595567 90.30256 
L 247.303629 92.053048 
L 250.194885 100.608804 
L 252.437083 105.781594 
L 255.977395 113.530946 
L 257.059158 116.618885 
L 257.491863 119.136441 
L 257.432857 120.277208 
L 257.255842 120.945934 
L 256.154411 122.71609 
L 254.757954 123.778184 
L 253.597519 124.407573 
L 251.453662 125.371325 
L 242.48487 128.832964 
L 233.850441 132.569961 
L 228.834998 134.753154 
L 227.064841 135.638232 
L 221.223325 138.962192 
L 214.909768 142.758194 
L 208.59621 146.239502 
L 205.075566 148.462031 
L 203.010383 150.192851 
L 202.085968 151.215608 
L 201.299232 152.395712 
L 200.82719 153.418469 
L 200.591169 154.283879 
L 200.512496 155.463983 
L 200.886196 157.253808 
L 203.04972 162.072567 
L 203.187399 162.760961 
L 203.148062 164.078744 
L 202.872704 164.786807 
L 202.361326 165.573543 
L 201.594258 166.360279 
L 200.610838 167.166684 
L 198.447313 168.622145 
L 194.690648 170.962686 
L 191.150336 173.539246 
L 184.18772 179.007063 
L 152.049548 203.356547 
L 145.362291 208.588343 
L 143.729813 209.493089 
L 142.353025 209.866789 
L 140.700879 209.552094 
L 140.130495 209.11939 
L 139.560112 208.490001 
L 138.006308 205.520072 
L 136.924545 202.451801 
L 135.488752 197.751052 
L 129.548894 177.905632 
L 128.290116 173.971951 
L 127.739401 173.067205 
L 126.932996 172.516489 
L 124.946487 171.611743 
L 122.035564 170.490644 
L 119.636018 169.861255 
L 118.023209 169.605566 
L 111.906335 168.995845 
L 109.605132 168.287783 
L 108.700386 167.815741 
L 107.834976 167.147015 
L 106.635203 165.219512 
L 106.379514 163.705044 
L 106.202498 160.381084 
L 105.789462 159.279654 
L 105.101068 158.532254 
L 102.60318 157.72585 
L 101.108382 157.686513 
L 98.197458 157.883197 
L 94.263777 158.591259 
L 92.2576 159.161643 
L 88.874634 160.400753 
L 81.912019 163.567366 
L 74.575704 166.694642 
L 67.121379 170.510312 
L 54.848295 176.725528 
L 36.005964 187.562819 
L 32.662335 191.181805 
L 30.085774 196.629953 
L 28.29595 202.038764 
L 26.722477 207.50658 
L 22.611781 220.369717 
L 21.451345 224.716434 
L 20.861293 227.784705 
L 20.448256 231.384023 
L 20.290909 234.019589 
L 20.369583 238.700669 
L 21.097314 249.380613 
L 21.805376 259.254152 
L 21.687366 262.951812 
L 21.038308 270.406137 
L 21.038308 273.022034 
L 21.195656 274.18247 
L 21.746371 275.559259 
L 22.49377 276.365663 
L 23.260838 276.877042 
L 30.911847 280.751717 
L 36.399332 283.564299 
L 44.18802 287.438975 
L 49.754178 290.428572 
L 60.099759 296.388099 
L 65.803596 299.338359 
L 73.690626 303.803087 
L 77.722649 305.553575 
L 80.338547 306.163295 
L 83.269139 306.005948 
L 85.491669 304.806175 
L 86.376747 303.88176 
L 88.166572 301.187189 
L 94.519466 288.383058 
L 96.56498 284.17402 
L 99.534909 278.706203 
L 101.462413 275.618264 
L 103.409585 272.786014 
L 105.907472 269.560395 
L 107.559618 267.691897 
L 109.329774 265.882404 
L 114.502565 261.24066 
L 120.776786 255.753176 
L 123.825388 252.802915 
L 126.952665 249.380613 
L 135.075715 241.473914 
L 137.003219 238.740006 
L 138.557023 235.61273 
L 140.012485 231.679049 
L 141.625294 225.463833 
L 142.982414 219.169944 
L 144.300197 214.941237 
L 146.581732 210.869877 
L 150.967786 206.385481 
L 166.859856 194.486097 
L 183.08629 182.114671 
L 192.763145 174.660346 
L 198.073614 171.041359 
L 200.158465 169.861255 
L 206.767048 166.753647 
L 226.5928 158.82728 
L 246.792251 150.487877 
L 269.548594 140.948701 
L 311.363621 123.266806 
L 317.775521 120.709913 
L 353.139312 107.473077 
L 373.86981 98.759974 
L 373.86981 98.759974 
" clip-path="url(#p14edfb92fb)" style="fill: none; stroke: #ff1801; stroke-opacity: 0.3; stroke-width: 10; stroke-linecap: square"/>
   </g>
   <g id="line2d_2">
    <path d="M 380.281709 96.124408 
L 413.875344 82.041831 
L 416.825604 81.019074 
L 419.71686 79.897975 
L 421.054311 79.229249 
L 422.568778 78.245829 
L 423.453856 77.518098 
L 424.102914 76.810035 
L 425.538707 74.548169 
L 426.050086 72.758344 
L 426.050086 70.693161 
L 425.774728 69.2377 
L 424.88965 66.720144 
L 419.46117 54.171702 
L 415.999531 46.383014 
L 408.210843 28.878134 
L 403.156063 17.608139 
L 402.507006 16.506708 
L 401.34657 15.287267 
L 400.009119 14.677547 
L 399.025698 14.579205 
L 397.924268 14.677547 
L 396.488474 14.992241 
L 394.93467 15.464283 
L 391.355021 16.801734 
L 384.982458 19.260285 
L 355.283168 30.313928 
L 339.450102 36.293123 
L 329.281538 40.561166 
L 306.230168 50.533047 
L 283.021451 60.60327 
L 247.480645 76.515009 
L 245.19911 77.852461 
L 244.097679 78.816212 
L 243.035586 80.763384 
L 243.015917 82.041831 
L 243.153596 82.808898 
L 243.527296 83.949666 
L 244.904084 86.899926 
L 246.595567 90.30256 
L 247.303629 92.053048 
L 250.194885 100.608804 
L 252.437083 105.781594 
L 255.977395 113.530946 
L 257.059158 116.618885 
L 257.491863 119.136441 
L 257.432857 120.277208 
L 257.255842 120.945934 
L 256.154411 122.71609 
L 254.757954 123.778184 
L 253.597519 124.407573 
L 251.453662 125.371325 
L 242.48487 128.832964 
L 233.850441 132.569961 
L 228.834998 134.753154 
L 227.064841 135.638232 
L 221.223325 138.962192 
L 214.909768 142.758194 
L 208.59621 146.239502 
L 205.075566 148.462031 
L 203.010383 150.192851 
L 202.085968 151.215608 
L 201.299232 152.395712 
L 200.82719 153.418469 
L 200.591169 154.283879 
L 200.512496 155.463983 
L 200.886196 157.253808 
L 203.04972 162.072567 
L 203.187399 162.760961 
L 203.148062 164.078744 
L 202.872704 164.786807 
L 202.361326 165.573543 
L 201.594258 166.360279 
L 200.610838 167.166684 
L 198.447313 168.622145 
L 194.690648 170.962686 
L 191.150336 173.539246 
L 184.18772 179.007063 
L 152.049548 203.356547 
L 145.362291 208.588343 
L 143.729813 209.493089 
L 142.353025 209.866789 
L 140.700879 209.552094 
L 140.130495 209.11939 
L 139.560112 208.490001 
L 138.006308 205.520072 
L 136.924545 202.451801 
L 135.488752 197.751052 
L 129.548894 177.905632 
L 128.290116 173.971951 
L 127.739401 173.067205 
L 126.932996 172.516489 
L 124.946487 171.611743 
L 122.035564 170.490644 
L 119.636018 169.861255 
L 118.023209 169.605566 
L 111.906335 168.995845 
L 109.605132 168.287783 
L 108.700386 167.815741 
L 107.834976 167.147015 
L 106.635203 165.219512 
L 106.379514 163.705044 
L 106.202498 160.381084 
L 105.789462 159.279654 
L 105.101068 158.532254 
L 102.60318 157.72585 
L 101.108382 157.686513 
L 98.197458 157.883197 
L 94.263777 158.591259 
L 92.2576 159.161643 
L 88.874634 160.400753 
L 81.912019 163.567366 
L 74.575704 166.694642 
L 67.121379 170.510312 
L 54.848295 176.725528 
L 36.005964 187.562819 
L 32.662335 191.181805 
L 30.085774 196.629953 
L 28.29595 202.038764 
L 26.722477 207.50658 
L 22.611781 220.369717 
L 21.451345 224.716434 
L 20.861293 227.784705 
L 20.448256 231.384023 
L 20.290909 234.019589 
L 20.369583 238.700669 
L 21.097314 249.380613 
L 21.805376 259.254152 
L 21.687366 262.951812 
L 21.038308 270.406137 
L 21.038308 273.022034 
L 21.195656 274.18247 
L 21.746371 275.559259 
L 22.49377 276.365663 
L 23.260838 276.877042 
L 30.911847 280.751717 
L 36.399332 283.564299 
L 44.18802 287.438975 
L 49.754178 290.428572 
L 60.099759 296.388099 
L 65.803596 299.338359 
L 73.690626 303.803087 
L 77.722649 305.553575 
L 80.338547 306.163295 
L 83.269139 306.005948 
L 85.491669 304.806175 
L 86.376747 303.88176 
L 88.166572 301.187189 
L 94.519466 288.383058 
L 96.56498 284.17402 
L 99.534909 278.706203 
L 101.462413 275.618264 
L 103.409585 272.786014 
L 105.907472 269.560395 
L 107.559618 267.691897 
L 109.329774 265.882404 
L 114.502565 261.24066 
L 120.776786 255.753176 
L 123.825388 252.802915 
L 126.952665 249.380613 
L 135.075715 241.473914 
L 137.003219 238.740006 
L 138.557023 235.61273 
L 140.012485 231.679049 
L 141.625294 225.463833 
L 142.982414 219.169944 
L 144.300197 214.941237 
L 146.581732 210.869877 
L 150.967786 206.385481 
L 166.859856 194.486097 
L 183.08629 182.114671 
L 192.763145 174.660346 
L 198.073614 171.041359 
L 200.158465 169.861255 
L 206.767048 166.753647 
L 226.5928 158.82728 
L 246.792251 150.487877 
L 269.548594 140.948701 
L 311.363621 123.266806 
L 317.775521 120.709913 
L 353.139312 107.473077 
L 373.86981 98.759974 
L 373.86981 98.759974 
" clip-path="url(#p14edfb92fb)" style="fill: none; stroke: #ff1801; stroke-width: 3; stroke-linecap: square"/>
   </g>
  </g>
 </g>
 <defs>
  <clipPath id="p14edfb92fb">
   <rect x="0" y="0" width="446.4" height="320.7425"/>
  </clipPath>
 </defs>
</svg>
