<?xml version="1.0" encoding="utf-8" standalone="no"?>
<!DOCTYPE svg PUBLIC "-//W3C//DTD SVG 1.1//EN"
  "http://www.w3.org/Graphics/SVG/1.1/DTD/svg11.dtd">
<svg xmlns:xlink="http://www.w3.org/1999/xlink" width="302.306407pt" height="443.52pt" viewBox="0 0 302.306407 443.52" xmlns="http://www.w3.org/2000/svg" version="1.1">
 <metadata>
  <rdf:RDF xmlns:dc="http://purl.org/dc/elements/1.1/" xmlns:cc="http://creativecommons.org/ns#" xmlns:rdf="http://www.w3.org/1999/02/22-rdf-syntax-ns#">
   <cc:Work>
    <dc:type rdf:resource="http://purl.org/dc/dcmitype/StillImage"/>
    <dc:date>2026-02-12T12:52:21.952179</dc:date>
    <dc:format>image/svg+xml</dc:format>
    <dc:creator>
     <cc:Agent>
      <dc:title>Matplotlib v3.9.2, https://matplotlib.org/</dc:title>
     </cc:Agent>
    </dc:creator>
   </cc:Work>
  </rdf:RDF>
 </metadata>
 <defs>
  <style type="text/css">*{stroke-linejoin: round; stroke-linecap: butt}</style>
 </defs>
 <g id="figure_1">
  <g id="patch_1">
   <path d="M 0 443.52 
L 302.306407 443.52 
L 302.306407 0 
L 0 0 
L 0 443.52 
z
" style="fill: none"/>
  </g>
  <g id="axes_1">
   <g id="line2d_1">
    <path d="M 20.479919 259.690818 
L 21.500937 237.909101 
L 22.692125 209.286564 
L 23.78121 184.782132 
L 24.802228 157.657088 
L 27.456875 73.525206 
L 28.137554 51.539286 
L 28.716131 38.470256 
L 29.260674 31.765571 
L 29.498911 29.893705 
L 30.417827 26.149972 
L 31.779185 23.495325 
L 32.630033 22.440273 
L 34.569967 20.908747 
L 36.373766 20.262102 
L 37.598987 20.16 
L 38.722107 20.296136 
L 40.900279 21.181018 
L 42.431806 22.168002 
L 44.950317 24.31214 
L 47.40076 26.796617 
L 49.374728 28.906721 
L 51.655001 31.15296 
L 53.152494 32.378182 
L 55.296632 33.807607 
L 58.529856 35.3051 
L 61.660977 36.189982 
L 65.676982 36.632423 
L 70.305596 36.360152 
L 77.656926 35.100896 
L 81.264523 34.284082 
L 84.565814 33.331132 
L 92.972195 30.676485 
L 101.174373 29.553365 
L 107.300481 29.621433 
L 112.201367 29.927739 
L 118.80395 30.608417 
L 128.469587 32.242046 
L 175.57255 41.805581 
L 213.146012 49.224978 
L 230.299114 52.458202 
L 267.191897 59.196921 
L 271.650342 60.115837 
L 275.70038 61.238957 
L 280.260927 63.178891 
L 282.88154 64.744452 
L 284.719372 66.173877 
L 286.216865 67.739438 
L 287.442087 69.713406 
L 288.088731 71.449136 
L 288.565206 75.329005 
L 288.292935 78.766432 
L 286.999645 83.463115 
L 285.944594 85.743388 
L 283.153811 89.861494 
L 281.486148 91.73336 
L 278.082755 94.864482 
L 274.134819 98.029638 
L 259.193923 108.614191 
L 255.654394 111.336906 
L 242.449228 123.623155 
L 239.113902 127.741261 
L 236.084882 131.791299 
L 232.783591 136.658151 
L 227.780603 144.860329 
L 223.8667 150.57803 
L 221.246088 153.538982 
L 217.468321 156.874307 
L 214.030894 159.086513 
L 212.193062 159.937361 
L 206.713598 161.468888 
L 201.574475 161.843262 
L 189.900836 161.639058 
L 183.502456 161.979397 
L 180.099063 162.52394 
L 176.219195 163.47689 
L 171.998987 165.042451 
L 163.2863 169.977371 
L 160.461484 172.257645 
L 157.432464 175.252631 
L 153.24629 180.493857 
L 148.379438 187.743084 
L 142.559635 197.442755 
L 140.313396 201.254556 
L 137.862953 205.168458 
L 133.540643 211.15843 
L 129.830945 215.650909 
L 126.291416 218.747997 
L 124.759889 219.564811 
L 123.194328 220.143388 
L 121.288427 220.585829 
L 119.348493 220.619863 
L 118.157306 220.381626 
L 116.285439 219.224472 
L 115.468625 218.33959 
L 114.651811 217.21647 
L 113.800962 215.718977 
L 112.677842 213.200466 
L 111.895062 210.750023 
L 111.656825 209.490767 
L 111.316485 206.631917 
L 111.282451 204.249542 
L 111.384553 201.9012 
L 111.724892 198.25957 
L 112.882046 190.874206 
L 114.890048 181.446807 
L 117.238389 170.624016 
L 117.953102 167.118521 
L 122.207344 148.808265 
L 122.751887 146.187653 
L 125.440567 131.723231 
L 126.631755 122.772307 
L 127.10823 116.067622 
L 127.074196 111.268838 
L 126.733857 107.423003 
L 125.236364 100.82042 
L 123.943074 97.110722 
L 120.948088 91.018648 
L 118.123272 87.070712 
L 115.979134 84.72237 
L 111.146316 80.944604 
L 108.593771 79.753416 
L 106.109293 79.174839 
L 103.82902 79.276941 
L 102.7059 79.651314 
L 100.765966 81.012672 
L 99.506711 82.6463 
L 98.621828 84.450099 
L 97.94115 86.253897 
L 97.124335 89.282917 
L 96.715928 91.324953 
L 95.660876 98.846452 
L 94.537756 109.805379 
L 93.823044 118.586133 
L 92.767992 136.011507 
L 91.270499 164.736146 
L 87.424664 247.064229 
L 85.178425 289.878916 
L 85.008255 298.795807 
L 85.280527 303.764761 
L 86.539782 311.218192 
L 88.275513 316.187146 
L 89.738972 318.671623 
L 93.074297 322.040983 
L 96.239453 323.912849 
L 98.689896 325.001935 
L 101.174373 325.886817 
L 104.679868 326.737665 
L 109.955128 327.043971 
L 114.447607 326.43136 
L 119.246391 325.070003 
L 122.377513 323.810747 
L 126.461585 321.632575 
L 130.409521 318.943895 
L 132.21332 317.446402 
L 136.36546 313.396364 
L 141.30038 306.929916 
L 144.567637 301.178182 
L 146.303368 297.468483 
L 148.073132 293.248276 
L 151.238288 285.046098 
L 153.688731 279.430499 
L 156.717751 274.053138 
L 161.448468 267.348453 
L 165.974981 262.311431 
L 170.943935 258.295427 
L 175.164143 255.742882 
L 181.528488 252.815964 
L 186.73568 251.012165 
L 191.057989 249.957113 
L 198.000912 249.242401 
L 202.527425 249.41257 
L 206.543429 249.991147 
L 214.881742 252.475624 
L 220.871714 255.164305 
L 228.393213 258.942071 
L 239.862649 264.421535 
L 246.737503 268.029131 
L 248.4392 269.084183 
L 252.897645 272.419509 
L 255.007749 274.495579 
L 256.607344 276.401479 
L 258.887617 280.82589 
L 259.159889 281.642704 
L 260.21494 287.870914 
L 259.840567 293.044072 
L 258.989719 295.97099 
L 257.900633 298.251264 
L 255.109851 302.369369 
L 252.999747 304.581575 
L 249.902659 307.372358 
L 246.907673 309.618597 
L 242.993771 312.06904 
L 239.726513 313.906873 
L 223.968802 322.177118 
L 220.531375 323.946883 
L 189.59453 340.487374 
L 146.779843 364.243059 
L 98.145353 391.368103 
L 62.137453 411.890565 
L 48.591947 419.37803 
L 45.596961 420.807455 
L 39.777159 422.679321 
L 34.672069 423.36 
L 29.737149 422.883525 
L 25.653077 420.773421 
L 24.666093 419.922573 
L 22.658091 417.778435 
L 20.105546 414.27294 
L 17.72317 410.018698 
L 16.089542 405.832525 
L 15.238693 402.973674 
L 14.523981 399.570281 
L 13.979438 395.247972 
L 13.7412 387.930676 
L 13.809268 383.914672 
L 14.523981 370.062861 
L 16.021474 344.43531 
L 17.927374 309.21019 
L 18.948392 289.878916 
L 20.037478 268.573674 
L 20.037478 268.573674 
" clip-path="url(#p172b3fcc6e)" style="fill: none; stroke: #ff1801; stroke-opacity: 0.3; stroke-width: 10; stroke-linecap: square"/>
   </g>
   <g id="line2d_2">
    <path d="M 20.479919 259.690818 
L 21.500937 237.909101 
L 22.692125 209.286564 
L 23.78121 184.782132 
L 24.802228 157.657088 
L 27.456875 73.525206 
L 28.137554 51.539286 
L 28.716131 38.470256 
L 29.260674 31.765571 
L 29.498911 29.893705 
L 30.417827 26.149972 
L 31.779185 23.495325 
L 32.630033 22.440273 
L 34.569967 20.908747 
L 36.373766 20.262102 
L 37.598987 20.16 
L 38.722107 20.296136 
L 40.900279 21.181018 
L 42.431806 22.168002 
L 44.950317 24.31214 
L 47.40076 26.796617 
L 49.374728 28.906721 
L 51.655001 31.15296 
L 53.152494 32.378182 
L 55.296632 33.807607 
L 58.529856 35.3051 
L 61.660977 36.189982 
L 65.676982 36.632423 
L 70.305596 36.360152 
L 77.656926 35.100896 
L 81.264523 34.284082 
L 84.565814 33.331132 
L 92.972195 30.676485 
L 101.174373 29.553365 
L 107.300481 29.621433 
L 112.201367 29.927739 
L 118.80395 30.608417 
L 128.469587 32.242046 
L 175.57255 41.805581 
L 213.146012 49.224978 
L 230.299114 52.458202 
L 267.191897 59.196921 
L 271.650342 60.115837 
L 275.70038 61.238957 
L 280.260927 63.178891 
L 282.88154 64.744452 
L 284.719372 66.173877 
L 286.216865 67.739438 
L 287.442087 69.713406 
L 288.088731 71.449136 
L 288.565206 75.329005 
L 288.292935 78.766432 
L 286.999645 83.463115 
L 285.944594 85.743388 
L 283.153811 89.861494 
L 281.486148 91.73336 
L 278.082755 94.864482 
L 274.134819 98.029638 
L 259.193923 108.614191 
L 255.654394 111.336906 
L 242.449228 123.623155 
L 239.113902 127.741261 
L 236.084882 131.791299 
L 232.783591 136.658151 
L 227.780603 144.860329 
L 223.8667 150.57803 
L 221.246088 153.538982 
L 217.468321 156.874307 
L 214.030894 159.086513 
L 212.193062 159.937361 
L 206.713598 161.468888 
L 201.574475 161.843262 
L 189.900836 161.639058 
L 183.502456 161.979397 
L 180.099063 162.52394 
L 176.219195 163.47689 
L 171.998987 165.042451 
L 163.2863 169.977371 
L 160.461484 172.257645 
L 157.432464 175.252631 
L 153.24629 180.493857 
L 148.379438 187.743084 
L 142.559635 197.442755 
L 140.313396 201.254556 
L 137.862953 205.168458 
L 133.540643 211.15843 
L 129.830945 215.650909 
L 126.291416 218.747997 
L 124.759889 219.564811 
L 123.194328 220.143388 
L 121.288427 220.585829 
L 119.348493 220.619863 
L 118.157306 220.381626 
L 116.285439 219.224472 
L 115.468625 218.33959 
L 114.651811 217.21647 
L 113.800962 215.718977 
L 112.677842 213.200466 
L 111.895062 210.750023 
L 111.656825 209.490767 
L 111.316485 206.631917 
L 111.282451 204.249542 
L 111.384553 201.9012 
L 111.724892 198.25957 
L 112.882046 190.874206 
L 114.890048 181.446807 
L 117.238389 170.624016 
L 117.953102 167.118521 
L 122.207344 148.808265 
L 122.751887 146.187653 
L 125.440567 131.723231 
L 126.631755 122.772307 
L 127.10823 116.067622 
L 127.074196 111.268838 
L 126.733857 107.423003 
L 125.236364 100.82042 
L 123.943074 97.110722 
L 120.948088 91.018648 
L 118.123272 87.070712 
L 115.979134 84.72237 
L 111.146316 80.944604 
L 108.593771 79.753416 
L 106.109293 79.174839 
L 103.82902 79.276941 
L 102.7059 79.651314 
L 100.765966 81.012672 
L 99.506711 82.6463 
L 98.621828 84.450099 
L 97.94115 86.253897 
L 97.124335 89.282917 
L 96.715928 91.324953 
L 95.660876 98.846452 
L 94.537756 109.805379 
L 93.823044 118.586133 
L 92.767992 136.011507 
L 91.270499 164.736146 
L 87.424664 247.064229 
L 85.178425 289.878916 
L 85.008255 298.795807 
L 85.280527 303.764761 
L 86.539782 311.218192 
L 88.275513 316.187146 
L 89.738972 318.671623 
L 93.074297 322.040983 
L 96.239453 323.912849 
L 98.689896 325.001935 
L 101.174373 325.886817 
L 104.679868 326.737665 
L 109.955128 327.043971 
L 114.447607 326.43136 
L 119.246391 325.070003 
L 122.377513 323.810747 
L 126.461585 321.632575 
L 130.409521 318.943895 
L 132.21332 317.446402 
L 136.36546 313.396364 
L 141.30038 306.929916 
L 144.567637 301.178182 
L 146.303368 297.468483 
L 148.073132 293.248276 
L 151.238288 285.046098 
L 153.688731 279.430499 
L 156.717751 274.053138 
L 161.448468 267.348453 
L 165.974981 262.311431 
L 170.943935 258.295427 
L 175.164143 255.742882 
L 181.528488 252.815964 
L 186.73568 251.012165 
L 191.057989 249.957113 
L 198.000912 249.242401 
L 202.527425 249.41257 
L 206.543429 249.991147 
L 214.881742 252.475624 
L 220.871714 255.164305 
L 228.393213 258.942071 
L 239.862649 264.421535 
L 246.737503 268.029131 
L 248.4392 269.084183 
L 252.897645 272.419509 
L 255.007749 274.495579 
L 256.607344 276.401479 
L 258.887617 280.82589 
L 259.159889 281.642704 
L 260.21494 287.870914 
L 259.840567 293.044072 
L 258.989719 295.97099 
L 257.900633 298.251264 
L 255.109851 302.369369 
L 252.999747 304.581575 
L 249.902659 307.372358 
L 246.907673 309.618597 
L 242.993771 312.06904 
L 239.726513 313.906873 
L 223.968802 322.177118 
L 220.531375 323.946883 
L 189.59453 340.487374 
L 146.779843 364.243059 
L 98.145353 391.368103 
L 62.137453 411.890565 
L 48.591947 419.37803 
L 45.596961 420.807455 
L 39.777159 422.679321 
L 34.672069 423.36 
L 29.737149 422.883525 
L 25.653077 420.773421 
L 24.666093 419.922573 
L 22.658091 417.778435 
L 20.105546 414.27294 
L 17.72317 410.018698 
L 16.089542 405.832525 
L 15.238693 402.973674 
L 14.523981 399.570281 
L 13.979438 395.247972 
L 13.7412 387.930676 
L 13.809268 383.914672 
L 14.523981 370.062861 
L 16.021474 344.43531 
L 17.927374 309.21019 
L 18.948392 289.878916 
L 20.037478 268.573674 
L 20.037478 268.573674 
" clip-path="url(#p172b3fcc6e)" style="fill: none; stroke: #ff1801; stroke-width: 3; stroke-linecap: square"/>
   </g>
  </g>
 </g>
 <defs>
  <clipPath id="p172b3fcc6e">
   <rect x="0" y="-0" width="302.306407" height="443.52"/>
  </clipPath>
 </defs>
</svg>
