<?xml version="1.0" encoding="utf-8" standalone="no"?>
<!DOCTYPE svg PUBLIC "-//W3C//DTD SVG 1.1//EN"
  "http://www.w3.org/Graphics/SVG/1.1/DTD/svg11.dtd">
<svg xmlns:xlink="http://www.w3.org/1999/xlink" width="276.114011pt" height="443.52pt" viewBox="0 0 276.114011 443.52" xmlns="http://www.w3.org/2000/svg" version="1.1">
 <metadata>
  <rdf:RDF xmlns:dc="http://purl.org/dc/elements/1.1/" xmlns:cc="http://creativecommons.org/ns#" xmlns:rdf="http://www.w3.org/1999/02/22-rdf-syntax-ns#">
   <cc:Work>
    <dc:type rdf:resource="http://purl.org/dc/dcmitype/StillImage"/>
    <dc:date>2026-02-12T12:53:57.711457</dc:date>
    <dc:format>image/svg+xml</dc:format>
    <dc:creator>
     <cc:Agent>
      <dc:title>Matplotlib v3.9.2, https://matplotlib.org/</dc:title>
     </cc:Agent>
    </dc:creator>
   </cc:Work>
  </rdf:RDF>
 </metadata>
 <defs>
  <style type="text/css">*{stroke-linejoin: round; stroke-linecap: butt}</style>
 </defs>
 <g id="figure_1">
  <g id="patch_1">
   <path d="M 0 443.52 
L 276.114011 443.52 
L 276.114011 0 
L 0 0 
L 0 443.52 
z
" style="fill: none"/>
  </g>
  <g id="axes_1">
   <g id="line2d_1">
    <path d="M 88.932013 82.928068 
L 57.161012 34.904443 
L 55.236098 31.709483 
L 53.727918 28.732812 
L 53.092895 26.887276 
L 52.834917 25.458474 
L 52.953984 23.057293 
L 53.271495 22.164292 
L 53.807296 21.390357 
L 54.521697 20.775179 
L 55.355165 20.378289 
L 56.645056 20.16 
L 58.034169 20.298911 
L 60.713173 21.033157 
L 64.344711 22.521492 
L 68.095316 24.327339 
L 84.625762 32.840618 
L 87.165855 34.26942 
L 91.749928 36.988113 
L 97.088091 40.579963 
L 102.684233 44.786991 
L 106.295927 47.684284 
L 109.629798 50.621266 
L 114.82905 55.701451 
L 123.342329 64.512397 
L 136.439681 78.50275 
L 141.142821 83.662313 
L 144.675137 87.710586 
L 149.437811 92.989215 
L 152.037437 95.648375 
L 154.517996 97.870956 
L 156.859644 99.57758 
L 160.372115 101.423116 
L 164.559299 103.447253 
L 169.024306 106.860502 
L 172.774911 111.900998 
L 174.422002 115.314247 
L 176.76365 122.597169 
L 178.073385 130.515114 
L 180.176899 136.270011 
L 180.811922 137.480524 
L 183.510771 142.183664 
L 187.519354 148.394984 
L 202.620998 168.894324 
L 206.510515 174.51031 
L 208.375895 177.387759 
L 211.531166 182.626699 
L 213.972037 187.190928 
L 215.738195 190.921689 
L 217.365441 194.731828 
L 218.933155 198.938856 
L 226.057321 220.271665 
L 240.20643 262.599925 
L 255.367607 307.746101 
L 261.876594 327.253218 
L 262.888662 330.983979 
L 263.464152 334.13925 
L 263.563374 336.183231 
L 263.345085 338.445501 
L 262.233795 341.521394 
L 261.10266 343.287552 
L 258.622101 346.065778 
L 256.062164 348.784471 
L 254.772273 350.530785 
L 253.978494 352.118342 
L 253.403004 354.28139 
L 253.244248 355.591125 
L 253.264093 358.111373 
L 253.680827 360.631621 
L 254.593673 363.707515 
L 257.51081 371.804059 
L 257.947389 373.709129 
L 258.2649 377.122378 
L 257.927544 379.722004 
L 257.292521 381.904896 
L 256.022475 384.683122 
L 254.296006 387.243059 
L 252.688603 389.048906 
L 251.438401 390.160197 
L 248.044997 392.640756 
L 236.178002 400.816679 
L 227.228145 407.524111 
L 215.063483 416.950235 
L 211.293033 419.41095 
L 206.927249 421.831976 
L 205.180935 422.645599 
L 203.355244 423.221089 
L 201.092974 423.36 
L 199.088682 423.062333 
L 196.568434 421.931198 
L 195.000721 420.601618 
L 193.730674 419.113283 
L 192.897206 417.565414 
L 192.460628 416.116767 
L 192.282028 414.033098 
L 192.38125 412.822585 
L 192.599539 411.731139 
L 193.254407 409.865758 
L 194.28632 408.020222 
L 196.826412 405.122929 
L 198.215525 403.932261 
L 201.192196 401.789058 
L 202.561465 400.935746 
L 214.329237 394.089403 
L 216.690729 391.886666 
L 218.298132 389.743463 
L 218.992688 388.513106 
L 220.044445 384.603744 
L 220.163512 382.936809 
L 220.044445 380.734072 
L 219.846001 379.384648 
L 219.151444 376.467511 
L 217.762331 372.538305 
L 213.535458 362.457313 
L 210.777076 355.352991 
L 208.832318 349.300427 
L 207.46305 344.259931 
L 205.042024 334.178939 
L 202.025664 319.950452 
L 198.711637 304.749586 
L 197.183613 298.498577 
L 196.131855 295.382994 
L 193.611607 290.342498 
L 189.305357 285.341691 
L 188.213911 284.428845 
L 183.828282 281.710153 
L 181.188967 280.757618 
L 177.041473 280.122595 
L 170.413419 279.805083 
L 167.71457 279.824928 
L 162.376407 280.301195 
L 158.645646 281.293419 
L 156.085709 282.424554 
L 152.116815 284.746357 
L 149.358433 286.790338 
L 146.560362 289.33043 
L 145.052182 290.937832 
L 142.86929 293.636681 
L 140.587176 297.069775 
L 137.689883 302.765138 
L 136.340459 306.019632 
L 135.586369 308.14299 
L 128.124847 331.599157 
L 122.151661 350.074362 
L 120.544258 354.440146 
L 119.254368 357.277905 
L 117.170698 360.651466 
L 114.690139 363.429692 
L 113.082736 364.798961 
L 110.979222 366.148385 
L 109.391665 366.842941 
L 107.744573 367.27952 
L 106.097482 367.477964 
L 103.319256 367.477964 
L 100.71963 367.001697 
L 98.81456 366.326985 
L 93.734375 363.628137 
L 90.499726 362.377935 
L 88.396212 361.921512 
L 86.292698 361.762756 
L 82.819915 362.17949 
L 81.172824 362.635913 
L 78.632732 363.707515 
L 76.668129 364.878338 
L 74.961504 366.227763 
L 67.519827 375.951554 
L 66.011647 378.789314 
L 59.383593 392.382778 
L 57.577746 395.617427 
L 55.672676 398.733009 
L 52.993673 402.126414 
L 52.219738 402.840815 
L 50.394047 404.190239 
L 47.992865 405.321374 
L 46.425152 405.698419 
L 44.361327 405.738108 
L 42.019679 405.440441 
L 39.876476 404.944329 
L 38.308763 404.408528 
L 36.582294 403.634594 
L 34.83598 402.721748 
L 31.700553 400.836523 
L 28.902483 399.050521 
L 27.69197 398.11783 
L 24.298565 395.67696 
L 22.373651 394.069558 
L 19.337447 391.092887 
L 17.452222 388.810773 
L 14.931974 384.702967 
L 13.860372 382.32163 
L 12.828459 378.868692 
L 12.550637 376.189688 
L 12.550637 373.66944 
L 12.689548 371.466703 
L 13.18566 367.855009 
L 14.336639 362.913736 
L 15.963886 358.012151 
L 17.432377 354.519524 
L 18.583357 352.138187 
L 19.853403 349.776695 
L 21.877539 346.422979 
L 25.310633 341.402327 
L 27.334769 338.66379 
L 32.097443 332.889048 
L 35.490848 329.138443 
L 41.543412 323.006501 
L 46.583908 318.481961 
L 50.612336 315.187778 
L 55.930655 311.37764 
L 60.197216 308.639102 
L 86.590365 293.339014 
L 91.690395 290.024987 
L 97.584203 285.440913 
L 101.533253 281.710153 
L 103.775679 279.289127 
L 105.720437 276.927635 
L 107.923174 273.871586 
L 109.748865 270.954448 
L 111.773001 267.362599 
L 113.777293 263.37386 
L 115.364851 259.940766 
L 118.381211 253.015045 
L 121.536482 245.037567 
L 122.449328 242.437941 
L 124.255175 236.167087 
L 125.247398 228.804788 
L 125.148176 224.696982 
L 124.275019 218.862707 
L 122.766839 214.000811 
L 121.000681 209.178604 
L 117.369143 200.367658 
L 109.927465 183.063278 
L 108.756641 180.205674 
L 106.137171 173.121197 
L 104.84728 168.517279 
L 102.783455 159.031621 
L 101.771387 153.872058 
L 99.548806 140.596106 
L 98.675649 134.523697 
L 98.358138 130.991381 
L 98.437516 127.935332 
L 98.735183 125.553995 
L 99.588495 123.430637 
L 100.005229 122.855147 
L 100.937919 122.041524 
L 101.513409 121.763701 
L 103.180345 121.426345 
L 105.462459 121.307278 
L 106.256238 121.188211 
L 107.228617 120.8707 
L 107.943018 120.47381 
L 108.994775 119.342675 
L 109.252753 118.747341 
L 109.471042 117.834496 
L 109.471042 116.246938 
L 109.133686 114.560157 
L 108.478819 112.813844 
L 107.129395 110.293596 
L 104.450391 106.225479 
L 95.818045 93.346416 
L 90.579104 85.428471 
L 90.579104 85.428471 
" clip-path="url(#pfab19074f0)" style="fill: none; stroke: #ff1801; stroke-opacity: 0.3; stroke-width: 10; stroke-linecap: square"/>
   </g>
   <g id="line2d_2">
    <path d="M 88.932013 82.928068 
L 57.161012 34.904443 
L 55.236098 31.709483 
L 53.727918 28.732812 
L 53.092895 26.887276 
L 52.834917 25.458474 
L 52.953984 23.057293 
L 53.271495 22.164292 
L 53.807296 21.390357 
L 54.521697 20.775179 
L 55.355165 20.378289 
L 56.645056 20.16 
L 58.034169 20.298911 
L 60.713173 21.033157 
L 64.344711 22.521492 
L 68.095316 24.327339 
L 84.625762 32.840618 
L 87.165855 34.26942 
L 91.749928 36.988113 
L 97.088091 40.579963 
L 102.684233 44.786991 
L 106.295927 47.684284 
L 109.629798 50.621266 
L 114.82905 55.701451 
L 123.342329 64.512397 
L 136.439681 78.50275 
L 141.142821 83.662313 
L 144.675137 87.710586 
L 149.437811 92.989215 
L 152.037437 95.648375 
L 154.517996 97.870956 
L 156.859644 99.57758 
L 160.372115 101.423116 
L 164.559299 103.447253 
L 169.024306 106.860502 
L 172.774911 111.900998 
L 174.422002 115.314247 
L 176.76365 122.597169 
L 178.073385 130.515114 
L 180.176899 136.270011 
L 180.811922 137.480524 
L 183.510771 142.183664 
L 187.519354 148.394984 
L 202.620998 168.894324 
L 206.510515 174.51031 
L 208.375895 177.387759 
L 211.531166 182.626699 
L 213.972037 187.190928 
L 215.738195 190.921689 
L 217.365441 194.731828 
L 218.933155 198.938856 
L 226.057321 220.271665 
L 240.20643 262.599925 
L 255.367607 307.746101 
L 261.876594 327.253218 
L 262.888662 330.983979 
L 263.464152 334.13925 
L 263.563374 336.183231 
L 263.345085 338.445501 
L 262.233795 341.521394 
L 261.10266 343.287552 
L 258.622101 346.065778 
L 256.062164 348.784471 
L 254.772273 350.530785 
L 253.978494 352.118342 
L 253.403004 354.28139 
L 253.244248 355.591125 
L 253.264093 358.111373 
L 253.680827 360.631621 
L 254.593673 363.707515 
L 257.51081 371.804059 
L 257.947389 373.709129 
L 258.2649 377.122378 
L 257.927544 379.722004 
L 257.292521 381.904896 
L 256.022475 384.683122 
L 254.296006 387.243059 
L 252.688603 389.048906 
L 251.438401 390.160197 
L 248.044997 392.640756 
L 236.178002 400.816679 
L 227.228145 407.524111 
L 215.063483 416.950235 
L 211.293033 419.41095 
L 206.927249 421.831976 
L 205.180935 422.645599 
L 203.355244 423.221089 
L 201.092974 423.36 
L 199.088682 423.062333 
L 196.568434 421.931198 
L 195.000721 420.601618 
L 193.730674 419.113283 
L 192.897206 417.565414 
L 192.460628 416.116767 
L 192.282028 414.033098 
L 192.38125 412.822585 
L 192.599539 411.731139 
L 193.254407 409.865758 
L 194.28632 408.020222 
L 196.826412 405.122929 
L 198.215525 403.932261 
L 201.192196 401.789058 
L 202.561465 400.935746 
L 214.329237 394.089403 
L 216.690729 391.886666 
L 218.298132 389.743463 
L 218.992688 388.513106 
L 220.044445 384.603744 
L 220.163512 382.936809 
L 220.044445 380.734072 
L 219.846001 379.384648 
L 219.151444 376.467511 
L 217.762331 372.538305 
L 213.535458 362.457313 
L 210.777076 355.352991 
L 208.832318 349.300427 
L 207.46305 344.259931 
L 205.042024 334.178939 
L 202.025664 319.950452 
L 198.711637 304.749586 
L 197.183613 298.498577 
L 196.131855 295.382994 
L 193.611607 290.342498 
L 189.305357 285.341691 
L 188.213911 284.428845 
L 183.828282 281.710153 
L 181.188967 280.757618 
L 177.041473 280.122595 
L 170.413419 279.805083 
L 167.71457 279.824928 
L 162.376407 280.301195 
L 158.645646 281.293419 
L 156.085709 282.424554 
L 152.116815 284.746357 
L 149.358433 286.790338 
L 146.560362 289.33043 
L 145.052182 290.937832 
L 142.86929 293.636681 
L 140.587176 297.069775 
L 137.689883 302.765138 
L 136.340459 306.019632 
L 135.586369 308.14299 
L 128.124847 331.599157 
L 122.151661 350.074362 
L 120.544258 354.440146 
L 119.254368 357.277905 
L 117.170698 360.651466 
L 114.690139 363.429692 
L 113.082736 364.798961 
L 110.979222 366.148385 
L 109.391665 366.842941 
L 107.744573 367.27952 
L 106.097482 367.477964 
L 103.319256 367.477964 
L 100.71963 367.001697 
L 98.81456 366.326985 
L 93.734375 363.628137 
L 90.499726 362.377935 
L 88.396212 361.921512 
L 86.292698 361.762756 
L 82.819915 362.17949 
L 81.172824 362.635913 
L 78.632732 363.707515 
L 76.668129 364.878338 
L 74.961504 366.227763 
L 67.519827 375.951554 
L 66.011647 378.789314 
L 59.383593 392.382778 
L 57.577746 395.617427 
L 55.672676 398.733009 
L 52.993673 402.126414 
L 52.219738 402.840815 
L 50.394047 404.190239 
L 47.992865 405.321374 
L 46.425152 405.698419 
L 44.361327 405.738108 
L 42.019679 405.440441 
L 39.876476 404.944329 
L 38.308763 404.408528 
L 36.582294 403.634594 
L 34.83598 402.721748 
L 31.700553 400.836523 
L 28.902483 399.050521 
L 27.69197 398.11783 
L 24.298565 395.67696 
L 22.373651 394.069558 
L 19.337447 391.092887 
L 17.452222 388.810773 
L 14.931974 384.702967 
L 13.860372 382.32163 
L 12.828459 378.868692 
L 12.550637 376.189688 
L 12.550637 373.66944 
L 12.689548 371.466703 
L 13.18566 367.855009 
L 14.336639 362.913736 
L 15.963886 358.012151 
L 17.432377 354.519524 
L 18.583357 352.138187 
L 19.853403 349.776695 
L 21.877539 346.422979 
L 25.310633 341.402327 
L 27.334769 338.66379 
L 32.097443 332.889048 
L 35.490848 329.138443 
L 41.543412 323.006501 
L 46.583908 318.481961 
L 50.612336 315.187778 
L 55.930655 311.37764 
L 60.197216 308.639102 
L 86.590365 293.339014 
L 91.690395 290.024987 
L 97.584203 285.440913 
L 101.533253 281.710153 
L 103.775679 279.289127 
L 105.720437 276.927635 
L 107.923174 273.871586 
L 109.748865 270.954448 
L 111.773001 267.362599 
L 113.777293 263.37386 
L 115.364851 259.940766 
L 118.381211 253.015045 
L 121.536482 245.037567 
L 122.449328 242.437941 
L 124.255175 236.167087 
L 125.247398 228.804788 
L 125.148176 224.696982 
L 124.275019 218.862707 
L 122.766839 214.000811 
L 121.000681 209.178604 
L 117.369143 200.367658 
L 109.927465 183.063278 
L 108.756641 180.205674 
L 106.137171 173.121197 
L 104.84728 168.517279 
L 102.783455 159.031621 
L 101.771387 153.872058 
L 99.548806 140.596106 
L 98.675649 134.523697 
L 98.358138 130.991381 
L 98.437516 127.935332 
L 98.735183 125.553995 
L 99.588495 123.430637 
L 100.005229 122.855147 
L 100.937919 122.041524 
L 101.513409 121.763701 
L 103.180345 121.426345 
L 105.462459 121.307278 
L 106.256238 121.188211 
L 107.228617 120.8707 
L 107.943018 120.47381 
L 108.994775 119.342675 
L 109.252753 118.747341 
L 109.471042 117.834496 
L 109.471042 116.246938 
L 109.133686 114.560157 
L 108.478819 112.813844 
L 107.129395 110.293596 
L 104.450391 106.225479 
L 95.818045 93.346416 
L 90.579104 85.428471 
L 90.579104 85.428471 
" clip-path="url(#pfab19074f0)" style="fill: none; stroke: #ff1801; stroke-width: 3; stroke-linecap: square"/>
   </g>
  </g>
 </g>
 <defs>
  <clipPath id="pfab19074f0">
   <rect x="0" y="-0" width="276.114011" height="443.52"/>
  </clipPath>
 </defs>
</svg>
