<?xml version="1.0" encoding="utf-8" standalone="no"?>
<!DOCTYPE svg PUBLIC "-//W3C//DTD SVG 1.1//EN"
  "http://www.w3.org/Graphics/SVG/1.1/DTD/svg11.dtd">
<svg xmlns:xlink="http://www.w3.org/1999/xlink" width="260.006908pt" height="443.52pt" viewBox="0 0 260.006908 443.52" xmlns="http://www.w3.org/2000/svg" version="1.1">
 <metadata>
  <rdf:RDF xmlns:dc="http://purl.org/dc/elements/1.1/" xmlns:cc="http://creativecommons.org/ns#" xmlns:rdf="http://www.w3.org/1999/02/22-rdf-syntax-ns#">
   <cc:Work>
    <dc:type rdf:resource="http://purl.org/dc/dcmitype/StillImage"/>
    <dc:date>2026-02-12T12:53:35.986132</dc:date>
    <dc:format>image/svg+xml</dc:format>
    <dc:creator>
     <cc:Agent>
      <dc:title>Matplotlib v3.9.2, https://matplotlib.org/</dc:title>
     </cc:Agent>
    </dc:creator>
   </cc:Work>
  </rdf:RDF>
 </metadata>
 <defs>
  <style type="text/css">*{stroke-linejoin: round; stroke-linecap: butt}</style>
 </defs>
 <g id="figure_1">
  <g id="patch_1">
   <path d="M 0 443.52 
L 260.006908 443.52 
L 260.006908 0 
L 0 0 
L 0 443.52 
z
" style="fill: none"/>
  </g>
  <g id="axes_1">
   <g id="line2d_1">
    <path d="M 30.771142 291.06585 
L 34.046908 286.85415 
L 46.143844 270.264735 
L 53.350529 260.109861 
L 62.803454 246.094262 
L 67.857493 239.191755 
L 73.402897 232.593426 
L 75.344958 230.58117 
L 78.222953 228.007354 
L 82.692033 225.012368 
L 85.850808 223.538273 
L 92.636323 221.736602 
L 98.509304 221.245237 
L 103.212368 221.292033 
L 108.991755 221.783398 
L 115.91766 222.74273 
L 119.778384 223.070306 
L 125.253593 223.117103 
L 130.611811 222.625738 
L 134.917103 221.643008 
L 137.537716 220.77727 
L 143.176713 218.133259 
L 146.148301 216.237994 
L 151.06195 212.353872 
L 153.354986 210.201226 
L 158.853593 204.655822 
L 165.19454 198.642451 
L 170.108189 194.383955 
L 174.319889 191.084791 
L 178.087019 189.236323 
L 179.935487 188.932145 
L 182.111532 188.978942 
L 183.609025 189.236323 
L 184.544958 189.517103 
L 186.276435 190.359443 
L 187.680334 191.365571 
L 189.505404 193.377827 
L 190.862507 196.255822 
L 191.65805 199.531588 
L 192.687577 207.767799 
L 193.48312 210.037437 
L 194.770028 212.213482 
L 195.635766 213.266407 
L 196.548301 214.178942 
L 197.835209 215.18507 
L 199.847465 216.167799 
L 202.046908 216.214596 
L 204.152758 215.068078 
L 205.416267 213.968357 
L 206.211811 213.07922 
L 207.311532 211.67532 
L 208.200669 210.341616 
L 209.370585 208.282563 
L 210.470306 205.849136 
L 211.570028 202.666964 
L 213.044123 197.074763 
L 213.605682 194.079777 
L 213.956657 191.014596 
L 214.050251 188.651365 
L 213.980056 186.19454 
L 213.699276 183.410139 
L 213.324903 181.140501 
L 212.786741 178.870864 
L 211.780613 175.782284 
L 208.949415 169.979499 
L 205.720446 165.34663 
L 202.72546 162.000669 
L 200.549415 159.965014 
L 196.665292 156.736045 
L 186.533816 148.850808 
L 176.636323 140.521003 
L 143.317103 111.647465 
L 110.138273 82.422953 
L 103.867521 77.228524 
L 98.69649 73.882563 
L 95.935487 72.548858 
L 90.834652 71.027967 
L 88.565014 70.817382 
L 85.359443 70.817382 
L 83.253593 70.957772 
L 78.410139 72.572256 
L 74.549415 75.660836 
L 72.888134 78.187855 
L 71.975599 80.012925 
L 70.782284 83.592869 
L 70.431309 86.447465 
L 69.869749 94.987855 
L 69.448579 96.976713 
L 68.60624 99.129359 
L 67.436323 101.048022 
L 65.260279 103.364457 
L 62.475877 105.119331 
L 59.293705 106.055265 
L 57.024067 106.031866 
L 55.900947 105.751086 
L 54.777827 105.28312 
L 51.970028 103.224067 
L 50.378942 101.258607 
L 48.951643 98.474206 
L 47.968914 94.987855 
L 47.711532 91.478106 
L 47.828524 89.138273 
L 48.039109 87.453593 
L 49.396212 81.674206 
L 50.285348 79.147187 
L 51.221281 76.85415 
L 52.882563 73.250808 
L 54.918217 69.319889 
L 57.889805 63.961671 
L 61.212368 58.931031 
L 64.183955 55.046908 
L 66.336602 52.49649 
L 71.320446 47.419053 
L 74.643008 44.400669 
L 79.907632 40.305961 
L 83.464178 37.966128 
L 85.312646 36.936602 
L 88.915989 35.181727 
L 93.291476 33.356657 
L 97.807354 31.788969 
L 103.165571 30.291476 
L 108.289805 29.168357 
L 115.800669 27.975042 
L 119.216825 27.553872 
L 162.222953 22.897604 
L 179.350529 20.698162 
L 186.159443 20.16 
L 189.248022 20.16 
L 195.074206 20.932145 
L 198.537159 21.891476 
L 205.907632 25.471421 
L 209.674763 28.302618 
L 212.739944 31.250808 
L 217.021838 37.66195 
L 218.519331 40.844123 
L 220.063621 44.79844 
L 221.795097 50.273649 
L 222.824624 53.993983 
L 224.439109 60.732702 
L 226.10039 69.039109 
L 227.293705 76.783955 
L 228.34663 86.119889 
L 229.071978 96.719331 
L 229.563343 113.729916 
L 229.773928 117.169471 
L 230.475877 123.089248 
L 231.552201 128.985627 
L 232.885905 134.414039 
L 234.593983 140.170028 
L 236.770028 146.183398 
L 238.431309 150.278106 
L 240.420167 155.519331 
L 241.683677 159.918217 
L 242.221838 163.287577 
L 241.964457 169.839109 
L 241.3561 173.348858 
L 240.420167 177.490362 
L 238.665292 184.509861 
L 238.103733 187.083677 
L 237.284791 192.231309 
L 237.144401 197.612925 
L 238.431309 203.69649 
L 240.139387 207.557214 
L 242.05805 210.949972 
L 244.72546 215.372256 
L 246.082563 217.922674 
L 247.556657 221.947187 
L 248.188412 226.626852 
L 248.001226 228.966685 
L 246.761114 233.833538 
L 246.222953 235.214039 
L 243.134373 240.572256 
L 239.671421 244.269192 
L 236.887019 246.25805 
L 235.249136 247.217382 
L 229.563343 250.212368 
L 226.638552 252.107632 
L 224.883677 253.53493 
L 219.478663 259.033538 
L 217.27922 261.607354 
L 213.980056 266.123231 
L 211.382841 270.33493 
L 209.16 274.429638 
L 205.720446 281.285348 
L 200.151643 292.750529 
L 179.841894 334.984513 
L 167.698162 360.044123 
L 157.005125 381.266407 
L 151.48312 391.748858 
L 147.598997 398.768357 
L 143.270306 405.975042 
L 138.894819 412.011811 
L 137.046351 414.141058 
L 133.232423 417.767799 
L 128.716546 420.669192 
L 126.212925 421.792312 
L 122.258607 422.985627 
L 118.468078 423.36 
L 114.092591 422.915432 
L 110.208468 421.745515 
L 106.558329 419.920446 
L 103.961114 418.071978 
L 101.317103 415.708747 
L 98.766685 412.760557 
L 96.146072 408.993426 
L 94.344401 405.834652 
L 89.898719 397.551643 
L 87.558886 393.784513 
L 80.983955 384.659164 
L 75.017382 376.610139 
L 72.139387 372.866407 
L 67.7639 367.554986 
L 58.10039 356.58117 
L 55.760557 354.007354 
L 51.993426 350.637994 
L 50.285348 349.608468 
L 48.273092 348.789526 
L 45.909861 348.368357 
L 42.446908 348.625738 
L 40.153872 349.631866 
L 36.246351 352.533259 
L 33.88312 353.890362 
L 32.61961 354.311532 
L 31.309304 354.47532 
L 28.571699 354.100947 
L 25.974485 353.211811 
L 24.476992 352.486462 
L 22.066964 350.871978 
L 19.259164 347.876992 
L 17.50429 345.677549 
L 14.766685 341.348858 
L 13.456379 338.119889 
L 12.075877 332.317103 
L 11.818496 329.766685 
L 12.005682 323.40234 
L 13.011811 318.371699 
L 16.006797 311.422396 
L 16.966128 309.761114 
L 21.832981 302.741616 
L 24.383398 299.231866 
L 24.383398 299.231866 
" clip-path="url(#p1a02fb8e81)" style="fill: none; stroke: #ff1801; stroke-opacity: 0.3; stroke-width: 10; stroke-linecap: square"/>
   </g>
   <g id="line2d_2">
    <path d="M 30.771142 291.06585 
L 34.046908 286.85415 
L 46.143844 270.264735 
L 53.350529 260.109861 
L 62.803454 246.094262 
L 67.857493 239.191755 
L 73.402897 232.593426 
L 75.344958 230.58117 
L 78.222953 228.007354 
L 82.692033 225.012368 
L 85.850808 223.538273 
L 92.636323 221.736602 
L 98.509304 221.245237 
L 103.212368 221.292033 
L 108.991755 221.783398 
L 115.91766 222.74273 
L 119.778384 223.070306 
L 125.253593 223.117103 
L 130.611811 222.625738 
L 134.917103 221.643008 
L 137.537716 220.77727 
L 143.176713 218.133259 
L 146.148301 216.237994 
L 151.06195 212.353872 
L 153.354986 210.201226 
L 158.853593 204.655822 
L 165.19454 198.642451 
L 170.108189 194.383955 
L 174.319889 191.084791 
L 178.087019 189.236323 
L 179.935487 188.932145 
L 182.111532 188.978942 
L 183.609025 189.236323 
L 184.544958 189.517103 
L 186.276435 190.359443 
L 187.680334 191.365571 
L 189.505404 193.377827 
L 190.862507 196.255822 
L 191.65805 199.531588 
L 192.687577 207.767799 
L 193.48312 210.037437 
L 194.770028 212.213482 
L 195.635766 213.266407 
L 196.548301 214.178942 
L 197.835209 215.18507 
L 199.847465 216.167799 
L 202.046908 216.214596 
L 204.152758 215.068078 
L 205.416267 213.968357 
L 206.211811 213.07922 
L 207.311532 211.67532 
L 208.200669 210.341616 
L 209.370585 208.282563 
L 210.470306 205.849136 
L 211.570028 202.666964 
L 213.044123 197.074763 
L 213.605682 194.079777 
L 213.956657 191.014596 
L 214.050251 188.651365 
L 213.980056 186.19454 
L 213.699276 183.410139 
L 213.324903 181.140501 
L 212.786741 178.870864 
L 211.780613 175.782284 
L 208.949415 169.979499 
L 205.720446 165.34663 
L 202.72546 162.000669 
L 200.549415 159.965014 
L 196.665292 156.736045 
L 186.533816 148.850808 
L 176.636323 140.521003 
L 143.317103 111.647465 
L 110.138273 82.422953 
L 103.867521 77.228524 
L 98.69649 73.882563 
L 95.935487 72.548858 
L 90.834652 71.027967 
L 88.565014 70.817382 
L 85.359443 70.817382 
L 83.253593 70.957772 
L 78.410139 72.572256 
L 74.549415 75.660836 
L 72.888134 78.187855 
L 71.975599 80.012925 
L 70.782284 83.592869 
L 70.431309 86.447465 
L 69.869749 94.987855 
L 69.448579 96.976713 
L 68.60624 99.129359 
L 67.436323 101.048022 
L 65.260279 103.364457 
L 62.475877 105.119331 
L 59.293705 106.055265 
L 57.024067 106.031866 
L 55.900947 105.751086 
L 54.777827 105.28312 
L 51.970028 103.224067 
L 50.378942 101.258607 
L 48.951643 98.474206 
L 47.968914 94.987855 
L 47.711532 91.478106 
L 47.828524 89.138273 
L 48.039109 87.453593 
L 49.396212 81.674206 
L 50.285348 79.147187 
L 51.221281 76.85415 
L 52.882563 73.250808 
L 54.918217 69.319889 
L 57.889805 63.961671 
L 61.212368 58.931031 
L 64.183955 55.046908 
L 66.336602 52.49649 
L 71.320446 47.419053 
L 74.643008 44.400669 
L 79.907632 40.305961 
L 83.464178 37.966128 
L 85.312646 36.936602 
L 88.915989 35.181727 
L 93.291476 33.356657 
L 97.807354 31.788969 
L 103.165571 30.291476 
L 108.289805 29.168357 
L 115.800669 27.975042 
L 119.216825 27.553872 
L 162.222953 22.897604 
L 179.350529 20.698162 
L 186.159443 20.16 
L 189.248022 20.16 
L 195.074206 20.932145 
L 198.537159 21.891476 
L 205.907632 25.471421 
L 209.674763 28.302618 
L 212.739944 31.250808 
L 217.021838 37.66195 
L 218.519331 40.844123 
L 220.063621 44.79844 
L 221.795097 50.273649 
L 222.824624 53.993983 
L 224.439109 60.732702 
L 226.10039 69.039109 
L 227.293705 76.783955 
L 228.34663 86.119889 
L 229.071978 96.719331 
L 229.563343 113.729916 
L 229.773928 117.169471 
L 230.475877 123.089248 
L 231.552201 128.985627 
L 232.885905 134.414039 
L 234.593983 140.170028 
L 236.770028 146.183398 
L 238.431309 150.278106 
L 240.420167 155.519331 
L 241.683677 159.918217 
L 242.221838 163.287577 
L 241.964457 169.839109 
L 241.3561 173.348858 
L 240.420167 177.490362 
L 238.665292 184.509861 
L 238.103733 187.083677 
L 237.284791 192.231309 
L 237.144401 197.612925 
L 238.431309 203.69649 
L 240.139387 207.557214 
L 242.05805 210.949972 
L 244.72546 215.372256 
L 246.082563 217.922674 
L 247.556657 221.947187 
L 248.188412 226.626852 
L 248.001226 228.966685 
L 246.761114 233.833538 
L 246.222953 235.214039 
L 243.134373 240.572256 
L 239.671421 244.269192 
L 236.887019 246.25805 
L 235.249136 247.217382 
L 229.563343 250.212368 
L 226.638552 252.107632 
L 224.883677 253.53493 
L 219.478663 259.033538 
L 217.27922 261.607354 
L 213.980056 266.123231 
L 211.382841 270.33493 
L 209.16 274.429638 
L 205.720446 281.285348 
L 200.151643 292.750529 
L 179.841894 334.984513 
L 167.698162 360.044123 
L 157.005125 381.266407 
L 151.48312 391.748858 
L 147.598997 398.768357 
L 143.270306 405.975042 
L 138.894819 412.011811 
L 137.046351 414.141058 
L 133.232423 417.767799 
L 128.716546 420.669192 
L 126.212925 421.792312 
L 122.258607 422.985627 
L 118.468078 423.36 
L 114.092591 422.915432 
L 110.208468 421.745515 
L 106.558329 419.920446 
L 103.961114 418.071978 
L 101.317103 415.708747 
L 98.766685 412.760557 
L 96.146072 408.993426 
L 94.344401 405.834652 
L 89.898719 397.551643 
L 87.558886 393.784513 
L 80.983955 384.659164 
L 75.017382 376.610139 
L 72.139387 372.866407 
L 67.7639 367.554986 
L 58.10039 356.58117 
L 55.760557 354.007354 
L 51.993426 350.637994 
L 50.285348 349.608468 
L 48.273092 348.789526 
L 45.909861 348.368357 
L 42.446908 348.625738 
L 40.153872 349.631866 
L 36.246351 352.533259 
L 33.88312 353.890362 
L 32.61961 354.311532 
L 31.309304 354.47532 
L 28.571699 354.100947 
L 25.974485 353.211811 
L 24.476992 352.486462 
L 22.066964 350.871978 
L 19.259164 347.876992 
L 17.50429 345.677549 
L 14.766685 341.348858 
L 13.456379 338.119889 
L 12.075877 332.317103 
L 11.818496 329.766685 
L 12.005682 323.40234 
L 13.011811 318.371699 
L 16.006797 311.422396 
L 16.966128 309.761114 
L 21.832981 302.741616 
L 24.383398 299.231866 
L 24.383398 299.231866 
" clip-path="url(#p1a02fb8e81)" style="fill: none; stroke: #ff1801; stroke-width: 3; stroke-linecap: square"/>
   </g>
  </g>
 </g>
 <defs>
  <clipPath id="p1a02fb8e81">
   <rect x="0" y="-0" width="260.006908" height="443.52"/>
  </clipPath>
 </defs>
</svg>
