<?xml version="1.0" encoding="utf-8" standalone="no"?>
<!DOCTYPE svg PUBLIC "-//W3C//DTD SVG 1.1//EN"
  "http://www.w3.org/Graphics/SVG/1.1/DTD/svg11.dtd">
<svg xmlns:xlink="http://www.w3.org/1999/xlink" width="147.676873pt" height="443.52pt" viewBox="0 0 147.676873 443.52" xmlns="http://www.w3.org/2000/svg" version="1.1">
 <metadata>
  <rdf:RDF xmlns:dc="http://purl.org/dc/elements/1.1/" xmlns:cc="http://creativecommons.org/ns#" xmlns:rdf="http://www.w3.org/1999/02/22-rdf-syntax-ns#">
   <cc:Work>
    <dc:type rdf:resource="http://purl.org/dc/dcmitype/StillImage"/>
    <dc:date>2026-02-12T12:53:08.776608</dc:date>
    <dc:format>image/svg+xml</dc:format>
    <dc:creator>
     <cc:Agent>
      <dc:title>Matplotlib v3.9.2, https://matplotlib.org/</dc:title>
     </cc:Agent>
    </dc:creator>
   </cc:Work>
  </rdf:RDF>
 </metadata>
 <defs>
  <style type="text/css">*{stroke-linejoin: round; stroke-linecap: butt}</style>
 </defs>
 <g id="figure_1">
  <g id="patch_1">
   <path d="M 0 443.52 
L 147.676873 443.52 
L 147.676873 0 
L 0 0 
L 0 443.52 
z
" style="fill: none"/>
  </g>
  <g id="axes_1">
   <g id="line2d_1">
    <path d="M 130.202119 360.587743 
L 130.498714 366.307793 
L 130.329231 373.51082 
L 129.73604 380.37488 
L 128.210694 394.103001 
L 128.147137 399.505271 
L 128.486103 402.047516 
L 128.930996 403.636419 
L 129.73604 405.373619 
L 131.579168 407.70401 
L 132.85029 408.84802 
L 134.206154 409.822547 
L 138.612711 412.343607 
L 139.777907 413.233392 
L 140.688878 414.568071 
L 140.964288 416.2629 
L 140.900731 416.983203 
L 140.328726 419.016999 
L 139.417755 420.669458 
L 138.676267 421.559243 
L 137.193291 422.554956 
L 135.498462 423.08459 
L 133.422295 423.317629 
L 130.647011 423.36 
L 126.134527 422.957478 
L 122.554199 422.173619 
L 116.770593 420.351677 
L 112.681816 418.889887 
L 110.160757 417.809433 
L 107.364288 416.411198 
L 102.491652 413.424061 
L 95.81826 408.678537 
L 90.96681 404.886356 
L 81.835914 397.492661 
L 78.954704 394.908045 
L 76.666683 392.344615 
L 75.056595 389.781185 
L 74.378663 387.74739 
L 74.293922 386.243228 
L 74.611702 383.446759 
L 74.844741 381.391778 
L 74.738815 378.150416 
L 74.505776 376.646255 
L 73.827844 374.294678 
L 71.857604 370.926204 
L 65.9257 363.532509 
L 62.472484 359.401362 
L 61.031879 357.833644 
L 58.55319 355.376141 
L 52.642472 350.524691 
L 49.71889 348.1943 
L 47.282573 346.075763 
L 44.528474 343.003884 
L 42.537049 339.614224 
L 40.651551 334.974628 
L 39.613468 331.712081 
L 38.956721 328.364792 
L 38.59657 323.598083 
L 38.660126 316.225574 
L 38.956721 309.552182 
L 39.274502 303.726204 
L 39.168575 301.565296 
L 38.87198 299.171349 
L 38.236419 296.607919 
L 37.622043 295.082573 
L 36.372106 293.154704 
L 34.740832 291.756469 
L 33.872232 291.311576 
L 31.414729 290.803127 
L 28.003884 290.97261 
L 26.181942 291.099723 
L 24.169332 291.036166 
L 20.610189 290.061639 
L 19.042472 289.129483 
L 17.390013 287.752434 
L 15.313846 285.422043 
L 13.364792 282.265422 
L 12.09367 279.278285 
L 11.500479 277.435158 
L 11.034401 275.528474 
L 10.39884 272.308298 
L 9.975132 269.490643 
L 9.042976 261.652055 
L 8.004893 250.889887 
L 7.221034 240.021791 
L 6.797327 230.615485 
L 6.712585 226.971602 
L 6.797327 217.50174 
L 7.326961 208.180177 
L 7.793039 202.926204 
L 8.852308 194.452055 
L 10.017503 187.33377 
L 11.81826 178.817251 
L 16.648525 158.458108 
L 17.856091 155.089634 
L 19.296696 152.907541 
L 20.419521 152.060126 
L 22.792282 151.233897 
L 24.36 150.894931 
L 26.711576 150.089887 
L 29.020782 148.797579 
L 30.885095 147.335788 
L 32.60111 145.471475 
L 34.0629 143.331753 
L 35.524691 140.429357 
L 36.689887 137.230366 
L 38.278789 131.616242 
L 40.715107 121.616747 
L 42.070971 115.261135 
L 43.829357 105.325195 
L 45.41826 94.563026 
L 46.350416 85.643985 
L 46.668197 80.093417 
L 46.88005 69.882068 
L 46.816494 64.077276 
L 46.413972 58.01826 
L 45.799596 53.611702 
L 44.846255 48.887364 
L 41.604893 34.883834 
L 40.121917 27.363026 
L 39.952434 25.752938 
L 39.931248 24.439445 
L 40.270214 22.553947 
L 41.054073 21.325195 
L 41.626078 20.837932 
L 43.342093 20.16 
L 44.380177 20.16 
L 45.185221 20.371854 
L 46.28686 21.092156 
L 47.43087 22.575132 
L 48.384212 24.630113 
L 49.168071 27.235914 
L 49.67652 30.053569 
L 50.184968 35.646507 
L 50.693417 40.201362 
L 51.244237 42.934275 
L 52.345876 46.6629 
L 55.67198 55.115864 
L 66.010441 79.161261 
L 71.179672 91.236923 
L 75.35319 101.469458 
L 78.255586 109.180933 
L 80.268197 115.155208 
L 82.492661 122.464161 
L 84.928979 131.510315 
L 87.195813 140.747137 
L 93.170088 166.169584 
L 105.966053 221.336293 
L 112.872484 250.50855 
L 113.296192 252.584716 
L 113.783455 256.673493 
L 113.592787 259.025069 
L 113.063153 260.677528 
L 110.351425 265.507793 
L 109.737049 267.202623 
L 109.313342 270.295687 
L 109.313342 272.329483 
L 109.440454 274.066683 
L 110.076015 278.473241 
L 110.965801 282.540832 
L 112.61826 288.578663 
L 115.923178 300.230618 
L 118.211198 309.086103 
L 122.787238 326.903001 
L 127.278537 344.232636 
L 128.676772 350.43995 
L 129.757226 356.668449 
L 129.757226 356.668449 
" clip-path="url(#pe0e6aee5cc)" style="fill: none; stroke: #ff1801; stroke-opacity: 0.3; stroke-width: 10; stroke-linecap: square"/>
   </g>
   <g id="line2d_2">
    <path d="M 130.202119 360.587743 
L 130.498714 366.307793 
L 130.329231 373.51082 
L 129.73604 380.37488 
L 128.210694 394.103001 
L 128.147137 399.505271 
L 128.486103 402.047516 
L 128.930996 403.636419 
L 129.73604 405.373619 
L 131.579168 407.70401 
L 132.85029 408.84802 
L 134.206154 409.822547 
L 138.612711 412.343607 
L 139.777907 413.233392 
L 140.688878 414.568071 
L 140.964288 416.2629 
L 140.900731 416.983203 
L 140.328726 419.016999 
L 139.417755 420.669458 
L 138.676267 421.559243 
L 137.193291 422.554956 
L 135.498462 423.08459 
L 133.422295 423.317629 
L 130.647011 423.36 
L 126.134527 422.957478 
L 122.554199 422.173619 
L 116.770593 420.351677 
L 112.681816 418.889887 
L 110.160757 417.809433 
L 107.364288 416.411198 
L 102.491652 413.424061 
L 95.81826 408.678537 
L 90.96681 404.886356 
L 81.835914 397.492661 
L 78.954704 394.908045 
L 76.666683 392.344615 
L 75.056595 389.781185 
L 74.378663 387.74739 
L 74.293922 386.243228 
L 74.611702 383.446759 
L 74.844741 381.391778 
L 74.738815 378.150416 
L 74.505776 376.646255 
L 73.827844 374.294678 
L 71.857604 370.926204 
L 65.9257 363.532509 
L 62.472484 359.401362 
L 61.031879 357.833644 
L 58.55319 355.376141 
L 52.642472 350.524691 
L 49.71889 348.1943 
L 47.282573 346.075763 
L 44.528474 343.003884 
L 42.537049 339.614224 
L 40.651551 334.974628 
L 39.613468 331.712081 
L 38.956721 328.364792 
L 38.59657 323.598083 
L 38.660126 316.225574 
L 38.956721 309.552182 
L 39.274502 303.726204 
L 39.168575 301.565296 
L 38.87198 299.171349 
L 38.236419 296.607919 
L 37.622043 295.082573 
L 36.372106 293.154704 
L 34.740832 291.756469 
L 33.872232 291.311576 
L 31.414729 290.803127 
L 28.003884 290.97261 
L 26.181942 291.099723 
L 24.169332 291.036166 
L 20.610189 290.061639 
L 19.042472 289.129483 
L 17.390013 287.752434 
L 15.313846 285.422043 
L 13.364792 282.265422 
L 12.09367 279.278285 
L 11.500479 277.435158 
L 11.034401 275.528474 
L 10.39884 272.308298 
L 9.975132 269.490643 
L 9.042976 261.652055 
L 8.004893 250.889887 
L 7.221034 240.021791 
L 6.797327 230.615485 
L 6.712585 226.971602 
L 6.797327 217.50174 
L 7.326961 208.180177 
L 7.793039 202.926204 
L 8.852308 194.452055 
L 10.017503 187.33377 
L 11.81826 178.817251 
L 16.648525 158.458108 
L 17.856091 155.089634 
L 19.296696 152.907541 
L 20.419521 152.060126 
L 22.792282 151.233897 
L 24.36 150.894931 
L 26.711576 150.089887 
L 29.020782 148.797579 
L 30.885095 147.335788 
L 32.60111 145.471475 
L 34.0629 143.331753 
L 35.524691 140.429357 
L 36.689887 137.230366 
L 38.278789 131.616242 
L 40.715107 121.616747 
L 42.070971 115.261135 
L 43.829357 105.325195 
L 45.41826 94.563026 
L 46.350416 85.643985 
L 46.668197 80.093417 
L 46.88005 69.882068 
L 46.816494 64.077276 
L 46.413972 58.01826 
L 45.799596 53.611702 
L 44.846255 48.887364 
L 41.604893 34.883834 
L 40.121917 27.363026 
L 39.952434 25.752938 
L 39.931248 24.439445 
L 40.270214 22.553947 
L 41.054073 21.325195 
L 41.626078 20.837932 
L 43.342093 20.16 
L 44.380177 20.16 
L 45.185221 20.371854 
L 46.28686 21.092156 
L 47.43087 22.575132 
L 48.384212 24.630113 
L 49.168071 27.235914 
L 49.67652 30.053569 
L 50.184968 35.646507 
L 50.693417 40.201362 
L 51.244237 42.934275 
L 52.345876 46.6629 
L 55.67198 55.115864 
L 66.010441 79.161261 
L 71.179672 91.236923 
L 75.35319 101.469458 
L 78.255586 109.180933 
L 80.268197 115.155208 
L 82.492661 122.464161 
L 84.928979 131.510315 
L 87.195813 140.747137 
L 93.170088 166.169584 
L 105.966053 221.336293 
L 112.872484 250.50855 
L 113.296192 252.584716 
L 113.783455 256.673493 
L 113.592787 259.025069 
L 113.063153 260.677528 
L 110.351425 265.507793 
L 109.737049 267.202623 
L 109.313342 270.295687 
L 109.313342 272.329483 
L 109.440454 274.066683 
L 110.076015 278.473241 
L 110.965801 282.540832 
L 112.61826 288.578663 
L 115.923178 300.230618 
L 118.211198 309.086103 
L 122.787238 326.903001 
L 127.278537 344.232636 
L 128.676772 350.43995 
L 129.757226 356.668449 
L 129.757226 356.668449 
" clip-path="url(#pe0e6aee5cc)" style="fill: none; stroke: #ff1801; stroke-width: 3; stroke-linecap: square"/>
   </g>
  </g>
 </g>
 <defs>
  <clipPath id="pe0e6aee5cc">
   <rect x="0" y="-0" width="147.676873" height="443.52"/>
  </clipPath>
 </defs>
</svg>
