<?xml version="1.0" encoding="utf-8" standalone="no"?>
<!DOCTYPE svg PUBLIC "-//W3C//DTD SVG 1.1//EN"
  "http://www.w3.org/Graphics/SVG/1.1/DTD/svg11.dtd">
<svg xmlns:xlink="http://www.w3.org/1999/xlink" width="446.4pt" height="397.343036pt" viewBox="0 0 446.4 397.343036" xmlns="http://www.w3.org/2000/svg" version="1.1">
 <metadata>
  <rdf:RDF xmlns:dc="http://purl.org/dc/elements/1.1/" xmlns:cc="http://creativecommons.org/ns#" xmlns:rdf="http://www.w3.org/1999/02/22-rdf-syntax-ns#">
   <cc:Work>
    <dc:type rdf:resource="http://purl.org/dc/dcmitype/StillImage"/>
    <dc:date>2026-02-12T12:52:54.420080</dc:date>
    <dc:format>image/svg+xml</dc:format>
    <dc:creator>
     <cc:Agent>
      <dc:title>Matplotlib v3.9.2, https://matplotlib.org/</dc:title>
     </cc:Agent>
    </dc:creator>
   </cc:Work>
  </rdf:RDF>
 </metadata>
 <defs>
  <style type="text/css">*{stroke-linejoin: round; stroke-linecap: butt}</style>
 </defs>
 <g id="figure_1">
  <g id="patch_1">
   <path d="M 0 397.343036 
L 446.4 397.343036 
L 446.4 0 
L 0 0 
L 0 397.343036 
z
" style="fill: none"/>
  </g>
  <g id="axes_1">
   <g id="line2d_1">
    <path d="M 247.052007 308.260466 
L 237.397623 310.732523 
L 208.133816 317.848038 
L 120.643051 339.361613 
L 108.115736 342.167731 
L 102.603718 343.103104 
L 93.784488 343.737821 
L 85.232508 342.936073 
L 81.190361 341.933888 
L 74.141659 338.893926 
L 66.825707 333.515533 
L 63.117622 329.206136 
L 59.91063 323.527087 
L 58.708007 320.219876 
L 57.772634 315.442793 
L 57.906259 308.49431 
L 59.008663 303.984476 
L 59.843817 301.9467 
L 63.284653 296.668525 
L 65.923741 294.196468 
L 67.527237 293.12747 
L 69.999294 291.891442 
L 71.870039 291.290131 
L 73.707379 290.956069 
L 75.678343 290.889257 
L 78.58468 291.323537 
L 79.920927 291.724411 
L 81.323986 292.392534 
L 82.86067 293.428126 
L 84.163511 294.597342 
L 85.366133 296.10062 
L 86.401724 297.904553 
L 87.003035 299.541455 
L 87.470722 301.879887 
L 87.537534 303.483384 
L 87.470722 304.853037 
L 86.167881 312.536456 
L 86.134475 313.171174 
L 86.43513 317.146508 
L 87.270285 319.651971 
L 88.205657 321.222061 
L 89.742341 322.925776 
L 91.145401 323.961367 
L 92.682085 324.662897 
L 94.11855 325.030365 
L 95.722046 325.197396 
L 98.127291 324.930146 
L 99.53035 324.495866 
L 101.367689 323.627306 
L 102.536905 322.858964 
L 104.708307 320.921406 
L 107.347394 317.313539 
L 109.117921 313.338205 
L 110.120107 309.563307 
L 110.35395 307.993217 
L 110.554387 302.882073 
L 110.153513 298.873332 
L 109.385171 295.065028 
L 107.781674 290.254539 
L 104.741713 284.14121 
L 102.303062 280.366312 
L 98.728602 275.756261 
L 90.377059 266.268908 
L 77.916556 252.739408 
L 66.19099 240.045062 
L 63.351465 236.938288 
L 60.010848 233.029766 
L 55.835076 227.818403 
L 52.66149 223.575819 
L 49.888778 219.600485 
L 45.512569 212.451564 
L 41.83789 205.402862 
L 36.42609 193.677295 
L 34.354908 188.532745 
L 29.243763 174.669183 
L 23.397683 158.266752 
L 21.460125 152.587703 
L 20.524752 148.979837 
L 20.290909 145.305158 
L 20.591565 143.501224 
L 21.460125 141.229605 
L 22.161655 140.093795 
L 24.232837 137.989206 
L 25.301835 137.421301 
L 27.940923 136.652959 
L 30.58001 136.586147 
L 32.116694 136.81999 
L 34.989625 137.755363 
L 38.196617 139.358859 
L 41.203173 141.463448 
L 44.644009 144.403191 
L 48.886593 148.745993 
L 52.060179 152.487485 
L 55.400796 157.030724 
L 59.008663 162.709773 
L 61.714563 167.687293 
L 64.019589 172.230533 
L 66.424833 177.375083 
L 74.074847 194.646074 
L 77.148214 201.193684 
L 80.121364 206.972952 
L 83.796043 213.019469 
L 86.602161 216.894585 
L 96.657419 226.883031 
L 107.21377 232.795923 
L 111.790415 234.399419 
L 118.505056 235.735666 
L 122.948077 236.069728 
L 127.89219 235.869291 
L 135.642422 234.366013 
L 140.319286 232.662298 
L 146.866896 229.121244 
L 151.643979 225.446565 
L 154.550316 222.673853 
L 157.490059 219.233017 
L 163.102296 210.280163 
L 168.747939 198.220535 
L 173.825677 189.601742 
L 176.464765 186.695405 
L 178.936822 184.323567 
L 184.582465 180.314826 
L 185.618056 179.780327 
L 191.86501 177.441895 
L 194.971784 176.840584 
L 199.347993 176.640147 
L 202.95586 177.007615 
L 206.396695 177.876176 
L 209.870937 179.245829 
L 214.547801 182.11876 
L 217.721388 184.924878 
L 219.391696 186.795624 
L 222.097596 190.737552 
L 224.77009 196.182758 
L 226.874679 201.895214 
L 229.547173 207.407232 
L 231.384512 209.979507 
L 232.420104 211.115317 
L 235.860939 213.888029 
L 238.566839 215.224276 
L 241.172521 215.925806 
L 243.110079 216.159649 
L 247.252444 215.758775 
L 249.390439 215.124058 
L 252.998306 213.119687 
L 255.169707 211.248942 
L 257.975825 208.108762 
L 260.481288 204.100021 
L 261.717317 201.394121 
L 262.986751 197.351974 
L 263.755093 192.474673 
L 263.220594 186.261125 
L 261.450067 179.57989 
L 260.247445 176.539929 
L 257.775388 171.529003 
L 254.601802 166.150609 
L 239.234963 141.931134 
L 228.478175 124.259269 
L 224.135373 116.909911 
L 215.616799 102.077571 
L 195.70672 66.566809 
L 192.800383 62.558069 
L 190.662388 60.520292 
L 189.392954 59.618326 
L 185.651462 58.148454 
L 182.377657 58.048235 
L 179.437914 58.950202 
L 177.801012 59.852169 
L 175.529392 61.58929 
L 173.19096 63.827503 
L 169.683312 66.466591 
L 167.177849 67.669213 
L 162.36736 68.404149 
L 161.164738 68.337336 
L 158.726087 67.903056 
L 156.755123 67.268339 
L 153.982411 65.831874 
L 151.911228 64.261783 
L 149.873452 62.190601 
L 147.735457 59.083827 
L 146.532834 56.578364 
L 145.430431 53.003903 
L 144.862526 49.663286 
L 144.82912 45.120047 
L 145.664274 40.309558 
L 147.200958 36.066974 
L 149.505984 31.958015 
L 153.347694 27.347963 
L 156.621498 24.575251 
L 157.924339 23.673284 
L 160.697052 22.069788 
L 169.549687 18.896201 
L 173.692053 18.228078 
L 179.972413 18.061047 
L 184.382028 18.528733 
L 188.123519 19.397294 
L 193.067633 21.034196 
L 198.947119 23.940533 
L 203.757608 27.147526 
L 208.768534 31.590547 
L 213.579022 37.069159 
L 219.324884 45.454108 
L 244.646763 85.708546 
L 277.48503 138.089424 
L 347.671398 248.764073 
L 363.53933 273.384422 
L 404.127829 335.787152 
L 423.369785 364.750304 
L 424.906469 367.556422 
L 425.574592 369.260137 
L 426.042279 371.130883 
L 426.109091 373.235472 
L 426.008872 374.304469 
L 425.741623 375.406873 
L 425.273937 376.509276 
L 424.739438 377.344431 
L 423.503409 378.346616 
L 421.699476 379.081552 
L 420.162792 379.281989 
L 417.924579 379.215176 
L 415.786584 378.74749 
L 410.84247 376.308839 
L 408.938318 374.939186 
L 406.165606 372.600754 
L 403.359488 370.061885 
L 400.486557 367.122142 
L 397.58022 363.781525 
L 394.273009 359.505535 
L 389.061646 352.089365 
L 385.921466 347.278876 
L 381.745694 340.43061 
L 366.646104 314.440608 
L 360.432556 304.819631 
L 356.524034 299.140581 
L 353.918352 296.067213 
L 347.537774 290.822444 
L 344.364187 289.753447 
L 341.89213 289.152136 
L 339.286449 288.951699 
L 334.108492 289.352573 
L 329.932721 290.087509 
L 317.171563 292.826815 
L 297.99642 297.002586 
L 277.284593 301.311983 
L 259.579322 305.253911 
L 259.579322 305.253911 
" clip-path="url(#pa88eb5a98f)" style="fill: none; stroke: #ff1801; stroke-opacity: 0.3; stroke-width: 10; stroke-linecap: square"/>
   </g>
   <g id="line2d_2">
    <path d="M 247.052007 308.260466 
L 237.397623 310.732523 
L 208.133816 317.848038 
L 120.643051 339.361613 
L 108.115736 342.167731 
L 102.603718 343.103104 
L 93.784488 343.737821 
L 85.232508 342.936073 
L 81.190361 341.933888 
L 74.141659 338.893926 
L 66.825707 333.515533 
L 63.117622 329.206136 
L 59.91063 323.527087 
L 58.708007 320.219876 
L 57.772634 315.442793 
L 57.906259 308.49431 
L 59.008663 303.984476 
L 59.843817 301.9467 
L 63.284653 296.668525 
L 65.923741 294.196468 
L 67.527237 293.12747 
L 69.999294 291.891442 
L 71.870039 291.290131 
L 73.707379 290.956069 
L 75.678343 290.889257 
L 78.58468 291.323537 
L 79.920927 291.724411 
L 81.323986 292.392534 
L 82.86067 293.428126 
L 84.163511 294.597342 
L 85.366133 296.10062 
L 86.401724 297.904553 
L 87.003035 299.541455 
L 87.470722 301.879887 
L 87.537534 303.483384 
L 87.470722 304.853037 
L 86.167881 312.536456 
L 86.134475 313.171174 
L 86.43513 317.146508 
L 87.270285 319.651971 
L 88.205657 321.222061 
L 89.742341 322.925776 
L 91.145401 323.961367 
L 92.682085 324.662897 
L 94.11855 325.030365 
L 95.722046 325.197396 
L 98.127291 324.930146 
L 99.53035 324.495866 
L 101.367689 323.627306 
L 102.536905 322.858964 
L 104.708307 320.921406 
L 107.347394 317.313539 
L 109.117921 313.338205 
L 110.120107 309.563307 
L 110.35395 307.993217 
L 110.554387 302.882073 
L 110.153513 298.873332 
L 109.385171 295.065028 
L 107.781674 290.254539 
L 104.741713 284.14121 
L 102.303062 280.366312 
L 98.728602 275.756261 
L 90.377059 266.268908 
L 77.916556 252.739408 
L 66.19099 240.045062 
L 63.351465 236.938288 
L 60.010848 233.029766 
L 55.835076 227.818403 
L 52.66149 223.575819 
L 49.888778 219.600485 
L 45.512569 212.451564 
L 41.83789 205.402862 
L 36.42609 193.677295 
L 34.354908 188.532745 
L 29.243763 174.669183 
L 23.397683 158.266752 
L 21.460125 152.587703 
L 20.524752 148.979837 
L 20.290909 145.305158 
L 20.591565 143.501224 
L 21.460125 141.229605 
L 22.161655 140.093795 
L 24.232837 137.989206 
L 25.301835 137.421301 
L 27.940923 136.652959 
L 30.58001 136.586147 
L 32.116694 136.81999 
L 34.989625 137.755363 
L 38.196617 139.358859 
L 41.203173 141.463448 
L 44.644009 144.403191 
L 48.886593 148.745993 
L 52.060179 152.487485 
L 55.400796 157.030724 
L 59.008663 162.709773 
L 61.714563 167.687293 
L 64.019589 172.230533 
L 66.424833 177.375083 
L 74.074847 194.646074 
L 77.148214 201.193684 
L 80.121364 206.972952 
L 83.796043 213.019469 
L 86.602161 216.894585 
L 96.657419 226.883031 
L 107.21377 232.795923 
L 111.790415 234.399419 
L 118.505056 235.735666 
L 122.948077 236.069728 
L 127.89219 235.869291 
L 135.642422 234.366013 
L 140.319286 232.662298 
L 146.866896 229.121244 
L 151.643979 225.446565 
L 154.550316 222.673853 
L 157.490059 219.233017 
L 163.102296 210.280163 
L 168.747939 198.220535 
L 173.825677 189.601742 
L 176.464765 186.695405 
L 178.936822 184.323567 
L 184.582465 180.314826 
L 185.618056 179.780327 
L 191.86501 177.441895 
L 194.971784 176.840584 
L 199.347993 176.640147 
L 202.95586 177.007615 
L 206.396695 177.876176 
L 209.870937 179.245829 
L 214.547801 182.11876 
L 217.721388 184.924878 
L 219.391696 186.795624 
L 222.097596 190.737552 
L 224.77009 196.182758 
L 226.874679 201.895214 
L 229.547173 207.407232 
L 231.384512 209.979507 
L 232.420104 211.115317 
L 235.860939 213.888029 
L 238.566839 215.224276 
L 241.172521 215.925806 
L 243.110079 216.159649 
L 247.252444 215.758775 
L 249.390439 215.124058 
L 252.998306 213.119687 
L 255.169707 211.248942 
L 257.975825 208.108762 
L 260.481288 204.100021 
L 261.717317 201.394121 
L 262.986751 197.351974 
L 263.755093 192.474673 
L 263.220594 186.261125 
L 261.450067 179.57989 
L 260.247445 176.539929 
L 257.775388 171.529003 
L 254.601802 166.150609 
L 239.234963 141.931134 
L 228.478175 124.259269 
L 224.135373 116.909911 
L 215.616799 102.077571 
L 195.70672 66.566809 
L 192.800383 62.558069 
L 190.662388 60.520292 
L 189.392954 59.618326 
L 185.651462 58.148454 
L 182.377657 58.048235 
L 179.437914 58.950202 
L 177.801012 59.852169 
L 175.529392 61.58929 
L 173.19096 63.827503 
L 169.683312 66.466591 
L 167.177849 67.669213 
L 162.36736 68.404149 
L 161.164738 68.337336 
L 158.726087 67.903056 
L 156.755123 67.268339 
L 153.982411 65.831874 
L 151.911228 64.261783 
L 149.873452 62.190601 
L 147.735457 59.083827 
L 146.532834 56.578364 
L 145.430431 53.003903 
L 144.862526 49.663286 
L 144.82912 45.120047 
L 145.664274 40.309558 
L 147.200958 36.066974 
L 149.505984 31.958015 
L 153.347694 27.347963 
L 156.621498 24.575251 
L 157.924339 23.673284 
L 160.697052 22.069788 
L 169.549687 18.896201 
L 173.692053 18.228078 
L 179.972413 18.061047 
L 184.382028 18.528733 
L 188.123519 19.397294 
L 193.067633 21.034196 
L 198.947119 23.940533 
L 203.757608 27.147526 
L 208.768534 31.590547 
L 213.579022 37.069159 
L 219.324884 45.454108 
L 244.646763 85.708546 
L 277.48503 138.089424 
L 347.671398 248.764073 
L 363.53933 273.384422 
L 404.127829 335.787152 
L 423.369785 364.750304 
L 424.906469 367.556422 
L 425.574592 369.260137 
L 426.042279 371.130883 
L 426.109091 373.235472 
L 426.008872 374.304469 
L 425.741623 375.406873 
L 425.273937 376.509276 
L 424.739438 377.344431 
L 423.503409 378.346616 
L 421.699476 379.081552 
L 420.162792 379.281989 
L 417.924579 379.215176 
L 415.786584 378.74749 
L 410.84247 376.308839 
L 408.938318 374.939186 
L 406.165606 372.600754 
L 403.359488 370.061885 
L 400.486557 367.122142 
L 397.58022 363.781525 
L 394.273009 359.505535 
L 389.061646 352.089365 
L 385.921466 347.278876 
L 381.745694 340.43061 
L 366.646104 314.440608 
L 360.432556 304.819631 
L 356.524034 299.140581 
L 353.918352 296.067213 
L 347.537774 290.822444 
L 344.364187 289.753447 
L 341.89213 289.152136 
L 339.286449 288.951699 
L 334.108492 289.352573 
L 329.932721 290.087509 
L 317.171563 292.826815 
L 297.99642 297.002586 
L 277.284593 301.311983 
L 259.579322 305.253911 
L 259.579322 305.253911 
" clip-path="url(#pa88eb5a98f)" style="fill: none; stroke: #ff1801; stroke-width: 3; stroke-linecap: square"/>
   </g>
  </g>
 </g>
 <defs>
  <clipPath id="pa88eb5a98f">
   <rect x="0" y="0" width="446.4" height="397.343036"/>
  </clipPath>
 </defs>
</svg>
