<?xml version="1.0" encoding="utf-8" standalone="no"?>
<!DOCTYPE svg PUBLIC "-//W3C//DTD SVG 1.1//EN"
  "http://www.w3.org/Graphics/SVG/1.1/DTD/svg11.dtd">
<svg xmlns:xlink="http://www.w3.org/1999/xlink" width="446.4pt" height="381.801564pt" viewBox="0 0 446.4 381.801564" xmlns="http://www.w3.org/2000/svg" version="1.1">
 <metadata>
  <rdf:RDF xmlns:dc="http://purl.org/dc/elements/1.1/" xmlns:cc="http://creativecommons.org/ns#" xmlns:rdf="http://www.w3.org/1999/02/22-rdf-syntax-ns#">
   <cc:Work>
    <dc:type rdf:resource="http://purl.org/dc/dcmitype/StillImage"/>
    <dc:date>2026-02-12T12:54:14.494052</dc:date>
    <dc:format>image/svg+xml</dc:format>
    <dc:creator>
     <cc:Agent>
      <dc:title>Matplotlib v3.9.2, https://matplotlib.org/</dc:title>
     </cc:Agent>
    </dc:creator>
   </cc:Work>
  </rdf:RDF>
 </metadata>
 <defs>
  <style type="text/css">*{stroke-linejoin: round; stroke-linecap: butt}</style>
 </defs>
 <g id="figure_1">
  <g id="patch_1">
   <path d="M 0 381.801564 
L 446.4 381.801564 
L 446.4 0 
L 0 0 
L 0 381.801564 
z
" style="fill: none"/>
  </g>
  <g id="axes_1">
   <g id="line2d_1">
    <path d="M 90.67004 122.777125 
L 110.718695 73.532617 
L 113.015936 67.100341 
L 117.526883 51.687937 
L 121.286006 38.405704 
L 123.207336 32.934092 
L 125.086897 28.799057 
L 127.384139 25.12347 
L 129.973757 22.15794 
L 133.064591 19.81893 
L 136.113657 18.357049 
L 141.585269 17.354617 
L 145.302624 17.730529 
L 150.607163 19.735394 
L 153.530926 22.36678 
L 154.783966 23.953965 
L 156.788832 27.46248 
L 158.334249 33.101164 
L 158.501321 37.152663 
L 157.540656 43.752012 
L 156.162311 48.764175 
L 153.697998 55.990045 
L 151.31722 62.338785 
L 147.056881 72.19604 
L 143.506598 80.090198 
L 141.042285 85.895954 
L 137.366698 97.632771 
L 136.531337 104.733336 
L 136.489569 108.116546 
L 137.408466 120.145739 
L 137.867914 127.74752 
L 136.949018 135.432838 
L 136.322497 137.270631 
L 133.064591 142.700475 
L 127.509443 147.503799 
L 120.200037 151.221153 
L 106.207747 156.483925 
L 100.569063 158.906471 
L 95.222755 162.289682 
L 92.090153 165.756428 
L 90.502968 168.805494 
L 89.500535 174.151802 
L 89.667607 176.95026 
L 90.335896 179.581646 
L 91.505401 182.213032 
L 97.352925 187.308732 
L 101.153816 188.770613 
L 104.954706 189.355365 
L 109.799798 188.937685 
L 118.86346 186.473371 
L 126.757618 184.050825 
L 138.243826 179.70695 
L 145.80384 177.075564 
L 153.280317 174.736555 
L 158.459553 173.35821 
L 164.933598 172.021633 
L 175.584446 170.726824 
L 187.237726 170.476215 
L 199.225151 171.43688 
L 207.787597 172.815225 
L 226.37437 176.32374 
L 239.030083 177.994461 
L 244.83584 178.203301 
L 255.779064 177.326172 
L 265.302174 174.945395 
L 270.857323 172.856993 
L 278.083192 169.432015 
L 285.058453 165.464052 
L 298.173614 157.486358 
L 305.190643 153.727235 
L 312.500049 150.636401 
L 319.47531 148.548 
L 325.364602 147.378495 
L 333.04992 146.501366 
L 339.691036 146.083686 
L 351.553157 145.79131 
L 358.236042 145.79131 
L 374.985022 146.083686 
L 383.71454 146.584902 
L 389.729137 147.294959 
L 395.493125 148.464463 
L 400.379984 150.051649 
L 407.188173 153.518395 
L 413.244538 158.238183 
L 420.345103 167.051237 
L 423.603009 173.77589 
L 425.315498 179.581646 
L 426.109091 190.650174 
L 425.231962 197.667203 
L 420.762783 210.114076 
L 418.590845 213.914967 
L 399.711696 244.363861 
L 395.827269 251.58973 
L 392.318754 259.066208 
L 386.930679 271.346008 
L 384.758741 275.940492 
L 381.834979 281.328568 
L 376.906351 287.468468 
L 369.72225 291.895879 
L 360.658588 294.109585 
L 357.776593 294.401961 
L 349.924204 294.569033 
L 339.983413 293.775441 
L 335.556001 293.107152 
L 328.413668 291.519967 
L 321.856087 289.515102 
L 316.50978 287.384932 
L 312.541817 285.463603 
L 306.986669 282.163928 
L 303.77053 279.741383 
L 298.800135 275.146899 
L 296.085213 271.805457 
L 294.6651 269.549983 
L 292.869074 264.663124 
L 292.827306 261.238145 
L 293.370291 259.358584 
L 295.667532 255.265317 
L 298.549527 251.882106 
L 301.556825 249.208952 
L 304.397051 247.078783 
L 309.534519 244.029717 
L 311.455848 243.069052 
L 317.303372 240.730042 
L 322.315536 239.268161 
L 328.16306 237.973352 
L 341.94651 235.968487 
L 349.214147 234.506606 
L 353.558022 233.378869 
L 355.980568 232.627044 
L 359.071402 231.541076 
L 362.955829 229.870354 
L 368.176833 226.57068 
L 370.849987 223.81399 
L 371.810652 222.185037 
L 372.854852 219.971331 
L 373.773749 216.964033 
L 374.107893 214.457951 
L 374.066125 212.202478 
L 372.68778 205.979041 
L 371.351203 203.222351 
L 367.759153 198.460796 
L 366.004895 196.915379 
L 359.447315 193.28156 
L 355.228744 192.028519 
L 348.128178 190.650174 
L 337.602635 189.188293 
L 327.703612 187.97702 
L 320.686583 187.3505 
L 316.802156 187.141659 
L 311.247008 187.016355 
L 306.610756 187.058123 
L 295.834605 187.642876 
L 289.694704 188.18586 
L 280.088057 189.397133 
L 267.348808 191.777911 
L 261.459516 193.156256 
L 249.472091 196.372394 
L 235.521569 200.883341 
L 231.219462 202.428759 
L 219.190269 206.939706 
L 213.593353 208.819267 
L 195.382492 214.499719 
L 187.697174 217.131105 
L 180.721913 219.846027 
L 173.287204 222.978629 
L 166.562551 226.069464 
L 159.461986 229.619746 
L 155.619327 231.374004 
L 151.275452 232.71058 
L 147.599865 232.543508 
L 144.133119 230.705715 
L 140.833444 227.698417 
L 137.826146 225.234103 
L 134.610008 223.521614 
L 128.84602 222.352109 
L 124.042696 222.811557 
L 121.41131 223.688686 
L 119.824125 224.482279 
L 117.359811 226.236536 
L 115.605554 228.199633 
L 114.394281 230.120963 
L 113.517153 232.376436 
L 112.974168 235.634343 
L 113.099472 239.602305 
L 113.684225 243.612036 
L 116.190307 258.230847 
L 124.627449 306.72353 
L 127.801819 324.934391 
L 128.720716 330.531307 
L 129.389004 335.919383 
L 128.804252 346.737303 
L 125.671649 354.00494 
L 123.457944 356.928702 
L 121.870759 358.557656 
L 118.111636 361.272578 
L 111.971735 363.695123 
L 107.502556 364.321644 
L 102.32332 364.446948 
L 85.616108 363.611587 
L 80.269801 363.235675 
L 72.709787 362.27501 
L 68.867128 361.523186 
L 64.481485 360.395449 
L 56.796168 357.764063 
L 52.410524 355.968038 
L 45.059351 352.000075 
L 40.130723 348.49156 
L 33.364303 342.184588 
L 27.307938 334.206894 
L 25.678985 331.491972 
L 22.755223 325.184999 
L 21.209806 320.381676 
L 20.290909 308.895468 
L 20.91743 303.590928 
L 21.711022 299.706501 
L 23.67412 293.399528 
L 30.649381 276.901156 
L 36.747513 261.029305 
L 51.992844 221.600284 
L 69.243041 176.783188 
L 82.39997 142.951083 
L 82.39997 142.951083 
" clip-path="url(#p0af5f1e964)" style="fill: none; stroke: #ff1801; stroke-opacity: 0.3; stroke-width: 10; stroke-linecap: square"/>
   </g>
   <g id="line2d_2">
    <path d="M 90.67004 122.777125 
L 110.718695 73.532617 
L 113.015936 67.100341 
L 117.526883 51.687937 
L 121.286006 38.405704 
L 123.207336 32.934092 
L 125.086897 28.799057 
L 127.384139 25.12347 
L 129.973757 22.15794 
L 133.064591 19.81893 
L 136.113657 18.357049 
L 141.585269 17.354617 
L 145.302624 17.730529 
L 150.607163 19.735394 
L 153.530926 22.36678 
L 154.783966 23.953965 
L 156.788832 27.46248 
L 158.334249 33.101164 
L 158.501321 37.152663 
L 157.540656 43.752012 
L 156.162311 48.764175 
L 153.697998 55.990045 
L 151.31722 62.338785 
L 147.056881 72.19604 
L 143.506598 80.090198 
L 141.042285 85.895954 
L 137.366698 97.632771 
L 136.531337 104.733336 
L 136.489569 108.116546 
L 137.408466 120.145739 
L 137.867914 127.74752 
L 136.949018 135.432838 
L 136.322497 137.270631 
L 133.064591 142.700475 
L 127.509443 147.503799 
L 120.200037 151.221153 
L 106.207747 156.483925 
L 100.569063 158.906471 
L 95.222755 162.289682 
L 92.090153 165.756428 
L 90.502968 168.805494 
L 89.500535 174.151802 
L 89.667607 176.95026 
L 90.335896 179.581646 
L 91.505401 182.213032 
L 97.352925 187.308732 
L 101.153816 188.770613 
L 104.954706 189.355365 
L 109.799798 188.937685 
L 118.86346 186.473371 
L 126.757618 184.050825 
L 138.243826 179.70695 
L 145.80384 177.075564 
L 153.280317 174.736555 
L 158.459553 173.35821 
L 164.933598 172.021633 
L 175.584446 170.726824 
L 187.237726 170.476215 
L 199.225151 171.43688 
L 207.787597 172.815225 
L 226.37437 176.32374 
L 239.030083 177.994461 
L 244.83584 178.203301 
L 255.779064 177.326172 
L 265.302174 174.945395 
L 270.857323 172.856993 
L 278.083192 169.432015 
L 285.058453 165.464052 
L 298.173614 157.486358 
L 305.190643 153.727235 
L 312.500049 150.636401 
L 319.47531 148.548 
L 325.364602 147.378495 
L 333.04992 146.501366 
L 339.691036 146.083686 
L 351.553157 145.79131 
L 358.236042 145.79131 
L 374.985022 146.083686 
L 383.71454 146.584902 
L 389.729137 147.294959 
L 395.493125 148.464463 
L 400.379984 150.051649 
L 407.188173 153.518395 
L 413.244538 158.238183 
L 420.345103 167.051237 
L 423.603009 173.77589 
L 425.315498 179.581646 
L 426.109091 190.650174 
L 425.231962 197.667203 
L 420.762783 210.114076 
L 418.590845 213.914967 
L 399.711696 244.363861 
L 395.827269 251.58973 
L 392.318754 259.066208 
L 386.930679 271.346008 
L 384.758741 275.940492 
L 381.834979 281.328568 
L 376.906351 287.468468 
L 369.72225 291.895879 
L 360.658588 294.109585 
L 357.776593 294.401961 
L 349.924204 294.569033 
L 339.983413 293.775441 
L 335.556001 293.107152 
L 328.413668 291.519967 
L 321.856087 289.515102 
L 316.50978 287.384932 
L 312.541817 285.463603 
L 306.986669 282.163928 
L 303.77053 279.741383 
L 298.800135 275.146899 
L 296.085213 271.805457 
L 294.6651 269.549983 
L 292.869074 264.663124 
L 292.827306 261.238145 
L 293.370291 259.358584 
L 295.667532 255.265317 
L 298.549527 251.882106 
L 301.556825 249.208952 
L 304.397051 247.078783 
L 309.534519 244.029717 
L 311.455848 243.069052 
L 317.303372 240.730042 
L 322.315536 239.268161 
L 328.16306 237.973352 
L 341.94651 235.968487 
L 349.214147 234.506606 
L 353.558022 233.378869 
L 355.980568 232.627044 
L 359.071402 231.541076 
L 362.955829 229.870354 
L 368.176833 226.57068 
L 370.849987 223.81399 
L 371.810652 222.185037 
L 372.854852 219.971331 
L 373.773749 216.964033 
L 374.107893 214.457951 
L 374.066125 212.202478 
L 372.68778 205.979041 
L 371.351203 203.222351 
L 367.759153 198.460796 
L 366.004895 196.915379 
L 359.447315 193.28156 
L 355.228744 192.028519 
L 348.128178 190.650174 
L 337.602635 189.188293 
L 327.703612 187.97702 
L 320.686583 187.3505 
L 316.802156 187.141659 
L 311.247008 187.016355 
L 306.610756 187.058123 
L 295.834605 187.642876 
L 289.694704 188.18586 
L 280.088057 189.397133 
L 267.348808 191.777911 
L 261.459516 193.156256 
L 249.472091 196.372394 
L 235.521569 200.883341 
L 231.219462 202.428759 
L 219.190269 206.939706 
L 213.593353 208.819267 
L 195.382492 214.499719 
L 187.697174 217.131105 
L 180.721913 219.846027 
L 173.287204 222.978629 
L 166.562551 226.069464 
L 159.461986 229.619746 
L 155.619327 231.374004 
L 151.275452 232.71058 
L 147.599865 232.543508 
L 144.133119 230.705715 
L 140.833444 227.698417 
L 137.826146 225.234103 
L 134.610008 223.521614 
L 128.84602 222.352109 
L 124.042696 222.811557 
L 121.41131 223.688686 
L 119.824125 224.482279 
L 117.359811 226.236536 
L 115.605554 228.199633 
L 114.394281 230.120963 
L 113.517153 232.376436 
L 112.974168 235.634343 
L 113.099472 239.602305 
L 113.684225 243.612036 
L 116.190307 258.230847 
L 124.627449 306.72353 
L 127.801819 324.934391 
L 128.720716 330.531307 
L 129.389004 335.919383 
L 128.804252 346.737303 
L 125.671649 354.00494 
L 123.457944 356.928702 
L 121.870759 358.557656 
L 118.111636 361.272578 
L 111.971735 363.695123 
L 107.502556 364.321644 
L 102.32332 364.446948 
L 85.616108 363.611587 
L 80.269801 363.235675 
L 72.709787 362.27501 
L 68.867128 361.523186 
L 64.481485 360.395449 
L 56.796168 357.764063 
L 52.410524 355.968038 
L 45.059351 352.000075 
L 40.130723 348.49156 
L 33.364303 342.184588 
L 27.307938 334.206894 
L 25.678985 331.491972 
L 22.755223 325.184999 
L 21.209806 320.381676 
L 20.290909 308.895468 
L 20.91743 303.590928 
L 21.711022 299.706501 
L 23.67412 293.399528 
L 30.649381 276.901156 
L 36.747513 261.029305 
L 51.992844 221.600284 
L 69.243041 176.783188 
L 82.39997 142.951083 
L 82.39997 142.951083 
" clip-path="url(#p0af5f1e964)" style="fill: none; stroke: #ff1801; stroke-width: 3; stroke-linecap: square"/>
   </g>
  </g>
 </g>
 <defs>
  <clipPath id="p0af5f1e964">
   <rect x="0" y="-0" width="446.4" height="381.801564"/>
  </clipPath>
 </defs>
</svg>
