<?xml version="1.0" encoding="utf-8" standalone="no"?>
<!DOCTYPE svg PUBLIC "-//W3C//DTD SVG 1.1//EN"
  "http://www.w3.org/Graphics/SVG/1.1/DTD/svg11.dtd">
<svg xmlns:xlink="http://www.w3.org/1999/xlink" width="446.4pt" height="247.460334pt" viewBox="0 0 446.4 247.460334" xmlns="http://www.w3.org/2000/svg" version="1.1">
 <metadata>
  <rdf:RDF xmlns:dc="http://purl.org/dc/elements/1.1/" xmlns:cc="http://creativecommons.org/ns#" xmlns:rdf="http://www.w3.org/1999/02/22-rdf-syntax-ns#">
   <cc:Work>
    <dc:type rdf:resource="http://purl.org/dc/dcmitype/StillImage"/>
    <dc:date>2026-02-12T12:53:01.828185</dc:date>
    <dc:format>image/svg+xml</dc:format>
    <dc:creator>
     <cc:Agent>
      <dc:title>Matplotlib v3.9.2, https://matplotlib.org/</dc:title>
     </cc:Agent>
    </dc:creator>
   </cc:Work>
  </rdf:RDF>
 </metadata>
 <defs>
  <style type="text/css">*{stroke-linejoin: round; stroke-linecap: butt}</style>
 </defs>
 <g id="figure_1">
  <g id="patch_1">
   <path d="M 0 247.460334 
L 446.4 247.460334 
L 446.4 0 
L 0 0 
L 0 247.460334 
z
" style="fill: none"/>
  </g>
  <g id="axes_1">
   <g id="line2d_1">
    <path d="M 315.476232 39.489162 
L 292.861047 40.677075 
L 276.207843 41.192585 
L 269.438977 40.96845 
L 264.620082 40.363287 
L 243.372118 35.589219 
L 233.689501 33.258219 
L 228.82578 32.272026 
L 225.553414 31.734103 
L 220.577625 31.173767 
L 217.238019 30.949632 
L 213.450143 30.815151 
L 199.12794 30.837565 
L 192.829756 31.106526 
L 183.14714 31.935824 
L 171.805927 33.280632 
L 155.511338 35.521979 
L 148.854539 36.620238 
L 145.604587 37.359883 
L 127.651402 42.896008 
L 126.822104 43.187383 
L 125.073854 43.994268 
L 123.16871 45.652864 
L 121.689421 48.723509 
L 120.254959 53.564817 
L 118.349815 56.88201 
L 116.130882 59.033703 
L 113.710228 60.759539 
L 107.277563 64.525001 
L 104.722429 66.00429 
L 99.006995 69.523204 
L 95.443254 72.369714 
L 93.53811 74.521406 
L 91.655379 77.547224 
L 89.862302 81.536821 
L 83.922734 97.360726 
L 66.283338 143.958318 
L 61.823058 154.559887 
L 59.783433 160.992551 
L 59.873087 168.187273 
L 61.733404 176.413014 
L 62.338568 179.10263 
L 62.629943 183.406015 
L 61.867885 185.849083 
L 60.41101 187.866294 
L 59.178269 189.054208 
L 50.571499 196.383411 
L 40.238892 205.191902 
L 34.388978 210.952163 
L 29.03216 216.1745 
L 24.414986 220.612366 
L 23.092592 222.069241 
L 21.927092 223.660597 
L 21.030553 225.251953 
L 20.671938 226.193318 
L 20.290909 229.286376 
L 20.828832 231.370828 
L 21.546063 232.581155 
L 22.75639 233.858723 
L 23.697756 234.55354 
L 25.6029 235.517319 
L 26.925294 235.898348 
L 30.063179 236.212137 
L 31.699362 236.16731 
L 34.411392 235.898348 
L 39.364767 235.06905 
L 52.857672 232.379434 
L 66.372991 230.070847 
L 82.107243 227.784674 
L 92.417437 226.484693 
L 98.939755 225.857116 
L 109.294775 225.498501 
L 114.405045 225.632982 
L 122.294584 226.282972 
L 143.296 228.658799 
L 147.82352 228.927761 
L 153.135511 228.389838 
L 156.699252 226.888136 
L 157.663031 226.282972 
L 161.226772 222.651991 
L 163.333637 218.931356 
L 164.566378 216.510702 
L 166.493936 212.431451 
L 167.412888 210.190105 
L 168.824936 205.797066 
L 169.743888 200.507488 
L 169.990436 196.31617 
L 169.811128 192.057612 
L 169.407686 188.157669 
L 168.466321 182.173275 
L 166.874965 174.799245 
L 161.652627 151.847858 
L 160.778502 146.961722 
L 160.599195 144.653136 
L 161.02505 140.954914 
L 162.907781 135.844644 
L 164.924993 132.056769 
L 167.143926 128.336134 
L 168.735282 126.139614 
L 170.236984 124.525845 
L 171.82834 123.360345 
L 173.643831 122.687941 
L 176.109312 122.598287 
L 178.798928 123.13621 
L 183.28162 124.324124 
L 185.814342 124.794806 
L 189.534977 125.131008 
L 194.914208 125.198249 
L 229.274049 124.906874 
L 235.594646 124.81722 
L 240.772156 124.570672 
L 275.378545 121.656921 
L 279.793997 121.38796 
L 283.312911 121.858643 
L 284.680132 122.777595 
L 288.893863 126.901672 
L 290.754181 127.73097 
L 291.942095 127.910278 
L 293.712758 127.686143 
L 295.573076 127.193047 
L 299.652326 125.668931 
L 303.372961 123.920681 
L 320.070992 115.291498 
L 326.481243 112.377747 
L 330.941522 110.158814 
L 336.410407 106.908862 
L 344.165466 101.46239 
L 349.836072 97.091765 
L 355.820467 91.802187 
L 359.899718 87.700523 
L 365.727219 81.312686 
L 378.570133 67.080136 
L 383.680403 61.499184 
L 388.073442 57.150972 
L 392.063039 54.0355 
L 395.200924 52.130356 
L 397.868126 50.807961 
L 420.505725 41.506374 
L 423.374648 39.73571 
L 424.87635 38.0547 
L 425.817716 35.947834 
L 426.109091 34.132344 
L 426.086677 32.832363 
L 425.660822 30.411709 
L 424.898764 27.789334 
L 423.464302 23.710083 
L 422.186735 20.729092 
L 420.550552 17.636034 
L 418.331619 14.722284 
L 416.112686 12.974034 
L 414.117888 12.032668 
L 410.50932 11.293024 
L 407.954185 11.248197 
L 404.793887 11.71888 
L 401.230146 12.95162 
L 370.904729 26.646247 
L 351.270534 34.782334 
L 347.482659 36.127142 
L 344.882697 36.8892 
L 341.229302 37.740912 
L 337.508667 38.323662 
L 335.401802 38.525383 
L 331.053589 38.771931 
L 323.545079 38.996066 
L 323.545079 38.996066 
" clip-path="url(#p5ee03fc7b8)" style="fill: none; stroke: #ff1801; stroke-opacity: 0.3; stroke-width: 10; stroke-linecap: square"/>
   </g>
   <g id="line2d_2">
    <path d="M 315.476232 39.489162 
L 292.861047 40.677075 
L 276.207843 41.192585 
L 269.438977 40.96845 
L 264.620082 40.363287 
L 243.372118 35.589219 
L 233.689501 33.258219 
L 228.82578 32.272026 
L 225.553414 31.734103 
L 220.577625 31.173767 
L 217.238019 30.949632 
L 213.450143 30.815151 
L 199.12794 30.837565 
L 192.829756 31.106526 
L 183.14714 31.935824 
L 171.805927 33.280632 
L 155.511338 35.521979 
L 148.854539 36.620238 
L 145.604587 37.359883 
L 127.651402 42.896008 
L 126.822104 43.187383 
L 125.073854 43.994268 
L 123.16871 45.652864 
L 121.689421 48.723509 
L 120.254959 53.564817 
L 118.349815 56.88201 
L 116.130882 59.033703 
L 113.710228 60.759539 
L 107.277563 64.525001 
L 104.722429 66.00429 
L 99.006995 69.523204 
L 95.443254 72.369714 
L 93.53811 74.521406 
L 91.655379 77.547224 
L 89.862302 81.536821 
L 83.922734 97.360726 
L 66.283338 143.958318 
L 61.823058 154.559887 
L 59.783433 160.992551 
L 59.873087 168.187273 
L 61.733404 176.413014 
L 62.338568 179.10263 
L 62.629943 183.406015 
L 61.867885 185.849083 
L 60.41101 187.866294 
L 59.178269 189.054208 
L 50.571499 196.383411 
L 40.238892 205.191902 
L 34.388978 210.952163 
L 29.03216 216.1745 
L 24.414986 220.612366 
L 23.092592 222.069241 
L 21.927092 223.660597 
L 21.030553 225.251953 
L 20.671938 226.193318 
L 20.290909 229.286376 
L 20.828832 231.370828 
L 21.546063 232.581155 
L 22.75639 233.858723 
L 23.697756 234.55354 
L 25.6029 235.517319 
L 26.925294 235.898348 
L 30.063179 236.212137 
L 31.699362 236.16731 
L 34.411392 235.898348 
L 39.364767 235.06905 
L 52.857672 232.379434 
L 66.372991 230.070847 
L 82.107243 227.784674 
L 92.417437 226.484693 
L 98.939755 225.857116 
L 109.294775 225.498501 
L 114.405045 225.632982 
L 122.294584 226.282972 
L 143.296 228.658799 
L 147.82352 228.927761 
L 153.135511 228.389838 
L 156.699252 226.888136 
L 157.663031 226.282972 
L 161.226772 222.651991 
L 163.333637 218.931356 
L 164.566378 216.510702 
L 166.493936 212.431451 
L 167.412888 210.190105 
L 168.824936 205.797066 
L 169.743888 200.507488 
L 169.990436 196.31617 
L 169.811128 192.057612 
L 169.407686 188.157669 
L 168.466321 182.173275 
L 166.874965 174.799245 
L 161.652627 151.847858 
L 160.778502 146.961722 
L 160.599195 144.653136 
L 161.02505 140.954914 
L 162.907781 135.844644 
L 164.924993 132.056769 
L 167.143926 128.336134 
L 168.735282 126.139614 
L 170.236984 124.525845 
L 171.82834 123.360345 
L 173.643831 122.687941 
L 176.109312 122.598287 
L 178.798928 123.13621 
L 183.28162 124.324124 
L 185.814342 124.794806 
L 189.534977 125.131008 
L 194.914208 125.198249 
L 229.274049 124.906874 
L 235.594646 124.81722 
L 240.772156 124.570672 
L 275.378545 121.656921 
L 279.793997 121.38796 
L 283.312911 121.858643 
L 284.680132 122.777595 
L 288.893863 126.901672 
L 290.754181 127.73097 
L 291.942095 127.910278 
L 293.712758 127.686143 
L 295.573076 127.193047 
L 299.652326 125.668931 
L 303.372961 123.920681 
L 320.070992 115.291498 
L 326.481243 112.377747 
L 330.941522 110.158814 
L 336.410407 106.908862 
L 344.165466 101.46239 
L 349.836072 97.091765 
L 355.820467 91.802187 
L 359.899718 87.700523 
L 365.727219 81.312686 
L 378.570133 67.080136 
L 383.680403 61.499184 
L 388.073442 57.150972 
L 392.063039 54.0355 
L 395.200924 52.130356 
L 397.868126 50.807961 
L 420.505725 41.506374 
L 423.374648 39.73571 
L 424.87635 38.0547 
L 425.817716 35.947834 
L 426.109091 34.132344 
L 426.086677 32.832363 
L 425.660822 30.411709 
L 424.898764 27.789334 
L 423.464302 23.710083 
L 422.186735 20.729092 
L 420.550552 17.636034 
L 418.331619 14.722284 
L 416.112686 12.974034 
L 414.117888 12.032668 
L 410.50932 11.293024 
L 407.954185 11.248197 
L 404.793887 11.71888 
L 401.230146 12.95162 
L 370.904729 26.646247 
L 351.270534 34.782334 
L 347.482659 36.127142 
L 344.882697 36.8892 
L 341.229302 37.740912 
L 337.508667 38.323662 
L 335.401802 38.525383 
L 331.053589 38.771931 
L 323.545079 38.996066 
L 323.545079 38.996066 
" clip-path="url(#p5ee03fc7b8)" style="fill: none; stroke: #ff1801; stroke-width: 3; stroke-linecap: square"/>
   </g>
  </g>
 </g>
 <defs>
  <clipPath id="p5ee03fc7b8">
   <rect x="0" y="-0" width="446.4" height="247.460334"/>
  </clipPath>
 </defs>
</svg>
