<?xml version="1.0" encoding="utf-8" standalone="no"?>
<!DOCTYPE svg PUBLIC "-//W3C//DTD SVG 1.1//EN"
  "http://www.w3.org/Graphics/SVG/1.1/DTD/svg11.dtd">
<svg xmlns:xlink="http://www.w3.org/1999/xlink" width="390.96012pt" height="443.52pt" viewBox="0 0 390.96012 443.52" xmlns="http://www.w3.org/2000/svg" version="1.1">
 <metadata>
  <rdf:RDF xmlns:dc="http://purl.org/dc/elements/1.1/" xmlns:cc="http://creativecommons.org/ns#" xmlns:rdf="http://www.w3.org/1999/02/22-rdf-syntax-ns#">
   <cc:Work>
    <dc:type rdf:resource="http://purl.org/dc/dcmitype/StillImage"/>
    <dc:date>2026-02-12T12:53:54.032094</dc:date>
    <dc:format>image/svg+xml</dc:format>
    <dc:creator>
     <cc:Agent>
      <dc:title>Matplotlib v3.9.2, https://matplotlib.org/</dc:title>
     </cc:Agent>
    </dc:creator>
   </cc:Work>
  </rdf:RDF>
 </metadata>
 <defs>
  <style type="text/css">*{stroke-linejoin: round; stroke-linecap: butt}</style>
 </defs>
 <g id="figure_1">
  <g id="patch_1">
   <path d="M 0 443.52 
L 390.96012 443.52 
L 390.96012 0 
L 0 0 
L 0 443.52 
z
" style="fill: none"/>
  </g>
  <g id="axes_1">
   <g id="line2d_1">
    <path d="M 169.815794 375.779054 
L 150.375197 359.885278 
L 114.371612 330.272664 
L 94.462566 313.9439 
L 80.208359 302.500382 
L 42.197139 272.820846 
L 32.593952 264.991071 
L 29.281354 262.113461 
L 25.232624 258.232033 
L 17.770915 246.018921 
L 17.837836 241.33444 
L 18.10552 240.464465 
L 19.510865 238.155685 
L 21.250815 236.616498 
L 21.986948 236.14805 
L 24.161885 235.144232 
L 26.571047 234.508481 
L 30.285172 234.073494 
L 32.49357 234.040033 
L 35.404641 234.140415 
L 38.583396 234.4081 
L 44.974367 235.278075 
L 48.454267 235.980747 
L 53.80796 237.218788 
L 58.057454 238.423369 
L 60.935064 239.360266 
L 66.48952 241.434822 
L 71.374765 243.576299 
L 74.787744 245.282788 
L 79.639529 248.060017 
L 81.914848 249.498822 
L 90.07923 255.287502 
L 93.759894 258.165112 
L 103.36308 266.162191 
L 116.145022 277.304564 
L 126.283578 286.104697 
L 132.875313 291.491851 
L 137.057885 294.536763 
L 139.835114 296.343635 
L 143.214632 298.183967 
L 147.932574 300.09122 
L 153.052043 300.894274 
L 153.888558 300.894274 
L 159.409554 299.555851 
L 161.651412 298.250888 
L 163.357902 296.778622 
L 165.064392 294.637145 
L 166.168591 292.729892 
L 167.607396 287.677344 
L 167.741238 284.465129 
L 167.373172 281.353295 
L 166.570118 278.074158 
L 165.398998 274.928863 
L 163.659047 271.248199 
L 162.052939 268.270207 
L 156.933471 259.403154 
L 155.394284 256.224398 
L 154.156242 253.313328 
L 153.152425 250.234954 
L 152.081686 245.818158 
L 151.445935 240.364083 
L 151.579778 234.742705 
L 151.74708 233.471203 
L 154.691612 223.734174 
L 156.364641 220.421577 
L 161.785255 210.651087 
L 166.770881 202.520166 
L 174.500276 188.567104 
L 199.261105 143.663004 
L 204.347114 135.164017 
L 207.358566 130.814141 
L 213.147246 122.883983 
L 219.471296 114.61922 
L 224.490383 106.120232 
L 225.694964 103.07532 
L 226.966466 98.52468 
L 227.401454 88.888033 
L 225.862267 81.493245 
L 225.159595 79.184465 
L 223.218881 73.797311 
L 218.802085 62.18649 
L 215.690251 52.114855 
L 214.51913 45.288896 
L 214.418749 40.972481 
L 215.021039 36.254539 
L 217.764807 29.36166 
L 219.872823 26.48405 
L 223.854632 23.03761 
L 228.539114 20.963054 
L 233.223595 20.16 
L 240.350699 20.695369 
L 247.645105 23.271834 
L 252.195744 25.680996 
L 256.344856 28.525145 
L 262.769288 33.878838 
L 265.78074 36.656066 
L 271.970948 43.013577 
L 283.983296 56.230506 
L 295.895263 69.614739 
L 299.207861 74.232299 
L 300.34552 76.507618 
L 301.516641 80.857494 
L 301.550101 82.865129 
L 301.349338 84.170091 
L 300.88089 85.84312 
L 297.400989 93.070606 
L 296.397172 97.286639 
L 296.363711 102.305726 
L 296.86562 106.789444 
L 298.404807 112.611585 
L 301.617022 123.519734 
L 304.126566 133.62483 
L 305.063462 136.636282 
L 306.736491 140.450788 
L 311.28713 146.640996 
L 313.830134 148.916315 
L 318.849222 151.526241 
L 319.819578 151.827386 
L 327.41513 153.031967 
L 335.010682 153.634257 
L 341.301271 154.905759 
L 344.413105 156.277643 
L 347.859545 158.619884 
L 350.302168 160.828282 
L 352.778251 163.705892 
L 354.48474 166.616963 
L 355.522018 169.193427 
L 356.157769 171.66951 
L 356.592757 175.952465 
L 356.325072 180.804249 
L 355.823163 183.949544 
L 354.551661 189.403618 
L 350.937919 202.386324 
L 350.001022 206.836581 
L 349.499114 210.2161 
L 349.097587 216.205544 
L 349.231429 219.48468 
L 349.733338 226.176797 
L 351.071761 232.400465 
L 352.610948 237.218788 
L 354.819346 242.271336 
L 360.072657 250.201494 
L 365.125205 256.793228 
L 366.463628 258.767402 
L 370.913885 267.232929 
L 372.285769 271.31512 
L 373.189205 275.731917 
L 372.92152 286.138158 
L 369.742765 294.871369 
L 367.065919 299.053942 
L 363.519097 303.336896 
L 360.674948 306.348349 
L 344.0785 323.212481 
L 321.592989 346.467585 
L 310.383695 358.513394 
L 303.22313 366.677776 
L 296.531014 374.641394 
L 290.976558 379.995087 
L 288.768159 381.534274 
L 286.292076 382.738855 
L 283.782533 383.408066 
L 280.603778 383.374606 
L 278.127695 382.705394 
L 276.488126 381.935801 
L 272.506317 378.99127 
L 270.197537 376.71595 
L 253.801852 357.208432 
L 245.804773 348.50868 
L 244.098284 346.76873 
L 239.045736 342.11771 
L 236.469271 340.210456 
L 232.019014 337.901676 
L 229.007562 337.031701 
L 224.28962 336.797477 
L 221.679695 337.265925 
L 219.10323 338.269743 
L 216.125238 340.377759 
L 214.51913 342.285012 
L 212.77918 346.233361 
L 212.411114 348.140614 
L 212.544956 351.787817 
L 214.217985 356.304996 
L 217.329819 360.521029 
L 220.575495 363.632863 
L 224.925371 367.079303 
L 239.27996 377.418622 
L 244.834417 381.835419 
L 249.217753 385.984531 
L 251.559993 388.79522 
L 254.939512 395.15273 
L 255.876408 398.766473 
L 255.97679 405.558971 
L 255.240657 409.139253 
L 253.032259 413.890656 
L 251.526533 415.931751 
L 248.113554 419.110506 
L 246.74167 420.013942 
L 244.700574 421.08468 
L 241.421437 422.322722 
L 237.841155 423.092315 
L 234.695861 423.36 
L 232.085935 423.259618 
L 227.802981 422.456564 
L 221.846998 419.947021 
L 214.887197 415.195618 
L 207.458948 408.97195 
L 202.071794 404.187087 
L 181.526998 385.583004 
L 178.2144 382.738855 
L 178.2144 382.738855 
" clip-path="url(#pad696ec2ff)" style="fill: none; stroke: #ff1801; stroke-opacity: 0.3; stroke-width: 10; stroke-linecap: square"/>
   </g>
   <g id="line2d_2">
    <path d="M 169.815794 375.779054 
L 150.375197 359.885278 
L 114.371612 330.272664 
L 94.462566 313.9439 
L 80.208359 302.500382 
L 42.197139 272.820846 
L 32.593952 264.991071 
L 29.281354 262.113461 
L 25.232624 258.232033 
L 17.770915 246.018921 
L 17.837836 241.33444 
L 18.10552 240.464465 
L 19.510865 238.155685 
L 21.250815 236.616498 
L 21.986948 236.14805 
L 24.161885 235.144232 
L 26.571047 234.508481 
L 30.285172 234.073494 
L 32.49357 234.040033 
L 35.404641 234.140415 
L 38.583396 234.4081 
L 44.974367 235.278075 
L 48.454267 235.980747 
L 53.80796 237.218788 
L 58.057454 238.423369 
L 60.935064 239.360266 
L 66.48952 241.434822 
L 71.374765 243.576299 
L 74.787744 245.282788 
L 79.639529 248.060017 
L 81.914848 249.498822 
L 90.07923 255.287502 
L 93.759894 258.165112 
L 103.36308 266.162191 
L 116.145022 277.304564 
L 126.283578 286.104697 
L 132.875313 291.491851 
L 137.057885 294.536763 
L 139.835114 296.343635 
L 143.214632 298.183967 
L 147.932574 300.09122 
L 153.052043 300.894274 
L 153.888558 300.894274 
L 159.409554 299.555851 
L 161.651412 298.250888 
L 163.357902 296.778622 
L 165.064392 294.637145 
L 166.168591 292.729892 
L 167.607396 287.677344 
L 167.741238 284.465129 
L 167.373172 281.353295 
L 166.570118 278.074158 
L 165.398998 274.928863 
L 163.659047 271.248199 
L 162.052939 268.270207 
L 156.933471 259.403154 
L 155.394284 256.224398 
L 154.156242 253.313328 
L 153.152425 250.234954 
L 152.081686 245.818158 
L 151.445935 240.364083 
L 151.579778 234.742705 
L 151.74708 233.471203 
L 154.691612 223.734174 
L 156.364641 220.421577 
L 161.785255 210.651087 
L 166.770881 202.520166 
L 174.500276 188.567104 
L 199.261105 143.663004 
L 204.347114 135.164017 
L 207.358566 130.814141 
L 213.147246 122.883983 
L 219.471296 114.61922 
L 224.490383 106.120232 
L 225.694964 103.07532 
L 226.966466 98.52468 
L 227.401454 88.888033 
L 225.862267 81.493245 
L 225.159595 79.184465 
L 223.218881 73.797311 
L 218.802085 62.18649 
L 215.690251 52.114855 
L 214.51913 45.288896 
L 214.418749 40.972481 
L 215.021039 36.254539 
L 217.764807 29.36166 
L 219.872823 26.48405 
L 223.854632 23.03761 
L 228.539114 20.963054 
L 233.223595 20.16 
L 240.350699 20.695369 
L 247.645105 23.271834 
L 252.195744 25.680996 
L 256.344856 28.525145 
L 262.769288 33.878838 
L 265.78074 36.656066 
L 271.970948 43.013577 
L 283.983296 56.230506 
L 295.895263 69.614739 
L 299.207861 74.232299 
L 300.34552 76.507618 
L 301.516641 80.857494 
L 301.550101 82.865129 
L 301.349338 84.170091 
L 300.88089 85.84312 
L 297.400989 93.070606 
L 296.397172 97.286639 
L 296.363711 102.305726 
L 296.86562 106.789444 
L 298.404807 112.611585 
L 301.617022 123.519734 
L 304.126566 133.62483 
L 305.063462 136.636282 
L 306.736491 140.450788 
L 311.28713 146.640996 
L 313.830134 148.916315 
L 318.849222 151.526241 
L 319.819578 151.827386 
L 327.41513 153.031967 
L 335.010682 153.634257 
L 341.301271 154.905759 
L 344.413105 156.277643 
L 347.859545 158.619884 
L 350.302168 160.828282 
L 352.778251 163.705892 
L 354.48474 166.616963 
L 355.522018 169.193427 
L 356.157769 171.66951 
L 356.592757 175.952465 
L 356.325072 180.804249 
L 355.823163 183.949544 
L 354.551661 189.403618 
L 350.937919 202.386324 
L 350.001022 206.836581 
L 349.499114 210.2161 
L 349.097587 216.205544 
L 349.231429 219.48468 
L 349.733338 226.176797 
L 351.071761 232.400465 
L 352.610948 237.218788 
L 354.819346 242.271336 
L 360.072657 250.201494 
L 365.125205 256.793228 
L 366.463628 258.767402 
L 370.913885 267.232929 
L 372.285769 271.31512 
L 373.189205 275.731917 
L 372.92152 286.138158 
L 369.742765 294.871369 
L 367.065919 299.053942 
L 363.519097 303.336896 
L 360.674948 306.348349 
L 344.0785 323.212481 
L 321.592989 346.467585 
L 310.383695 358.513394 
L 303.22313 366.677776 
L 296.531014 374.641394 
L 290.976558 379.995087 
L 288.768159 381.534274 
L 286.292076 382.738855 
L 283.782533 383.408066 
L 280.603778 383.374606 
L 278.127695 382.705394 
L 276.488126 381.935801 
L 272.506317 378.99127 
L 270.197537 376.71595 
L 253.801852 357.208432 
L 245.804773 348.50868 
L 244.098284 346.76873 
L 239.045736 342.11771 
L 236.469271 340.210456 
L 232.019014 337.901676 
L 229.007562 337.031701 
L 224.28962 336.797477 
L 221.679695 337.265925 
L 219.10323 338.269743 
L 216.125238 340.377759 
L 214.51913 342.285012 
L 212.77918 346.233361 
L 212.411114 348.140614 
L 212.544956 351.787817 
L 214.217985 356.304996 
L 217.329819 360.521029 
L 220.575495 363.632863 
L 224.925371 367.079303 
L 239.27996 377.418622 
L 244.834417 381.835419 
L 249.217753 385.984531 
L 251.559993 388.79522 
L 254.939512 395.15273 
L 255.876408 398.766473 
L 255.97679 405.558971 
L 255.240657 409.139253 
L 253.032259 413.890656 
L 251.526533 415.931751 
L 248.113554 419.110506 
L 246.74167 420.013942 
L 244.700574 421.08468 
L 241.421437 422.322722 
L 237.841155 423.092315 
L 234.695861 423.36 
L 232.085935 423.259618 
L 227.802981 422.456564 
L 221.846998 419.947021 
L 214.887197 415.195618 
L 207.458948 408.97195 
L 202.071794 404.187087 
L 181.526998 385.583004 
L 178.2144 382.738855 
L 178.2144 382.738855 
" clip-path="url(#pad696ec2ff)" style="fill: none; stroke: #ff1801; stroke-width: 3; stroke-linecap: square"/>
   </g>
  </g>
 </g>
 <defs>
  <clipPath id="pad696ec2ff">
   <rect x="0" y="-0" width="390.96012" height="443.52"/>
  </clipPath>
 </defs>
</svg>
