<?xml version="1.0" encoding="utf-8" standalone="no"?>
<!DOCTYPE svg PUBLIC "-//W3C//DTD SVG 1.1//EN"
  "http://www.w3.org/Graphics/SVG/1.1/DTD/svg11.dtd">
<svg xmlns:xlink="http://www.w3.org/1999/xlink" width="257.063243pt" height="443.52pt" viewBox="0 0 257.063243 443.52" xmlns="http://www.w3.org/2000/svg" version="1.1">
 <metadata>
  <rdf:RDF xmlns:dc="http://purl.org/dc/elements/1.1/" xmlns:cc="http://creativecommons.org/ns#" xmlns:rdf="http://www.w3.org/1999/02/22-rdf-syntax-ns#">
   <cc:Work>
    <dc:type rdf:resource="http://purl.org/dc/dcmitype/StillImage"/>
    <dc:date>2026-02-12T12:54:31.406719</dc:date>
    <dc:format>image/svg+xml</dc:format>
    <dc:creator>
     <cc:Agent>
      <dc:title>Matplotlib v3.9.2, https://matplotlib.org/</dc:title>
     </cc:Agent>
    </dc:creator>
   </cc:Work>
  </rdf:RDF>
 </metadata>
 <defs>
  <style type="text/css">*{stroke-linejoin: round; stroke-linecap: butt}</style>
 </defs>
 <g id="figure_1">
  <g id="patch_1">
   <path d="M 0 443.52 
L 257.063243 443.52 
L 257.063243 0 
L 0 0 
L 0 443.52 
z
" style="fill: none"/>
  </g>
  <g id="axes_1">
   <g id="line2d_1">
    <path d="M 14.306497 324.73554 
L 19.382756 266.386453 
L 27.657244 169.751588 
L 28.084914 166.627737 
L 28.735717 164.470791 
L 29.089009 163.7828 
L 30.055916 162.351035 
L 30.520775 161.90477 
L 31.896757 161.17959 
L 34.85326 160.473005 
L 35.931732 159.729231 
L 36.545346 158.687947 
L 36.935827 156.642568 
L 36.880044 154.783132 
L 36.638318 153.221206 
L 35.318118 148.126353 
L 33.477277 140.800177 
L 32.454588 135.593758 
L 32.045512 132.637255 
L 31.710814 127.430836 
L 31.636436 121.68518 
L 31.82238 115.604826 
L 32.324427 109.00383 
L 32.621937 106.307648 
L 33.458683 100.822313 
L 34.816071 95.00228 
L 36.43378 90.037587 
L 38.125866 85.946829 
L 41.026586 80.368522 
L 42.291002 78.304549 
L 44.187626 75.552584 
L 47.051157 71.963874 
L 50.063442 68.840022 
L 53.819502 65.530227 
L 56.050825 63.782357 
L 59.695318 61.27212 
L 63.098085 59.245335 
L 67.058683 57.181361 
L 73.269198 54.540963 
L 76.95088 53.313735 
L 82.306054 51.937753 
L 89.688013 50.561771 
L 98.464549 49.390327 
L 109.026143 48.479203 
L 118.658019 47.661051 
L 132.287681 46.787117 
L 151.755971 46.006154 
L 155.995484 45.838805 
L 159.677167 45.578484 
L 162.298971 45.057842 
L 164.307161 44.388445 
L 165.311256 43.923586 
L 167.040531 42.640576 
L 167.709928 41.748046 
L 168.119004 40.892706 
L 169.327637 38.642789 
L 170.96394 37.006486 
L 171.856469 36.392872 
L 173.56715 35.500343 
L 175.054698 34.923918 
L 179.461561 33.86404 
L 184.258904 33.0087 
L 188.014964 32.078982 
L 197.237764 29.196857 
L 203.41109 26.853968 
L 208.208434 25.050315 
L 215.53461 22.540077 
L 221.243077 20.792208 
L 223.269862 20.345944 
L 227.174676 20.16 
L 230.856359 20.773614 
L 232.752983 21.480199 
L 237.085468 24.436702 
L 239.261007 27.114289 
L 240.785744 30.145169 
L 241.659679 32.804162 
L 242.087349 34.645003 
L 242.682369 38.47544 
L 243.277388 44.704549 
L 244.486021 60.918827 
L 245.043852 66.459945 
L 245.37855 72.131223 
L 245.341361 73.711743 
L 244.932286 76.817001 
L 244.021162 79.475993 
L 242.626586 81.670127 
L 241.566707 82.860166 
L 240.227914 84.03161 
L 236.360288 86.50466 
L 214.047061 98.237698 
L 208.338594 101.454521 
L 195.266763 108.83648 
L 188.200908 112.89005 
L 184.24031 115.270127 
L 180.856137 117.482856 
L 174.478273 122.298794 
L 164.995152 130.1828 
L 100.584305 186.188998 
L 93.053592 192.827183 
L 91.417288 194.370515 
L 89.595042 196.322922 
L 87.7542 199.26083 
L 87.066209 201.789662 
L 86.880266 204.337089 
L 86.89886 210.008367 
L 86.750105 212.388445 
L 86.006331 216.29326 
L 85.411312 218.059723 
L 84.481594 220.216669 
L 83.812197 221.46249 
L 81.580874 224.623531 
L 76.52321 230.015894 
L 75.50052 231.447659 
L 73.62249 235.445445 
L 72.525423 239.666364 
L 72.023376 242.901782 
L 70.387072 259.897023 
L 66.984305 297.215894 
L 64.39969 325.311965 
L 57.761505 396.268024 
L 56.850382 403.054964 
L 55.939258 407.796525 
L 54.786408 411.924471 
L 53.689341 414.69503 
L 51.458019 418.209364 
L 49.672961 419.975827 
L 47.051157 421.742291 
L 45.024372 422.597631 
L 41.751765 423.285623 
L 39.948113 423.36 
L 38.125866 423.248434 
L 35.132175 422.63482 
L 32.845069 421.872452 
L 30.855473 420.942734 
L 28.49399 419.566752 
L 26.467205 418.079203 
L 24.384638 416.219768 
L 21.762833 413.337643 
L 19.754643 410.567084 
L 18.11834 407.796525 
L 16.351876 404.114842 
L 14.287903 398.331998 
L 12.856137 392.233049 
L 12.35409 388.755905 
L 11.963608 384.758118 
L 11.703287 376.669574 
L 11.740476 368.41368 
L 12.18674 354.691046 
L 12.930515 342.214234 
L 13.804449 330.667139 
L 13.804449 330.667139 
" clip-path="url(#p36a1ac8209)" style="fill: none; stroke: #ff1801; stroke-opacity: 0.3; stroke-width: 10; stroke-linecap: square"/>
   </g>
   <g id="line2d_2">
    <path d="M 14.306497 324.73554 
L 19.382756 266.386453 
L 27.657244 169.751588 
L 28.084914 166.627737 
L 28.735717 164.470791 
L 29.089009 163.7828 
L 30.055916 162.351035 
L 30.520775 161.90477 
L 31.896757 161.17959 
L 34.85326 160.473005 
L 35.931732 159.729231 
L 36.545346 158.687947 
L 36.935827 156.642568 
L 36.880044 154.783132 
L 36.638318 153.221206 
L 35.318118 148.126353 
L 33.477277 140.800177 
L 32.454588 135.593758 
L 32.045512 132.637255 
L 31.710814 127.430836 
L 31.636436 121.68518 
L 31.82238 115.604826 
L 32.324427 109.00383 
L 32.621937 106.307648 
L 33.458683 100.822313 
L 34.816071 95.00228 
L 36.43378 90.037587 
L 38.125866 85.946829 
L 41.026586 80.368522 
L 42.291002 78.304549 
L 44.187626 75.552584 
L 47.051157 71.963874 
L 50.063442 68.840022 
L 53.819502 65.530227 
L 56.050825 63.782357 
L 59.695318 61.27212 
L 63.098085 59.245335 
L 67.058683 57.181361 
L 73.269198 54.540963 
L 76.95088 53.313735 
L 82.306054 51.937753 
L 89.688013 50.561771 
L 98.464549 49.390327 
L 109.026143 48.479203 
L 118.658019 47.661051 
L 132.287681 46.787117 
L 151.755971 46.006154 
L 155.995484 45.838805 
L 159.677167 45.578484 
L 162.298971 45.057842 
L 164.307161 44.388445 
L 165.311256 43.923586 
L 167.040531 42.640576 
L 167.709928 41.748046 
L 168.119004 40.892706 
L 169.327637 38.642789 
L 170.96394 37.006486 
L 171.856469 36.392872 
L 173.56715 35.500343 
L 175.054698 34.923918 
L 179.461561 33.86404 
L 184.258904 33.0087 
L 188.014964 32.078982 
L 197.237764 29.196857 
L 203.41109 26.853968 
L 208.208434 25.050315 
L 215.53461 22.540077 
L 221.243077 20.792208 
L 223.269862 20.345944 
L 227.174676 20.16 
L 230.856359 20.773614 
L 232.752983 21.480199 
L 237.085468 24.436702 
L 239.261007 27.114289 
L 240.785744 30.145169 
L 241.659679 32.804162 
L 242.087349 34.645003 
L 242.682369 38.47544 
L 243.277388 44.704549 
L 244.486021 60.918827 
L 245.043852 66.459945 
L 245.37855 72.131223 
L 245.341361 73.711743 
L 244.932286 76.817001 
L 244.021162 79.475993 
L 242.626586 81.670127 
L 241.566707 82.860166 
L 240.227914 84.03161 
L 236.360288 86.50466 
L 214.047061 98.237698 
L 208.338594 101.454521 
L 195.266763 108.83648 
L 188.200908 112.89005 
L 184.24031 115.270127 
L 180.856137 117.482856 
L 174.478273 122.298794 
L 164.995152 130.1828 
L 100.584305 186.188998 
L 93.053592 192.827183 
L 91.417288 194.370515 
L 89.595042 196.322922 
L 87.7542 199.26083 
L 87.066209 201.789662 
L 86.880266 204.337089 
L 86.89886 210.008367 
L 86.750105 212.388445 
L 86.006331 216.29326 
L 85.411312 218.059723 
L 84.481594 220.216669 
L 83.812197 221.46249 
L 81.580874 224.623531 
L 76.52321 230.015894 
L 75.50052 231.447659 
L 73.62249 235.445445 
L 72.525423 239.666364 
L 72.023376 242.901782 
L 70.387072 259.897023 
L 66.984305 297.215894 
L 64.39969 325.311965 
L 57.761505 396.268024 
L 56.850382 403.054964 
L 55.939258 407.796525 
L 54.786408 411.924471 
L 53.689341 414.69503 
L 51.458019 418.209364 
L 49.672961 419.975827 
L 47.051157 421.742291 
L 45.024372 422.597631 
L 41.751765 423.285623 
L 39.948113 423.36 
L 38.125866 423.248434 
L 35.132175 422.63482 
L 32.845069 421.872452 
L 30.855473 420.942734 
L 28.49399 419.566752 
L 26.467205 418.079203 
L 24.384638 416.219768 
L 21.762833 413.337643 
L 19.754643 410.567084 
L 18.11834 407.796525 
L 16.351876 404.114842 
L 14.287903 398.331998 
L 12.856137 392.233049 
L 12.35409 388.755905 
L 11.963608 384.758118 
L 11.703287 376.669574 
L 11.740476 368.41368 
L 12.18674 354.691046 
L 12.930515 342.214234 
L 13.804449 330.667139 
L 13.804449 330.667139 
" clip-path="url(#p36a1ac8209)" style="fill: none; stroke: #ff1801; stroke-width: 3; stroke-linecap: square"/>
   </g>
  </g>
 </g>
 <defs>
  <clipPath id="p36a1ac8209">
   <rect x="0" y="-0" width="257.063243" height="443.52"/>
  </clipPath>
 </defs>
</svg>
