<?xml version="1.0" encoding="utf-8" standalone="no"?>
<!DOCTYPE svg PUBLIC "-//W3C//DTD SVG 1.1//EN"
  "http://www.w3.org/Graphics/SVG/1.1/DTD/svg11.dtd">
<svg xmlns:xlink="http://www.w3.org/1999/xlink" width="446.4pt" height="229.153054pt" viewBox="0 0 446.4 229.153054" xmlns="http://www.w3.org/2000/svg" version="1.1">
 <metadata>
  <rdf:RDF xmlns:dc="http://purl.org/dc/elements/1.1/" xmlns:cc="http://creativecommons.org/ns#" xmlns:rdf="http://www.w3.org/1999/02/22-rdf-syntax-ns#">
   <cc:Work>
    <dc:type rdf:resource="http://purl.org/dc/dcmitype/StillImage"/>
    <dc:date>2026-02-12T12:52:32.804093</dc:date>
    <dc:format>image/svg+xml</dc:format>
    <dc:creator>
     <cc:Agent>
      <dc:title>Matplotlib v3.9.2, https://matplotlib.org/</dc:title>
     </cc:Agent>
    </dc:creator>
   </cc:Work>
  </rdf:RDF>
 </metadata>
 <defs>
  <style type="text/css">*{stroke-linejoin: round; stroke-linecap: butt}</style>
 </defs>
 <g id="figure_1">
  <g id="patch_1">
   <path d="M 0 229.153054 
L 446.4 229.153054 
L 446.4 0 
L 0 0 
L 0 229.153054 
z
" style="fill: none"/>
  </g>
  <g id="axes_1">
   <g id="line2d_1">
    <path d="M 340.956898 90.947102 
L 390.844664 149.37884 
L 419.167113 182.835889 
L 422.946178 187.765104 
L 425.821553 195.220542 
L 426.109091 198.999607 
L 425.801015 201.936598 
L 424.260635 208.18027 
L 422.597025 212.472795 
L 421.344183 214.362328 
L 417.975886 217.135011 
L 414.217359 218.470007 
L 412.019751 218.737006 
L 407.501303 218.3057 
L 405.981462 217.812779 
L 402.798011 215.984861 
L 400.785248 214.07479 
L 399.388637 212.308488 
L 396.65703 208.077578 
L 392.960119 201.628522 
L 389.961513 196.391231 
L 388.831901 194.563313 
L 385.484142 189.839482 
L 383.676763 187.68295 
L 380.863003 184.910267 
L 378.809163 183.390426 
L 373.612949 181.069587 
L 369.299885 180.371281 
L 364.7609 180.083744 
L 360.571067 179.282746 
L 356.011543 176.879754 
L 354.163087 175.318836 
L 351.267173 171.334387 
L 349.829485 167.288322 
L 346.769264 156.608356 
L 345.660191 153.938365 
L 342.20974 149.64584 
L 341.203359 148.803765 
L 337.752908 146.647234 
L 334.117612 145.373853 
L 331.262775 144.90147 
L 325.594177 144.572856 
L 319.720196 143.915627 
L 317.48151 143.299475 
L 315.427671 142.436862 
L 313.12737 141.122405 
L 311.422683 139.890101 
L 308.752692 137.425494 
L 306.965851 135.186808 
L 306.390776 134.283119 
L 304.768243 130.504054 
L 304.316398 127.649217 
L 304.41909 125.615915 
L 304.870935 123.582614 
L 308.239232 115.120795 
L 310.354687 109.637043 
L 311.176223 106.925974 
L 311.484299 103.865753 
L 310.9503 100.517995 
L 309.245613 96.759468 
L 307.417696 94.274322 
L 304.994165 92.035637 
L 301.60533 90.002335 
L 295.033043 87.003729 
L 290.227058 85.175812 
L 285.112997 83.964047 
L 280.697242 83.265741 
L 277.719174 83.039819 
L 271.947885 83.080896 
L 268.004513 83.40951 
L 263.527142 84.477507 
L 258.515773 86.367039 
L 253.709788 88.770032 
L 250.690644 90.536334 
L 247.609885 92.754481 
L 245.679275 94.438629 
L 241.407289 99.306229 
L 232.55524 111.136346 
L 228.385945 116.291483 
L 224.750649 120.604547 
L 221.895812 123.254 
L 219.841972 124.239843 
L 216.350445 125.020302 
L 206.964397 126.58122 
L 200.39211 127.505448 
L 198.112348 127.649217 
L 196.592507 127.628678 
L 193.73767 127.382218 
L 192.361597 127.135757 
L 189.609452 125.94453 
L 187.740458 123.993382 
L 186.508154 121.693082 
L 185.66608 118.89986 
L 184.926698 112.902648 
L 184.00247 108.014509 
L 181.394093 96.122778 
L 178.313334 81.725362 
L 176.629185 73.16085 
L 175.910341 68.745095 
L 175.643342 66.095642 
L 175.725496 62.521961 
L 176.300571 58.948279 
L 177.635567 54.614678 
L 178.518718 52.478685 
L 182.441552 44.037403 
L 182.85232 42.846176 
L 183.222011 41.346873 
L 183.324703 40.094031 
L 183.139857 38.512575 
L 182.770166 37.608885 
L 181.722708 36.253351 
L 179.751022 35.205893 
L 178.888409 35.123739 
L 178.005258 35.164816 
L 176.896184 35.472892 
L 175.971957 35.945275 
L 174.472654 37.239194 
L 173.219811 38.964419 
L 171.802662 41.572796 
L 168.988902 46.851164 
L 167.551214 49.356848 
L 165.579528 52.519761 
L 160.362775 60.406506 
L 157.015016 64.863338 
L 153.523489 68.457557 
L 151.243727 70.367628 
L 148.573735 72.339314 
L 144.424979 74.639615 
L 140.666453 75.912995 
L 137.483001 76.549686 
L 132.471632 77.124761 
L 127.912108 77.453375 
L 121.853281 77.309606 
L 119.080598 77.022069 
L 115.07561 76.36484 
L 110.475009 75.296843 
L 106.511099 74.126155 
L 102.259651 72.667929 
L 96.488361 70.449782 
L 93.181679 69.053171 
L 89.936613 67.512791 
L 87.389851 66.054565 
L 85.171704 64.616877 
L 81.6391 62.049577 
L 79.092339 59.954661 
L 74.902506 55.682674 
L 72.992435 53.382374 
L 70.11706 49.295233 
L 68.925833 47.28247 
L 66.584455 42.455947 
L 58.759326 24.505388 
L 55.658028 18.672483 
L 51.077966 13.250347 
L 48.223129 11.648352 
L 45.90229 10.908969 
L 42.677762 10.457125 
L 41.03469 10.416048 
L 37.255625 10.580355 
L 33.024715 11.237584 
L 30.293108 11.997504 
L 27.438271 13.147655 
L 25.692507 14.112959 
L 24.316435 15.139879 
L 21.954519 18.015255 
L 21.420521 19.10379 
L 20.845446 20.623631 
L 20.290909 23.663314 
L 20.311447 25.24477 
L 20.53737 27.031611 
L 21.379444 30.030217 
L 22.118826 31.817057 
L 23.885129 34.877278 
L 25.137971 36.499812 
L 26.904273 38.45096 
L 28.999189 40.504799 
L 30.868183 42.147871 
L 37.31724 47.118163 
L 44.053834 51.944686 
L 48.633897 55.025446 
L 54.651647 58.825049 
L 60.135399 62.049577 
L 67.221146 65.931334 
L 74.183662 69.546092 
L 77.613574 71.230241 
L 83.467018 73.920771 
L 88.56054 76.036226 
L 98.398432 79.671522 
L 114.418381 85.114197 
L 132.8824 91.296254 
L 181.578939 107.665357 
L 187.473459 109.657581 
L 193.162595 110.889885 
L 196.448738 110.705039 
L 201.911952 109.185198 
L 204.890019 108.096663 
L 208.689623 106.535745 
L 211.133692 105.385595 
L 217.43898 101.873529 
L 224.09342 97.314005 
L 229.084251 93.226864 
L 241.468904 81.499439 
L 253.56602 69.402323 
L 255.558244 67.615483 
L 257.632622 66.034026 
L 259.173002 65.150875 
L 260.816074 64.45257 
L 262.952067 63.918572 
L 264.554062 63.836418 
L 265.293444 63.918572 
L 266.772209 64.390955 
L 267.716975 65.007107 
L 269.585969 66.62964 
L 271.434425 67.77979 
L 272.317576 68.046789 
L 273.837417 68.231635 
L 275.665335 68.005712 
L 277.287868 67.430637 
L 278.438018 66.75287 
L 279.239016 66.11618 
L 283.223465 62.39873 
L 284.722768 61.24858 
L 286.386378 60.242198 
L 289.508214 59.133125 
L 290.945902 58.866126 
L 293.759662 58.619665 
L 298.093264 58.742896 
L 303.597554 59.749277 
L 307.212312 60.878889 
L 312.244219 62.973805 
L 316.659975 65.582182 
L 320.993576 68.80671 
L 325.799561 73.427849 
L 329.845625 77.90522 
L 334.836456 83.779201 
L 334.836456 83.779201 
" clip-path="url(#pb1c0c72e93)" style="fill: none; stroke: #ff1801; stroke-opacity: 0.3; stroke-width: 10; stroke-linecap: square"/>
   </g>
   <g id="line2d_2">
    <path d="M 340.956898 90.947102 
L 390.844664 149.37884 
L 419.167113 182.835889 
L 422.946178 187.765104 
L 425.821553 195.220542 
L 426.109091 198.999607 
L 425.801015 201.936598 
L 424.260635 208.18027 
L 422.597025 212.472795 
L 421.344183 214.362328 
L 417.975886 217.135011 
L 414.217359 218.470007 
L 412.019751 218.737006 
L 407.501303 218.3057 
L 405.981462 217.812779 
L 402.798011 215.984861 
L 400.785248 214.07479 
L 399.388637 212.308488 
L 396.65703 208.077578 
L 392.960119 201.628522 
L 389.961513 196.391231 
L 388.831901 194.563313 
L 385.484142 189.839482 
L 383.676763 187.68295 
L 380.863003 184.910267 
L 378.809163 183.390426 
L 373.612949 181.069587 
L 369.299885 180.371281 
L 364.7609 180.083744 
L 360.571067 179.282746 
L 356.011543 176.879754 
L 354.163087 175.318836 
L 351.267173 171.334387 
L 349.829485 167.288322 
L 346.769264 156.608356 
L 345.660191 153.938365 
L 342.20974 149.64584 
L 341.203359 148.803765 
L 337.752908 146.647234 
L 334.117612 145.373853 
L 331.262775 144.90147 
L 325.594177 144.572856 
L 319.720196 143.915627 
L 317.48151 143.299475 
L 315.427671 142.436862 
L 313.12737 141.122405 
L 311.422683 139.890101 
L 308.752692 137.425494 
L 306.965851 135.186808 
L 306.390776 134.283119 
L 304.768243 130.504054 
L 304.316398 127.649217 
L 304.41909 125.615915 
L 304.870935 123.582614 
L 308.239232 115.120795 
L 310.354687 109.637043 
L 311.176223 106.925974 
L 311.484299 103.865753 
L 310.9503 100.517995 
L 309.245613 96.759468 
L 307.417696 94.274322 
L 304.994165 92.035637 
L 301.60533 90.002335 
L 295.033043 87.003729 
L 290.227058 85.175812 
L 285.112997 83.964047 
L 280.697242 83.265741 
L 277.719174 83.039819 
L 271.947885 83.080896 
L 268.004513 83.40951 
L 263.527142 84.477507 
L 258.515773 86.367039 
L 253.709788 88.770032 
L 250.690644 90.536334 
L 247.609885 92.754481 
L 245.679275 94.438629 
L 241.407289 99.306229 
L 232.55524 111.136346 
L 228.385945 116.291483 
L 224.750649 120.604547 
L 221.895812 123.254 
L 219.841972 124.239843 
L 216.350445 125.020302 
L 206.964397 126.58122 
L 200.39211 127.505448 
L 198.112348 127.649217 
L 196.592507 127.628678 
L 193.73767 127.382218 
L 192.361597 127.135757 
L 189.609452 125.94453 
L 187.740458 123.993382 
L 186.508154 121.693082 
L 185.66608 118.89986 
L 184.926698 112.902648 
L 184.00247 108.014509 
L 181.394093 96.122778 
L 178.313334 81.725362 
L 176.629185 73.16085 
L 175.910341 68.745095 
L 175.643342 66.095642 
L 175.725496 62.521961 
L 176.300571 58.948279 
L 177.635567 54.614678 
L 178.518718 52.478685 
L 182.441552 44.037403 
L 182.85232 42.846176 
L 183.222011 41.346873 
L 183.324703 40.094031 
L 183.139857 38.512575 
L 182.770166 37.608885 
L 181.722708 36.253351 
L 179.751022 35.205893 
L 178.888409 35.123739 
L 178.005258 35.164816 
L 176.896184 35.472892 
L 175.971957 35.945275 
L 174.472654 37.239194 
L 173.219811 38.964419 
L 171.802662 41.572796 
L 168.988902 46.851164 
L 167.551214 49.356848 
L 165.579528 52.519761 
L 160.362775 60.406506 
L 157.015016 64.863338 
L 153.523489 68.457557 
L 151.243727 70.367628 
L 148.573735 72.339314 
L 144.424979 74.639615 
L 140.666453 75.912995 
L 137.483001 76.549686 
L 132.471632 77.124761 
L 127.912108 77.453375 
L 121.853281 77.309606 
L 119.080598 77.022069 
L 115.07561 76.36484 
L 110.475009 75.296843 
L 106.511099 74.126155 
L 102.259651 72.667929 
L 96.488361 70.449782 
L 93.181679 69.053171 
L 89.936613 67.512791 
L 87.389851 66.054565 
L 85.171704 64.616877 
L 81.6391 62.049577 
L 79.092339 59.954661 
L 74.902506 55.682674 
L 72.992435 53.382374 
L 70.11706 49.295233 
L 68.925833 47.28247 
L 66.584455 42.455947 
L 58.759326 24.505388 
L 55.658028 18.672483 
L 51.077966 13.250347 
L 48.223129 11.648352 
L 45.90229 10.908969 
L 42.677762 10.457125 
L 41.03469 10.416048 
L 37.255625 10.580355 
L 33.024715 11.237584 
L 30.293108 11.997504 
L 27.438271 13.147655 
L 25.692507 14.112959 
L 24.316435 15.139879 
L 21.954519 18.015255 
L 21.420521 19.10379 
L 20.845446 20.623631 
L 20.290909 23.663314 
L 20.311447 25.24477 
L 20.53737 27.031611 
L 21.379444 30.030217 
L 22.118826 31.817057 
L 23.885129 34.877278 
L 25.137971 36.499812 
L 26.904273 38.45096 
L 28.999189 40.504799 
L 30.868183 42.147871 
L 37.31724 47.118163 
L 44.053834 51.944686 
L 48.633897 55.025446 
L 54.651647 58.825049 
L 60.135399 62.049577 
L 67.221146 65.931334 
L 74.183662 69.546092 
L 77.613574 71.230241 
L 83.467018 73.920771 
L 88.56054 76.036226 
L 98.398432 79.671522 
L 114.418381 85.114197 
L 132.8824 91.296254 
L 181.578939 107.665357 
L 187.473459 109.657581 
L 193.162595 110.889885 
L 196.448738 110.705039 
L 201.911952 109.185198 
L 204.890019 108.096663 
L 208.689623 106.535745 
L 211.133692 105.385595 
L 217.43898 101.873529 
L 224.09342 97.314005 
L 229.084251 93.226864 
L 241.468904 81.499439 
L 253.56602 69.402323 
L 255.558244 67.615483 
L 257.632622 66.034026 
L 259.173002 65.150875 
L 260.816074 64.45257 
L 262.952067 63.918572 
L 264.554062 63.836418 
L 265.293444 63.918572 
L 266.772209 64.390955 
L 267.716975 65.007107 
L 269.585969 66.62964 
L 271.434425 67.77979 
L 272.317576 68.046789 
L 273.837417 68.231635 
L 275.665335 68.005712 
L 277.287868 67.430637 
L 278.438018 66.75287 
L 279.239016 66.11618 
L 283.223465 62.39873 
L 284.722768 61.24858 
L 286.386378 60.242198 
L 289.508214 59.133125 
L 290.945902 58.866126 
L 293.759662 58.619665 
L 298.093264 58.742896 
L 303.597554 59.749277 
L 307.212312 60.878889 
L 312.244219 62.973805 
L 316.659975 65.582182 
L 320.993576 68.80671 
L 325.799561 73.427849 
L 329.845625 77.90522 
L 334.836456 83.779201 
L 334.836456 83.779201 
" clip-path="url(#pb1c0c72e93)" style="fill: none; stroke: #ff1801; stroke-width: 3; stroke-linecap: square"/>
   </g>
  </g>
 </g>
 <defs>
  <clipPath id="pb1c0c72e93">
   <rect x="0" y="-0" width="446.4" height="229.153054"/>
  </clipPath>
 </defs>
</svg>
