<?xml version="1.0" encoding="utf-8" standalone="no"?>
<!DOCTYPE svg PUBLIC "-//W3C//DTD SVG 1.1//EN"
  "http://www.w3.org/Graphics/SVG/1.1/DTD/svg11.dtd">
<svg xmlns:xlink="http://www.w3.org/1999/xlink" width="264.205317pt" height="443.52pt" viewBox="0 0 264.205317 443.52" xmlns="http://www.w3.org/2000/svg" version="1.1">
 <metadata>
  <rdf:RDF xmlns:dc="http://purl.org/dc/elements/1.1/" xmlns:cc="http://creativecommons.org/ns#" xmlns:rdf="http://www.w3.org/1999/02/22-rdf-syntax-ns#">
   <cc:Work>
    <dc:type rdf:resource="http://purl.org/dc/dcmitype/StillImage"/>
    <dc:date>2026-02-12T12:55:23.726868</dc:date>
    <dc:format>image/svg+xml</dc:format>
    <dc:creator>
     <cc:Agent>
      <dc:title>Matplotlib v3.9.2, https://matplotlib.org/</dc:title>
     </cc:Agent>
    </dc:creator>
   </cc:Work>
  </rdf:RDF>
 </metadata>
 <defs>
  <style type="text/css">*{stroke-linejoin: round; stroke-linecap: butt}</style>
 </defs>
 <g id="figure_1">
  <g id="patch_1">
   <path d="M 0 443.52 
L 264.205317 443.52 
L 264.205317 0 
L 0 0 
L 0 443.52 
z
" style="fill: none"/>
  </g>
  <g id="axes_1">
   <g id="line2d_1">
    <path d="M 217.632438 397.194299 
L 223.734321 390.34778 
L 246.818054 364.65782 
L 248.721014 362.217067 
L 249.900022 359.879735 
L 250.41713 357.397614 
L 250.396446 355.804919 
L 250.251655 354.874123 
L 249.527703 352.867741 
L 248.452117 351.109572 
L 246.797369 349.351402 
L 245.059884 348.172394 
L 244.273879 347.779392 
L 242.784606 347.20023 
L 241.646967 346.910649 
L 239.681954 346.600384 
L 236.14493 346.662437 
L 232.918172 347.407073 
L 228.719249 349.392771 
L 226.423286 350.923413 
L 223.093106 353.571009 
L 216.991224 359.486733 
L 215.046895 361.141481 
L 209.710333 363.520181 
L 205.242514 363.789077 
L 200.174848 362.630754 
L 198.37531 361.94817 
L 195.37608 360.438213 
L 193.162854 358.990308 
L 189.729253 355.887656 
L 187.557396 353.012532 
L 184.971852 347.531179 
L 184.206532 344.469896 
L 183.544632 339.58839 
L 182.903418 332.162709 
L 181.8692 315.325649 
L 180.317874 275.611701 
L 177.008378 181.684075 
L 176.987694 179.057163 
L 177.1118 177.464468 
L 177.401381 175.582193 
L 178.249439 172.33475 
L 178.86997 170.824792 
L 179.800765 169.170045 
L 181.103879 167.763509 
L 182.469046 166.915451 
L 184.558165 166.377658 
L 186.502494 166.253552 
L 210.186073 166.15013 
L 216.618905 166.088077 
L 219.183764 165.901918 
L 221.334937 165.570968 
L 225.430438 164.474698 
L 228.284878 163.399111 
L 232.649275 161.227255 
L 234.986606 159.800035 
L 239.164845 156.800804 
L 241.191911 154.959897 
L 244.853041 150.74029 
L 246.838738 147.947903 
L 249.176069 143.728296 
L 250.437815 140.770435 
L 251.389295 137.771204 
L 251.885719 135.557979 
L 252.195984 132.227799 
L 252.009825 130.221417 
L 251.451348 128.132298 
L 251.265189 127.90477 
L 250.375762 126.105232 
L 249.589756 125.112383 
L 248.948542 124.553906 
L 247.211056 123.685163 
L 244.522091 122.81642 
L 243.425821 122.299312 
L 242.288181 121.451253 
L 241.502176 120.582511 
L 240.923014 119.693084 
L 240.343853 118.079705 
L 240.157694 116.362904 
L 240.674802 113.735991 
L 241.336701 112.184665 
L 242.122707 110.674708 
L 244.997831 105.607043 
L 245.576993 104.386666 
L 246.362998 102.194125 
L 246.631895 100.953064 
L 246.735316 99.856794 
L 246.673263 97.995202 
L 246.280261 96.237033 
L 245.99068 95.492396 
L 245.101253 94.044492 
L 244.377301 93.341224 
L 242.205444 92.348375 
L 239.413057 92.141532 
L 227.374766 92.451797 
L 216.474115 92.658641 
L 204.911564 92.886168 
L 183.234367 92.824115 
L 178.86997 92.741378 
L 175.084734 92.493166 
L 167.721106 91.314158 
L 164.080661 90.486784 
L 161.722645 89.762832 
L 158.723415 88.687246 
L 155.000232 87.115235 
L 152.745638 85.99828 
L 147.243601 82.399204 
L 144.554636 80.041188 
L 142.19662 77.559066 
L 138.845756 73.173985 
L 137.004849 70.257491 
L 135.681051 67.837423 
L 134.005618 64.362452 
L 128.06921 51.41405 
L 126.517884 48.207976 
L 124.842452 45.063955 
L 122.939492 42.064725 
L 120.995163 39.499866 
L 117.60293 35.797367 
L 114.665753 33.129086 
L 111.294204 30.48149 
L 108.315658 28.537161 
L 103.599627 26.096408 
L 96.422158 23.572917 
L 93.091978 22.724859 
L 81.943114 20.532318 
L 79.254149 20.16 
L 77.951035 20.16 
L 77.020239 20.30479 
L 74.827698 21.483798 
L 73.400478 23.097177 
L 72.448998 24.958769 
L 72.055995 26.303251 
L 71.26999 29.819591 
L 70.835619 31.246811 
L 70.132351 33.108402 
L 67.629545 38.424279 
L 64.216628 45.725854 
L 62.375721 49.531774 
L 58.776644 56.212819 
L 50.502905 70.857338 
L 41.732741 87.301394 
L 38.381877 93.713542 
L 34.824169 101.346067 
L 32.672996 106.393048 
L 29.901294 113.508464 
L 27.233013 121.885625 
L 21.751661 141.204806 
L 19.890069 148.630487 
L 18.545587 154.525526 
L 16.601258 164.660857 
L 15.42225 172.169275 
L 13.99503 184.207566 
L 13.312447 192.998414 
L 12.878075 202.802795 
L 12.795338 213.786184 
L 12.960813 241.668685 
L 13.126287 267.23454 
L 12.816022 320.600158 
L 12.609179 347.220914 
L 12.009333 399.903949 
L 12.133439 402.737705 
L 12.381651 404.80614 
L 12.650547 406.047201 
L 13.291762 407.970845 
L 14.491454 410.246123 
L 15.380881 411.4665 
L 16.621942 412.604139 
L 17.80095 413.328091 
L 20.17965 414.010675 
L 23.302987 414.486415 
L 25.991952 415.706791 
L 28.412021 417.527014 
L 32.114519 420.464191 
L 34.431166 421.829358 
L 37.49245 422.801523 
L 40.49168 423.111788 
L 52.943658 423.36 
L 109.701509 421.829358 
L 124.511503 421.870727 
L 134.233146 422.015517 
L 152.476741 421.912096 
L 171.382236 421.415671 
L 179.759397 420.960616 
L 182.903418 420.671035 
L 187.826293 419.822976 
L 194.528021 417.589067 
L 200.919485 413.98999 
L 204.001453 411.838818 
L 207.373002 408.922325 
L 210.103336 406.005832 
L 215.543319 399.655737 
L 215.543319 399.655737 
" clip-path="url(#p6b9cb9e81e)" style="fill: none; stroke: #ff1801; stroke-opacity: 0.3; stroke-width: 10; stroke-linecap: square"/>
   </g>
   <g id="line2d_2">
    <path d="M 217.632438 397.194299 
L 223.734321 390.34778 
L 246.818054 364.65782 
L 248.721014 362.217067 
L 249.900022 359.879735 
L 250.41713 357.397614 
L 250.396446 355.804919 
L 250.251655 354.874123 
L 249.527703 352.867741 
L 248.452117 351.109572 
L 246.797369 349.351402 
L 245.059884 348.172394 
L 244.273879 347.779392 
L 242.784606 347.20023 
L 241.646967 346.910649 
L 239.681954 346.600384 
L 236.14493 346.662437 
L 232.918172 347.407073 
L 228.719249 349.392771 
L 226.423286 350.923413 
L 223.093106 353.571009 
L 216.991224 359.486733 
L 215.046895 361.141481 
L 209.710333 363.520181 
L 205.242514 363.789077 
L 200.174848 362.630754 
L 198.37531 361.94817 
L 195.37608 360.438213 
L 193.162854 358.990308 
L 189.729253 355.887656 
L 187.557396 353.012532 
L 184.971852 347.531179 
L 184.206532 344.469896 
L 183.544632 339.58839 
L 182.903418 332.162709 
L 181.8692 315.325649 
L 180.317874 275.611701 
L 177.008378 181.684075 
L 176.987694 179.057163 
L 177.1118 177.464468 
L 177.401381 175.582193 
L 178.249439 172.33475 
L 178.86997 170.824792 
L 179.800765 169.170045 
L 181.103879 167.763509 
L 182.469046 166.915451 
L 184.558165 166.377658 
L 186.502494 166.253552 
L 210.186073 166.15013 
L 216.618905 166.088077 
L 219.183764 165.901918 
L 221.334937 165.570968 
L 225.430438 164.474698 
L 228.284878 163.399111 
L 232.649275 161.227255 
L 234.986606 159.800035 
L 239.164845 156.800804 
L 241.191911 154.959897 
L 244.853041 150.74029 
L 246.838738 147.947903 
L 249.176069 143.728296 
L 250.437815 140.770435 
L 251.389295 137.771204 
L 251.885719 135.557979 
L 252.195984 132.227799 
L 252.009825 130.221417 
L 251.451348 128.132298 
L 251.265189 127.90477 
L 250.375762 126.105232 
L 249.589756 125.112383 
L 248.948542 124.553906 
L 247.211056 123.685163 
L 244.522091 122.81642 
L 243.425821 122.299312 
L 242.288181 121.451253 
L 241.502176 120.582511 
L 240.923014 119.693084 
L 240.343853 118.079705 
L 240.157694 116.362904 
L 240.674802 113.735991 
L 241.336701 112.184665 
L 242.122707 110.674708 
L 244.997831 105.607043 
L 245.576993 104.386666 
L 246.362998 102.194125 
L 246.631895 100.953064 
L 246.735316 99.856794 
L 246.673263 97.995202 
L 246.280261 96.237033 
L 245.99068 95.492396 
L 245.101253 94.044492 
L 244.377301 93.341224 
L 242.205444 92.348375 
L 239.413057 92.141532 
L 227.374766 92.451797 
L 216.474115 92.658641 
L 204.911564 92.886168 
L 183.234367 92.824115 
L 178.86997 92.741378 
L 175.084734 92.493166 
L 167.721106 91.314158 
L 164.080661 90.486784 
L 161.722645 89.762832 
L 158.723415 88.687246 
L 155.000232 87.115235 
L 152.745638 85.99828 
L 147.243601 82.399204 
L 144.554636 80.041188 
L 142.19662 77.559066 
L 138.845756 73.173985 
L 137.004849 70.257491 
L 135.681051 67.837423 
L 134.005618 64.362452 
L 128.06921 51.41405 
L 126.517884 48.207976 
L 124.842452 45.063955 
L 122.939492 42.064725 
L 120.995163 39.499866 
L 117.60293 35.797367 
L 114.665753 33.129086 
L 111.294204 30.48149 
L 108.315658 28.537161 
L 103.599627 26.096408 
L 96.422158 23.572917 
L 93.091978 22.724859 
L 81.943114 20.532318 
L 79.254149 20.16 
L 77.951035 20.16 
L 77.020239 20.30479 
L 74.827698 21.483798 
L 73.400478 23.097177 
L 72.448998 24.958769 
L 72.055995 26.303251 
L 71.26999 29.819591 
L 70.835619 31.246811 
L 70.132351 33.108402 
L 67.629545 38.424279 
L 64.216628 45.725854 
L 62.375721 49.531774 
L 58.776644 56.212819 
L 50.502905 70.857338 
L 41.732741 87.301394 
L 38.381877 93.713542 
L 34.824169 101.346067 
L 32.672996 106.393048 
L 29.901294 113.508464 
L 27.233013 121.885625 
L 21.751661 141.204806 
L 19.890069 148.630487 
L 18.545587 154.525526 
L 16.601258 164.660857 
L 15.42225 172.169275 
L 13.99503 184.207566 
L 13.312447 192.998414 
L 12.878075 202.802795 
L 12.795338 213.786184 
L 12.960813 241.668685 
L 13.126287 267.23454 
L 12.816022 320.600158 
L 12.609179 347.220914 
L 12.009333 399.903949 
L 12.133439 402.737705 
L 12.381651 404.80614 
L 12.650547 406.047201 
L 13.291762 407.970845 
L 14.491454 410.246123 
L 15.380881 411.4665 
L 16.621942 412.604139 
L 17.80095 413.328091 
L 20.17965 414.010675 
L 23.302987 414.486415 
L 25.991952 415.706791 
L 28.412021 417.527014 
L 32.114519 420.464191 
L 34.431166 421.829358 
L 37.49245 422.801523 
L 40.49168 423.111788 
L 52.943658 423.36 
L 109.701509 421.829358 
L 124.511503 421.870727 
L 134.233146 422.015517 
L 152.476741 421.912096 
L 171.382236 421.415671 
L 179.759397 420.960616 
L 182.903418 420.671035 
L 187.826293 419.822976 
L 194.528021 417.589067 
L 200.919485 413.98999 
L 204.001453 411.838818 
L 207.373002 408.922325 
L 210.103336 406.005832 
L 215.543319 399.655737 
L 215.543319 399.655737 
" clip-path="url(#p6b9cb9e81e)" style="fill: none; stroke: #ff1801; stroke-width: 3; stroke-linecap: square"/>
   </g>
  </g>
 </g>
 <defs>
  <clipPath id="p6b9cb9e81e">
   <rect x="0" y="-0" width="264.205317" height="443.52"/>
  </clipPath>
 </defs>
</svg>
