<?xml version="1.0" encoding="utf-8" standalone="no"?>
<!DOCTYPE svg PUBLIC "-//W3C//DTD SVG 1.1//EN"
  "http://www.w3.org/Graphics/SVG/1.1/DTD/svg11.dtd">
<svg xmlns:xlink="http://www.w3.org/1999/xlink" width="446.4pt" height="319.126407pt" viewBox="0 0 446.4 319.126407" xmlns="http://www.w3.org/2000/svg" version="1.1">
 <metadata>
  <rdf:RDF xmlns:dc="http://purl.org/dc/elements/1.1/" xmlns:cc="http://creativecommons.org/ns#" xmlns:rdf="http://www.w3.org/1999/02/22-rdf-syntax-ns#">
   <cc:Work>
    <dc:type rdf:resource="http://purl.org/dc/dcmitype/StillImage"/>
    <dc:date>2026-02-12T12:55:15.711640</dc:date>
    <dc:format>image/svg+xml</dc:format>
    <dc:creator>
     <cc:Agent>
      <dc:title>Matplotlib v3.9.2, https://matplotlib.org/</dc:title>
     </cc:Agent>
    </dc:creator>
   </cc:Work>
  </rdf:RDF>
 </metadata>
 <defs>
  <style type="text/css">*{stroke-linejoin: round; stroke-linecap: butt}</style>
 </defs>
 <g id="figure_1">
  <g id="patch_1">
   <path d="M 0 319.126407 
L 446.4 319.126407 
L 446.4 0 
L 0 0 
L 0 319.126407 
z
" style="fill: none"/>
  </g>
  <g id="axes_1">
   <g id="line2d_1">
    <path d="M 86.527448 17.033858 
L 99.53318 19.140618 
L 123.325525 23.073237 
L 170.011329 30.180041 
L 195.826163 33.944119 
L 211.079107 35.826158 
L 272.708863 42.904872 
L 282.231419 44.056568 
L 320.602543 49.084702 
L 353.10283 53.354403 
L 396.473998 59.08479 
L 402.232476 60.348846 
L 404.283056 61.023009 
L 408.889838 63.438761 
L 410.125804 64.393826 
L 412.204474 66.641037 
L 413.38426 68.719707 
L 414.198874 70.910737 
L 414.648316 73.157948 
L 414.760676 75.011897 
L 414.479775 78.157992 
L 413.552801 83.691749 
L 413.46853 85.405247 
L 413.608981 87.034475 
L 413.917972 88.298531 
L 414.535955 89.787308 
L 415.631471 91.472716 
L 416.642715 92.568231 
L 418.552845 94.028918 
L 421.67085 96.079498 
L 423.075356 97.203104 
L 424.957395 99.590765 
L 425.85628 102.118877 
L 426.109091 104.78744 
L 426.052911 107.147011 
L 425.715829 109.366132 
L 424.816945 113.411111 
L 423.243897 118.860598 
L 420.378703 126.725835 
L 418.749476 130.546094 
L 417.035977 134.169721 
L 414.507865 139.169765 
L 412.766277 142.31586 
L 410.097714 146.782192 
L 404.507777 155.658675 
L 394.929041 170.293635 
L 386.530091 184.142072 
L 373.327727 206.557999 
L 366.052382 218.552487 
L 358.636586 230.237983 
L 347.765704 246.16509 
L 341.810595 254.47977 
L 338.917312 258.805651 
L 336.47347 263.833785 
L 336.052118 265.434923 
L 335.771216 267.485502 
L 335.799307 269.255181 
L 336.024028 270.463057 
L 336.389199 271.586662 
L 337.035273 272.822628 
L 337.709436 273.693422 
L 338.833041 274.732757 
L 340.125187 275.631642 
L 343.692635 277.569861 
L 345.658944 278.862007 
L 347.681434 280.996857 
L 348.187056 281.951922 
L 348.580318 283.300249 
L 348.692679 284.311493 
L 348.215146 286.755335 
L 346.95109 288.665464 
L 345.855575 289.78907 
L 343.889265 291.334027 
L 334.282439 298.07566 
L 328.608232 302.37345 
L 325.967759 303.806047 
L 324.226171 304.36785 
L 323.018295 304.564481 
L 321.220526 304.620661 
L 319.95647 304.48021 
L 318.271062 304.030768 
L 317.035096 303.412785 
L 315.153057 301.586927 
L 314.197993 299.929609 
L 313.69237 298.693643 
L 313.130568 296.334071 
L 312.990117 294.648663 
L 313.074387 291.053126 
L 313.467649 287.317138 
L 315.012607 278.665376 
L 323.327287 234.030152 
L 324.394712 227.204249 
L 324.535162 223.468261 
L 323.97336 216.951349 
L 321.698059 211.220962 
L 319.759839 208.496219 
L 315.939581 204.956862 
L 308.327154 199.872547 
L 305.574321 197.709607 
L 302.203505 194.507332 
L 299.394491 191.136515 
L 297.400092 188.271322 
L 293.692194 182.091492 
L 292.034876 179.73192 
L 289.900026 177.203808 
L 285.124703 172.990288 
L 277.736997 169.029579 
L 274.05719 167.849793 
L 270.265021 167.06327 
L 262.596414 166.529557 
L 257.764911 166.473377 
L 253.186219 166.276746 
L 246.725488 165.237411 
L 243.242311 164.085715 
L 240.011946 162.344127 
L 238.242267 160.96771 
L 235.938876 158.551959 
L 232.62424 153.804726 
L 231.584905 151.866506 
L 230.096128 148.55187 
L 229.365785 146.613651 
L 226.444411 140.09674 
L 223.185955 135.068606 
L 221.500547 133.355107 
L 216.893765 129.64721 
L 213.77576 127.73708 
L 209.197068 125.208968 
L 201.977903 121.613431 
L 194.000305 118.158344 
L 188.578908 116.192035 
L 182.090087 114.197635 
L 176.275429 112.568407 
L 166.837144 110.433557 
L 155.095467 108.354887 
L 144.056044 106.753749 
L 125.516555 104.618899 
L 91.724123 100.854821 
L 88.184766 100.377289 
L 82.145387 98.916602 
L 78.212768 96.837932 
L 75.768926 94.731172 
L 74.53296 93.298575 
L 73.100363 91.079454 
L 72.229569 89.000784 
L 71.723946 87.118745 
L 71.190234 83.888379 
L 70.993603 80.938915 
L 71.077873 76.416404 
L 71.836307 62.202795 
L 71.808217 59.11288 
L 71.358775 55.095991 
L 70.572251 52.230797 
L 70.038538 51.219552 
L 68.100319 49.253243 
L 66.892443 48.63526 
L 65.178945 48.270088 
L 64.19579 48.270088 
L 62.875554 48.55099 
L 62.03285 48.888071 
L 61.105875 49.449874 
L 55.178857 53.944295 
L 53.296818 54.758909 
L 51.527139 55.180261 
L 49.6451 55.348802 
L 47.987782 55.376892 
L 46.527095 55.264532 
L 44.532696 54.98363 
L 38.746128 53.831935 
L 33.858444 53.073501 
L 28.970761 52.399338 
L 26.246018 51.809445 
L 23.802176 50.65775 
L 22.762841 49.815046 
L 21.161703 47.315024 
L 20.48754 44.927362 
L 20.290909 43.326224 
L 20.290909 41.219464 
L 20.627991 38.719442 
L 21.302154 36.10706 
L 22.285309 33.550857 
L 24.111167 30.151951 
L 26.583099 26.893495 
L 27.819065 25.601349 
L 30.8528 22.904696 
L 32.453938 21.72491 
L 35.515762 19.814781 
L 38.015784 18.578815 
L 40.993339 17.39903 
L 46.077653 15.938343 
L 48.802396 15.37654 
L 52.285573 14.870918 
L 55.85302 14.590016 
L 61.386777 14.505746 
L 67.089074 14.758557 
L 70.572251 15.039458 
L 82.398198 16.443965 
L 82.398198 16.443965 
" clip-path="url(#pb7f2c47ef2)" style="fill: none; stroke: #ff1801; stroke-opacity: 0.3; stroke-width: 10; stroke-linecap: square"/>
   </g>
   <g id="line2d_2">
    <path d="M 86.527448 17.033858 
L 99.53318 19.140618 
L 123.325525 23.073237 
L 170.011329 30.180041 
L 195.826163 33.944119 
L 211.079107 35.826158 
L 272.708863 42.904872 
L 282.231419 44.056568 
L 320.602543 49.084702 
L 353.10283 53.354403 
L 396.473998 59.08479 
L 402.232476 60.348846 
L 404.283056 61.023009 
L 408.889838 63.438761 
L 410.125804 64.393826 
L 412.204474 66.641037 
L 413.38426 68.719707 
L 414.198874 70.910737 
L 414.648316 73.157948 
L 414.760676 75.011897 
L 414.479775 78.157992 
L 413.552801 83.691749 
L 413.46853 85.405247 
L 413.608981 87.034475 
L 413.917972 88.298531 
L 414.535955 89.787308 
L 415.631471 91.472716 
L 416.642715 92.568231 
L 418.552845 94.028918 
L 421.67085 96.079498 
L 423.075356 97.203104 
L 424.957395 99.590765 
L 425.85628 102.118877 
L 426.109091 104.78744 
L 426.052911 107.147011 
L 425.715829 109.366132 
L 424.816945 113.411111 
L 423.243897 118.860598 
L 420.378703 126.725835 
L 418.749476 130.546094 
L 417.035977 134.169721 
L 414.507865 139.169765 
L 412.766277 142.31586 
L 410.097714 146.782192 
L 404.507777 155.658675 
L 394.929041 170.293635 
L 386.530091 184.142072 
L 373.327727 206.557999 
L 366.052382 218.552487 
L 358.636586 230.237983 
L 347.765704 246.16509 
L 341.810595 254.47977 
L 338.917312 258.805651 
L 336.47347 263.833785 
L 336.052118 265.434923 
L 335.771216 267.485502 
L 335.799307 269.255181 
L 336.024028 270.463057 
L 336.389199 271.586662 
L 337.035273 272.822628 
L 337.709436 273.693422 
L 338.833041 274.732757 
L 340.125187 275.631642 
L 343.692635 277.569861 
L 345.658944 278.862007 
L 347.681434 280.996857 
L 348.187056 281.951922 
L 348.580318 283.300249 
L 348.692679 284.311493 
L 348.215146 286.755335 
L 346.95109 288.665464 
L 345.855575 289.78907 
L 343.889265 291.334027 
L 334.282439 298.07566 
L 328.608232 302.37345 
L 325.967759 303.806047 
L 324.226171 304.36785 
L 323.018295 304.564481 
L 321.220526 304.620661 
L 319.95647 304.48021 
L 318.271062 304.030768 
L 317.035096 303.412785 
L 315.153057 301.586927 
L 314.197993 299.929609 
L 313.69237 298.693643 
L 313.130568 296.334071 
L 312.990117 294.648663 
L 313.074387 291.053126 
L 313.467649 287.317138 
L 315.012607 278.665376 
L 323.327287 234.030152 
L 324.394712 227.204249 
L 324.535162 223.468261 
L 323.97336 216.951349 
L 321.698059 211.220962 
L 319.759839 208.496219 
L 315.939581 204.956862 
L 308.327154 199.872547 
L 305.574321 197.709607 
L 302.203505 194.507332 
L 299.394491 191.136515 
L 297.400092 188.271322 
L 293.692194 182.091492 
L 292.034876 179.73192 
L 289.900026 177.203808 
L 285.124703 172.990288 
L 277.736997 169.029579 
L 274.05719 167.849793 
L 270.265021 167.06327 
L 262.596414 166.529557 
L 257.764911 166.473377 
L 253.186219 166.276746 
L 246.725488 165.237411 
L 243.242311 164.085715 
L 240.011946 162.344127 
L 238.242267 160.96771 
L 235.938876 158.551959 
L 232.62424 153.804726 
L 231.584905 151.866506 
L 230.096128 148.55187 
L 229.365785 146.613651 
L 226.444411 140.09674 
L 223.185955 135.068606 
L 221.500547 133.355107 
L 216.893765 129.64721 
L 213.77576 127.73708 
L 209.197068 125.208968 
L 201.977903 121.613431 
L 194.000305 118.158344 
L 188.578908 116.192035 
L 182.090087 114.197635 
L 176.275429 112.568407 
L 166.837144 110.433557 
L 155.095467 108.354887 
L 144.056044 106.753749 
L 125.516555 104.618899 
L 91.724123 100.854821 
L 88.184766 100.377289 
L 82.145387 98.916602 
L 78.212768 96.837932 
L 75.768926 94.731172 
L 74.53296 93.298575 
L 73.100363 91.079454 
L 72.229569 89.000784 
L 71.723946 87.118745 
L 71.190234 83.888379 
L 70.993603 80.938915 
L 71.077873 76.416404 
L 71.836307 62.202795 
L 71.808217 59.11288 
L 71.358775 55.095991 
L 70.572251 52.230797 
L 70.038538 51.219552 
L 68.100319 49.253243 
L 66.892443 48.63526 
L 65.178945 48.270088 
L 64.19579 48.270088 
L 62.875554 48.55099 
L 62.03285 48.888071 
L 61.105875 49.449874 
L 55.178857 53.944295 
L 53.296818 54.758909 
L 51.527139 55.180261 
L 49.6451 55.348802 
L 47.987782 55.376892 
L 46.527095 55.264532 
L 44.532696 54.98363 
L 38.746128 53.831935 
L 33.858444 53.073501 
L 28.970761 52.399338 
L 26.246018 51.809445 
L 23.802176 50.65775 
L 22.762841 49.815046 
L 21.161703 47.315024 
L 20.48754 44.927362 
L 20.290909 43.326224 
L 20.290909 41.219464 
L 20.627991 38.719442 
L 21.302154 36.10706 
L 22.285309 33.550857 
L 24.111167 30.151951 
L 26.583099 26.893495 
L 27.819065 25.601349 
L 30.8528 22.904696 
L 32.453938 21.72491 
L 35.515762 19.814781 
L 38.015784 18.578815 
L 40.993339 17.39903 
L 46.077653 15.938343 
L 48.802396 15.37654 
L 52.285573 14.870918 
L 55.85302 14.590016 
L 61.386777 14.505746 
L 67.089074 14.758557 
L 70.572251 15.039458 
L 82.398198 16.443965 
L 82.398198 16.443965 
" clip-path="url(#pb7f2c47ef2)" style="fill: none; stroke: #ff1801; stroke-width: 3; stroke-linecap: square"/>
   </g>
  </g>
 </g>
 <defs>
  <clipPath id="pb7f2c47ef2">
   <rect x="0" y="0" width="446.4" height="319.126407"/>
  </clipPath>
 </defs>
</svg>
