<?xml version="1.0" encoding="utf-8" standalone="no"?>
<!DOCTYPE svg PUBLIC "-//W3C//DTD SVG 1.1//EN"
  "http://www.w3.org/Graphics/SVG/1.1/DTD/svg11.dtd">
<svg xmlns:xlink="http://www.w3.org/1999/xlink" width="446.4pt" height="174.985225pt" viewBox="0 0 446.4 174.985225" xmlns="http://www.w3.org/2000/svg" version="1.1">
 <metadata>
  <rdf:RDF xmlns:dc="http://purl.org/dc/elements/1.1/" xmlns:cc="http://creativecommons.org/ns#" xmlns:rdf="http://www.w3.org/1999/02/22-rdf-syntax-ns#">
   <cc:Work>
    <dc:type rdf:resource="http://purl.org/dc/dcmitype/StillImage"/>
    <dc:date>2026-02-12T12:52:58.029970</dc:date>
    <dc:format>image/svg+xml</dc:format>
    <dc:creator>
     <cc:Agent>
      <dc:title>Matplotlib v3.9.2, https://matplotlib.org/</dc:title>
     </cc:Agent>
    </dc:creator>
   </cc:Work>
  </rdf:RDF>
 </metadata>
 <defs>
  <style type="text/css">*{stroke-linejoin: round; stroke-linecap: butt}</style>
 </defs>
 <g id="figure_1">
  <g id="patch_1">
   <path d="M 0 174.985225 
L 446.4 174.985225 
L 446.4 0 
L 0 0 
L 0 174.985225 
z
" style="fill: none"/>
  </g>
  <g id="axes_1">
   <g id="line2d_1">
    <path d="M 193.532078 36.145848 
L 226.734152 56.863292 
L 237.620966 63.335801 
L 243.389353 66.531433 
L 264.675512 77.661982 
L 270.79596 81.480491 
L 273.152061 83.565777 
L 274.154081 84.757368 
L 274.912367 86.003123 
L 275.562326 87.790511 
L 275.751897 89.388327 
L 275.535244 91.067387 
L 274.939449 92.638122 
L 273.937428 94.290101 
L 272.935408 95.562937 
L 269.848103 98.785651 
L 265.65045 102.92914 
L 263.402675 105.610221 
L 260.911166 109.970363 
L 259.692492 114.438832 
L 259.475839 118.230259 
L 259.475839 121.723789 
L 259.096697 126.165176 
L 257.14682 133.125154 
L 256.171881 135.21044 
L 254.465738 138.026929 
L 250.241005 142.522479 
L 247.072454 144.851499 
L 242.685231 147.37009 
L 237.67513 149.617865 
L 233.450396 151.02611 
L 228.927764 152.136456 
L 224.838438 152.759334 
L 220.20748 153.111395 
L 215.468195 153.084313 
L 209.104013 152.353109 
L 204.364728 151.296926 
L 198.542179 149.238722 
L 193.992465 147.099274 
L 189.171936 144.391111 
L 185.895059 142.387071 
L 150.093148 119.719749 
L 146.545455 117.769872 
L 140.154191 114.384668 
L 136.119028 112.488954 
L 128.698662 110.241179 
L 119.707562 109.9162 
L 114.859951 110.728649 
L 108.143707 113.572219 
L 100.425444 118.121933 
L 98.069342 119.23228 
L 95.388261 120.153055 
L 89.240732 121.046749 
L 85.801365 120.803014 
L 81.468305 119.665586 
L 77.026918 117.471974 
L 74.616653 115.874158 
L 71.718919 113.761791 
L 68.008736 110.484914 
L 63.675676 107.099711 
L 61.075839 105.664384 
L 56.851106 104.120732 
L 51.651433 103.25412 
L 43.77068 104.012405 
L 39.031395 105.42065 
L 33.100519 108.128812 
L 29.173683 110.864057 
L 26.140541 113.815954 
L 24.082337 116.497035 
L 21.699154 120.91134 
L 21.049195 122.888299 
L 20.48048 125.56938 
L 20.290909 127.465094 
L 20.345072 130.22742 
L 20.615889 132.177297 
L 21.374174 134.804215 
L 22.8095 137.458215 
L 25.788479 140.247622 
L 27.765438 141.249642 
L 31.069397 142.170418 
L 34.156702 142.495397 
L 39.356375 142.657887 
L 46.641332 142.793295 
L 51.082719 143.118275 
L 58.828064 144.147376 
L 67.087961 145.501458 
L 75.510347 147.261764 
L 78.760142 147.992968 
L 82.822386 148.724171 
L 90.486486 149.37413 
L 94.03418 149.401212 
L 106.437565 148.940824 
L 116.078624 148.507518 
L 128.238275 148.236702 
L 152.015943 147.938804 
L 157.29686 147.965886 
L 162.550696 148.236702 
L 166.477532 148.724171 
L 174.277041 150.53864 
L 180.289162 152.488518 
L 192.340486 156.767415 
L 197.540158 158.473557 
L 204.879279 160.748414 
L 213.653726 163.239924 
L 221.751133 165.027311 
L 231.879661 166.489719 
L 236.564783 166.84178 
L 242.712312 167.031351 
L 249.807699 166.895943 
L 258.473819 166.300147 
L 263.700573 165.731433 
L 268.927327 165.000229 
L 276.483101 163.537821 
L 280.707835 162.481638 
L 289.996833 159.746394 
L 308.953972 153.35513 
L 325.23003 147.830478 
L 334.979416 144.309866 
L 337.768823 143.226601 
L 349.19727 138.460235 
L 356.888452 134.993787 
L 366.773246 130.335747 
L 378.770407 124.431952 
L 385.919956 120.559279 
L 389.846792 118.257341 
L 393.80071 115.684586 
L 396.698444 113.382648 
L 398.29626 111.866077 
L 399.785749 110.07869 
L 400.62528 108.778771 
L 401.329402 107.451772 
L 402.087688 104.174895 
L 401.78979 102.712487 
L 401.139831 101.385487 
L 399.189954 98.975222 
L 396.183893 96.321223 
L 392.013322 92.800612 
L 389.494731 90.038286 
L 388.005242 87.519694 
L 387.409446 85.976041 
L 386.921977 82.699165 
L 387.328201 79.720186 
L 387.707344 78.501512 
L 388.384384 76.930778 
L 388.98018 75.874595 
L 390.253017 74.195534 
L 391.498771 72.949779 
L 392.690363 72.056085 
L 393.909036 71.351963 
L 395.994322 70.512432 
L 397.619219 70.13329 
L 399.596178 69.862473 
L 404.931259 69.754147 
L 408.235217 69.672902 
L 410.212176 69.510412 
L 412.649522 68.96878 
L 417.226317 66.775168 
L 421.748949 62.415026 
L 424.050887 58.786088 
L 425.486213 55.265476 
L 425.973683 53.180191 
L 426.109091 51.799028 
L 426.027846 50.526192 
L 424.26754 48.522151 
L 422.778051 47.763866 
L 421.505214 46.816009 
L 421.071908 45.67858 
L 421.126072 43.67454 
L 421.748949 40.885132 
L 423.455091 34.84593 
L 425.702867 28.292176 
L 425.648703 24.961136 
L 425.107071 24.04036 
L 424.348785 23.227912 
L 423.238438 22.388381 
L 421.694786 21.521769 
L 420.340704 20.925973 
L 418.742888 20.384341 
L 416.711766 19.86979 
L 413.407808 19.382321 
L 408.966421 19.111504 
L 392.067486 18.624035 
L 373.814469 18.055321 
L 351.932514 17.513688 
L 310.633033 16.619995 
L 295.738138 16.21377 
L 227.844499 13.830587 
L 188.955283 12.530669 
L 143.13317 11.691138 
L 116.34944 11.014098 
L 108.52285 10.39122 
L 86.911712 8.251772 
L 80.818346 7.953874 
L 77.433142 8.116364 
L 75.23953 8.414262 
L 73.506306 8.793404 
L 72.287633 9.199629 
L 70.635654 10.147486 
L 69.823205 10.905771 
L 69.146164 11.853628 
L 68.73994 12.88273 
L 68.550369 14.074322 
L 68.73994 16.024199 
L 69.146164 17.269954 
L 69.552389 18.082402 
L 70.419001 19.409402 
L 71.664756 20.817647 
L 73.506306 22.361299 
L 75.835326 24.04036 
L 81.143325 26.992258 
L 86.424242 30.350379 
L 91.38018 33.058542 
L 95.225771 34.304297 
L 100.53377 34.818848 
L 106.058422 33.708501 
L 110.174829 32.219012 
L 127.371663 24.094524 
L 135.225334 21.521769 
L 138.664701 20.87181 
L 144.13519 20.303096 
L 150.093148 20.086443 
L 157.62184 20.600994 
L 163.60688 21.900912 
L 168.021185 23.282075 
L 174.331204 25.502768 
L 180.09959 28.102604 
L 183.132733 29.754584 
L 187.57412 32.327338 
L 187.57412 32.327338 
" clip-path="url(#p8c3f1b55c9)" style="fill: none; stroke: #ff1801; stroke-opacity: 0.3; stroke-width: 10; stroke-linecap: square"/>
   </g>
   <g id="line2d_2">
    <path d="M 193.532078 36.145848 
L 226.734152 56.863292 
L 237.620966 63.335801 
L 243.389353 66.531433 
L 264.675512 77.661982 
L 270.79596 81.480491 
L 273.152061 83.565777 
L 274.154081 84.757368 
L 274.912367 86.003123 
L 275.562326 87.790511 
L 275.751897 89.388327 
L 275.535244 91.067387 
L 274.939449 92.638122 
L 273.937428 94.290101 
L 272.935408 95.562937 
L 269.848103 98.785651 
L 265.65045 102.92914 
L 263.402675 105.610221 
L 260.911166 109.970363 
L 259.692492 114.438832 
L 259.475839 118.230259 
L 259.475839 121.723789 
L 259.096697 126.165176 
L 257.14682 133.125154 
L 256.171881 135.21044 
L 254.465738 138.026929 
L 250.241005 142.522479 
L 247.072454 144.851499 
L 242.685231 147.37009 
L 237.67513 149.617865 
L 233.450396 151.02611 
L 228.927764 152.136456 
L 224.838438 152.759334 
L 220.20748 153.111395 
L 215.468195 153.084313 
L 209.104013 152.353109 
L 204.364728 151.296926 
L 198.542179 149.238722 
L 193.992465 147.099274 
L 189.171936 144.391111 
L 185.895059 142.387071 
L 150.093148 119.719749 
L 146.545455 117.769872 
L 140.154191 114.384668 
L 136.119028 112.488954 
L 128.698662 110.241179 
L 119.707562 109.9162 
L 114.859951 110.728649 
L 108.143707 113.572219 
L 100.425444 118.121933 
L 98.069342 119.23228 
L 95.388261 120.153055 
L 89.240732 121.046749 
L 85.801365 120.803014 
L 81.468305 119.665586 
L 77.026918 117.471974 
L 74.616653 115.874158 
L 71.718919 113.761791 
L 68.008736 110.484914 
L 63.675676 107.099711 
L 61.075839 105.664384 
L 56.851106 104.120732 
L 51.651433 103.25412 
L 43.77068 104.012405 
L 39.031395 105.42065 
L 33.100519 108.128812 
L 29.173683 110.864057 
L 26.140541 113.815954 
L 24.082337 116.497035 
L 21.699154 120.91134 
L 21.049195 122.888299 
L 20.48048 125.56938 
L 20.290909 127.465094 
L 20.345072 130.22742 
L 20.615889 132.177297 
L 21.374174 134.804215 
L 22.8095 137.458215 
L 25.788479 140.247622 
L 27.765438 141.249642 
L 31.069397 142.170418 
L 34.156702 142.495397 
L 39.356375 142.657887 
L 46.641332 142.793295 
L 51.082719 143.118275 
L 58.828064 144.147376 
L 67.087961 145.501458 
L 75.510347 147.261764 
L 78.760142 147.992968 
L 82.822386 148.724171 
L 90.486486 149.37413 
L 94.03418 149.401212 
L 106.437565 148.940824 
L 116.078624 148.507518 
L 128.238275 148.236702 
L 152.015943 147.938804 
L 157.29686 147.965886 
L 162.550696 148.236702 
L 166.477532 148.724171 
L 174.277041 150.53864 
L 180.289162 152.488518 
L 192.340486 156.767415 
L 197.540158 158.473557 
L 204.879279 160.748414 
L 213.653726 163.239924 
L 221.751133 165.027311 
L 231.879661 166.489719 
L 236.564783 166.84178 
L 242.712312 167.031351 
L 249.807699 166.895943 
L 258.473819 166.300147 
L 263.700573 165.731433 
L 268.927327 165.000229 
L 276.483101 163.537821 
L 280.707835 162.481638 
L 289.996833 159.746394 
L 308.953972 153.35513 
L 325.23003 147.830478 
L 334.979416 144.309866 
L 337.768823 143.226601 
L 349.19727 138.460235 
L 356.888452 134.993787 
L 366.773246 130.335747 
L 378.770407 124.431952 
L 385.919956 120.559279 
L 389.846792 118.257341 
L 393.80071 115.684586 
L 396.698444 113.382648 
L 398.29626 111.866077 
L 399.785749 110.07869 
L 400.62528 108.778771 
L 401.329402 107.451772 
L 402.087688 104.174895 
L 401.78979 102.712487 
L 401.139831 101.385487 
L 399.189954 98.975222 
L 396.183893 96.321223 
L 392.013322 92.800612 
L 389.494731 90.038286 
L 388.005242 87.519694 
L 387.409446 85.976041 
L 386.921977 82.699165 
L 387.328201 79.720186 
L 387.707344 78.501512 
L 388.384384 76.930778 
L 388.98018 75.874595 
L 390.253017 74.195534 
L 391.498771 72.949779 
L 392.690363 72.056085 
L 393.909036 71.351963 
L 395.994322 70.512432 
L 397.619219 70.13329 
L 399.596178 69.862473 
L 404.931259 69.754147 
L 408.235217 69.672902 
L 410.212176 69.510412 
L 412.649522 68.96878 
L 417.226317 66.775168 
L 421.748949 62.415026 
L 424.050887 58.786088 
L 425.486213 55.265476 
L 425.973683 53.180191 
L 426.109091 51.799028 
L 426.027846 50.526192 
L 424.26754 48.522151 
L 422.778051 47.763866 
L 421.505214 46.816009 
L 421.071908 45.67858 
L 421.126072 43.67454 
L 421.748949 40.885132 
L 423.455091 34.84593 
L 425.702867 28.292176 
L 425.648703 24.961136 
L 425.107071 24.04036 
L 424.348785 23.227912 
L 423.238438 22.388381 
L 421.694786 21.521769 
L 420.340704 20.925973 
L 418.742888 20.384341 
L 416.711766 19.86979 
L 413.407808 19.382321 
L 408.966421 19.111504 
L 392.067486 18.624035 
L 373.814469 18.055321 
L 351.932514 17.513688 
L 310.633033 16.619995 
L 295.738138 16.21377 
L 227.844499 13.830587 
L 188.955283 12.530669 
L 143.13317 11.691138 
L 116.34944 11.014098 
L 108.52285 10.39122 
L 86.911712 8.251772 
L 80.818346 7.953874 
L 77.433142 8.116364 
L 75.23953 8.414262 
L 73.506306 8.793404 
L 72.287633 9.199629 
L 70.635654 10.147486 
L 69.823205 10.905771 
L 69.146164 11.853628 
L 68.73994 12.88273 
L 68.550369 14.074322 
L 68.73994 16.024199 
L 69.146164 17.269954 
L 69.552389 18.082402 
L 70.419001 19.409402 
L 71.664756 20.817647 
L 73.506306 22.361299 
L 75.835326 24.04036 
L 81.143325 26.992258 
L 86.424242 30.350379 
L 91.38018 33.058542 
L 95.225771 34.304297 
L 100.53377 34.818848 
L 106.058422 33.708501 
L 110.174829 32.219012 
L 127.371663 24.094524 
L 135.225334 21.521769 
L 138.664701 20.87181 
L 144.13519 20.303096 
L 150.093148 20.086443 
L 157.62184 20.600994 
L 163.60688 21.900912 
L 168.021185 23.282075 
L 174.331204 25.502768 
L 180.09959 28.102604 
L 183.132733 29.754584 
L 187.57412 32.327338 
L 187.57412 32.327338 
" clip-path="url(#p8c3f1b55c9)" style="fill: none; stroke: #ff1801; stroke-width: 3; stroke-linecap: square"/>
   </g>
  </g>
 </g>
 <defs>
  <clipPath id="p8c3f1b55c9">
   <rect x="0" y="0" width="446.4" height="174.985225"/>
  </clipPath>
 </defs>
</svg>
