<?xml version="1.0" encoding="utf-8" standalone="no"?>
<!DOCTYPE svg PUBLIC "-//W3C//DTD SVG 1.1//EN"
  "http://www.w3.org/Graphics/SVG/1.1/DTD/svg11.dtd">
<svg xmlns:xlink="http://www.w3.org/1999/xlink" width="346.134921pt" height="443.52pt" viewBox="0 0 346.134921 443.52" xmlns="http://www.w3.org/2000/svg" version="1.1">
 <metadata>
  <rdf:RDF xmlns:dc="http://purl.org/dc/elements/1.1/" xmlns:cc="http://creativecommons.org/ns#" xmlns:rdf="http://www.w3.org/1999/02/22-rdf-syntax-ns#">
   <cc:Work>
    <dc:type rdf:resource="http://purl.org/dc/dcmitype/StillImage"/>
    <dc:date>2026-02-12T12:53:05.125545</dc:date>
    <dc:format>image/svg+xml</dc:format>
    <dc:creator>
     <cc:Agent>
      <dc:title>Matplotlib v3.9.2, https://matplotlib.org/</dc:title>
     </cc:Agent>
    </dc:creator>
   </cc:Work>
  </rdf:RDF>
 </metadata>
 <defs>
  <style type="text/css">*{stroke-linejoin: round; stroke-linecap: butt}</style>
 </defs>
 <g id="figure_1">
  <g id="patch_1">
   <path d="M 0 443.52 
L 346.134921 443.52 
L 346.134921 0 
L 0 0 
L 0 443.52 
z
" style="fill: none"/>
  </g>
  <g id="axes_1">
   <g id="line2d_1">
    <path d="M 16.027252 282.229505 
L 15.733406 276.982238 
L 16.027252 268.418699 
L 16.698903 258.427902 
L 17.496487 251.123706 
L 18.545941 243.861489 
L 19.637372 238.068506 
L 21.736279 228.95925 
L 24.087055 220.563623 
L 25.136508 217.457241 
L 26.143983 214.896575 
L 27.697174 211.958105 
L 31.517185 208.683811 
L 34.161807 207.676335 
L 39.241162 206.584904 
L 47.17503 205.745341 
L 58.005389 204.779844 
L 61.279683 204.360062 
L 71.438393 202.638959 
L 83.234249 199.868402 
L 115.053676 191.850578 
L 120.007096 190.843103 
L 127.35327 189.835627 
L 133.146253 189.373868 
L 140.618361 188.492327 
L 148.930032 186.183529 
L 156.737966 182.615388 
L 167.190522 177.368121 
L 171.682182 175.479105 
L 177.475165 173.380198 
L 185.24112 171.323269 
L 193.930594 169.812056 
L 209.462505 167.881062 
L 223.525181 164.228964 
L 227.261235 162.423904 
L 232.718393 158.771806 
L 237.419944 154.112233 
L 239.728741 150.837939 
L 241.449845 147.227819 
L 242.91908 141.434836 
L 243.170948 134.928225 
L 242.625233 130.562499 
L 241.197976 125.525122 
L 239.392916 121.327309 
L 235.404993 114.778719 
L 231.41707 109.615409 
L 229.444098 107.306611 
L 224.4487 100.296262 
L 223.021443 96.224383 
L 222.85353 92.194482 
L 224.196831 86.653368 
L 227.051344 80.734451 
L 227.974863 79.265216 
L 230.283661 75.906965 
L 234.397518 70.827611 
L 241.869626 62.599896 
L 244.26238 59.703404 
L 249.67756 52.231296 
L 254.295155 45.38886 
L 259.752312 38.000708 
L 263.950126 32.753441 
L 268.063983 27.967933 
L 272.471688 23.518251 
L 273.940922 22.426819 
L 275.78796 21.587257 
L 278.432583 21.461322 
L 281.119184 22.342863 
L 283.427981 23.896054 
L 285.02315 25.78507 
L 285.48491 26.582655 
L 286.870188 30.402665 
L 288.045576 35.104217 
L 290.018549 41.56885 
L 292.327346 47.277876 
L 295.559663 53.532618 
L 295.727575 53.658553 
L 297.784504 56.597022 
L 299.463629 58.360104 
L 300.890886 59.409558 
L 303.49353 60.542967 
L 305.676394 60.417033 
L 306.809803 59.57747 
L 307.439475 57.898345 
L 307.481453 56.974826 
L 307.397497 56.051307 
L 306.809803 53.784487 
L 305.29859 50.887996 
L 303.997268 49.166892 
L 301.394624 46.312379 
L 300.303192 45.220947 
L 297.86846 42.576325 
L 296.105378 40.099615 
L 295.097903 37.329058 
L 295.055925 34.600479 
L 295.727575 32.375638 
L 296.944941 30.444643 
L 298.036373 29.311234 
L 301.352645 26.876502 
L 307.481453 23.896054 
L 310.335967 22.720666 
L 312.938611 21.797147 
L 317.346315 20.579781 
L 319.823026 20.201978 
L 321.921932 20.16 
L 326.203702 21.839125 
L 327.756893 23.812098 
L 328.5125 25.365289 
L 329.477997 28.26178 
L 330.191625 32.249703 
L 330.401516 35.356085 
L 330.401516 38.294555 
L 330.191625 43.331931 
L 329.897778 46.480292 
L 327.337112 69.568267 
L 326.161724 80.272691 
L 325.448096 84.764352 
L 322.971386 94.50328 
L 321.502151 99.162853 
L 319.109397 106.005289 
L 317.094447 111.294534 
L 313.358393 120.361812 
L 309.202557 129.471067 
L 305.340568 136.481416 
L 296.52516 147.6476 
L 288.465358 154.322124 
L 283.092156 157.596419 
L 278.558517 159.947194 
L 268.735634 164.564789 
L 254.882849 171.449204 
L 248.586128 174.68152 
L 238.595332 179.550984 
L 229.486076 183.580885 
L 224.574634 185.553857 
L 213.828231 189.289912 
L 208.706898 190.801124 
L 201.528637 192.522228 
L 193.216966 193.949485 
L 185.283098 194.95696 
L 172.647679 196.258282 
L 169.9191 196.678064 
L 167.064587 197.307736 
L 164.545899 198.56708 
L 162.237102 201.547527 
L 160.054238 205.32556 
L 158.794894 206.626882 
L 157.199725 207.592379 
L 154.135321 208.306007 
L 153.463671 208.347985 
L 149.43377 207.970182 
L 144.522328 206.794794 
L 144.270459 206.710838 
L 141.038143 206.249079 
L 134.321641 206.584904 
L 123.659194 208.222051 
L 114.96972 209.439417 
L 95.030105 211.832171 
L 79.666107 213.385362 
L 65.015738 214.350859 
L 56.913957 216.029984 
L 52.968012 218.338782 
L 48.896133 222.242749 
L 44.278538 228.497491 
L 41.675894 233.157064 
L 39.535009 238.236419 
L 36.974343 247.513587 
L 36.260714 251.669422 
L 35.589064 256.790755 
L 35.127305 269.426174 
L 36.386649 277.066195 
L 42.977216 285.923581 
L 47.888658 297.467569 
L 49.693718 303.638355 
L 54.563182 330.966122 
L 54.940985 336.045476 
L 54.982963 341.040875 
L 53.93351 346.204185 
L 52.254384 348.219136 
L 48.896133 352.458928 
L 48.728221 358.755648 
L 49.735696 364.254784 
L 50.617237 367.655013 
L 53.135925 374.623384 
L 55.108897 378.863175 
L 57.711542 383.48077 
L 59.936383 386.755065 
L 62.70694 390.365185 
L 66.191125 394.143217 
L 69.339486 396.871796 
L 73.243452 399.348506 
L 84.577549 405.687205 
L 87.725909 408.49974 
L 88.649428 410.052931 
L 89.153166 411.732056 
L 89.237122 412.9914 
L 89.111188 414.502613 
L 88.817341 416.055804 
L 87.557997 418.742405 
L 86.256675 420.169662 
L 83.528096 421.680875 
L 82.058861 422.100656 
L 79.414238 422.68835 
L 72.907627 423.276044 
L 69.675311 423.36 
L 65.981235 423.318022 
L 62.916831 422.982197 
L 60.733968 422.604394 
L 57.921433 421.722853 
L 55.94846 420.379552 
L 54.731094 418.952296 
L 53.639663 416.769433 
L 52.380319 411.983925 
L 51.498778 407.786111 
L 50.071521 403.294451 
L 47.720745 398.80279 
L 39.325118 386.293306 
L 36.302692 380.500323 
L 32.146857 369.837876 
L 28.830584 359.259386 
L 27.445306 354.557834 
L 24.129033 342.552087 
L 21.400454 331.763706 
L 20.015175 325.299073 
L 18.461984 315.056408 
L 17.832312 309.38936 
L 16.53099 291.002936 
L 16.53099 291.002936 
" clip-path="url(#p174f57346b)" style="fill: none; stroke: #ff1801; stroke-opacity: 0.3; stroke-width: 10; stroke-linecap: square"/>
   </g>
   <g id="line2d_2">
    <path d="M 16.027252 282.229505 
L 15.733406 276.982238 
L 16.027252 268.418699 
L 16.698903 258.427902 
L 17.496487 251.123706 
L 18.545941 243.861489 
L 19.637372 238.068506 
L 21.736279 228.95925 
L 24.087055 220.563623 
L 25.136508 217.457241 
L 26.143983 214.896575 
L 27.697174 211.958105 
L 31.517185 208.683811 
L 34.161807 207.676335 
L 39.241162 206.584904 
L 47.17503 205.745341 
L 58.005389 204.779844 
L 61.279683 204.360062 
L 71.438393 202.638959 
L 83.234249 199.868402 
L 115.053676 191.850578 
L 120.007096 190.843103 
L 127.35327 189.835627 
L 133.146253 189.373868 
L 140.618361 188.492327 
L 148.930032 186.183529 
L 156.737966 182.615388 
L 167.190522 177.368121 
L 171.682182 175.479105 
L 177.475165 173.380198 
L 185.24112 171.323269 
L 193.930594 169.812056 
L 209.462505 167.881062 
L 223.525181 164.228964 
L 227.261235 162.423904 
L 232.718393 158.771806 
L 237.419944 154.112233 
L 239.728741 150.837939 
L 241.449845 147.227819 
L 242.91908 141.434836 
L 243.170948 134.928225 
L 242.625233 130.562499 
L 241.197976 125.525122 
L 239.392916 121.327309 
L 235.404993 114.778719 
L 231.41707 109.615409 
L 229.444098 107.306611 
L 224.4487 100.296262 
L 223.021443 96.224383 
L 222.85353 92.194482 
L 224.196831 86.653368 
L 227.051344 80.734451 
L 227.974863 79.265216 
L 230.283661 75.906965 
L 234.397518 70.827611 
L 241.869626 62.599896 
L 244.26238 59.703404 
L 249.67756 52.231296 
L 254.295155 45.38886 
L 259.752312 38.000708 
L 263.950126 32.753441 
L 268.063983 27.967933 
L 272.471688 23.518251 
L 273.940922 22.426819 
L 275.78796 21.587257 
L 278.432583 21.461322 
L 281.119184 22.342863 
L 283.427981 23.896054 
L 285.02315 25.78507 
L 285.48491 26.582655 
L 286.870188 30.402665 
L 288.045576 35.104217 
L 290.018549 41.56885 
L 292.327346 47.277876 
L 295.559663 53.532618 
L 295.727575 53.658553 
L 297.784504 56.597022 
L 299.463629 58.360104 
L 300.890886 59.409558 
L 303.49353 60.542967 
L 305.676394 60.417033 
L 306.809803 59.57747 
L 307.439475 57.898345 
L 307.481453 56.974826 
L 307.397497 56.051307 
L 306.809803 53.784487 
L 305.29859 50.887996 
L 303.997268 49.166892 
L 301.394624 46.312379 
L 300.303192 45.220947 
L 297.86846 42.576325 
L 296.105378 40.099615 
L 295.097903 37.329058 
L 295.055925 34.600479 
L 295.727575 32.375638 
L 296.944941 30.444643 
L 298.036373 29.311234 
L 301.352645 26.876502 
L 307.481453 23.896054 
L 310.335967 22.720666 
L 312.938611 21.797147 
L 317.346315 20.579781 
L 319.823026 20.201978 
L 321.921932 20.16 
L 326.203702 21.839125 
L 327.756893 23.812098 
L 328.5125 25.365289 
L 329.477997 28.26178 
L 330.191625 32.249703 
L 330.401516 35.356085 
L 330.401516 38.294555 
L 330.191625 43.331931 
L 329.897778 46.480292 
L 327.337112 69.568267 
L 326.161724 80.272691 
L 325.448096 84.764352 
L 322.971386 94.50328 
L 321.502151 99.162853 
L 319.109397 106.005289 
L 317.094447 111.294534 
L 313.358393 120.361812 
L 309.202557 129.471067 
L 305.340568 136.481416 
L 296.52516 147.6476 
L 288.465358 154.322124 
L 283.092156 157.596419 
L 278.558517 159.947194 
L 268.735634 164.564789 
L 254.882849 171.449204 
L 248.586128 174.68152 
L 238.595332 179.550984 
L 229.486076 183.580885 
L 224.574634 185.553857 
L 213.828231 189.289912 
L 208.706898 190.801124 
L 201.528637 192.522228 
L 193.216966 193.949485 
L 185.283098 194.95696 
L 172.647679 196.258282 
L 169.9191 196.678064 
L 167.064587 197.307736 
L 164.545899 198.56708 
L 162.237102 201.547527 
L 160.054238 205.32556 
L 158.794894 206.626882 
L 157.199725 207.592379 
L 154.135321 208.306007 
L 153.463671 208.347985 
L 149.43377 207.970182 
L 144.522328 206.794794 
L 144.270459 206.710838 
L 141.038143 206.249079 
L 134.321641 206.584904 
L 123.659194 208.222051 
L 114.96972 209.439417 
L 95.030105 211.832171 
L 79.666107 213.385362 
L 65.015738 214.350859 
L 56.913957 216.029984 
L 52.968012 218.338782 
L 48.896133 222.242749 
L 44.278538 228.497491 
L 41.675894 233.157064 
L 39.535009 238.236419 
L 36.974343 247.513587 
L 36.260714 251.669422 
L 35.589064 256.790755 
L 35.127305 269.426174 
L 36.386649 277.066195 
L 42.977216 285.923581 
L 47.888658 297.467569 
L 49.693718 303.638355 
L 54.563182 330.966122 
L 54.940985 336.045476 
L 54.982963 341.040875 
L 53.93351 346.204185 
L 52.254384 348.219136 
L 48.896133 352.458928 
L 48.728221 358.755648 
L 49.735696 364.254784 
L 50.617237 367.655013 
L 53.135925 374.623384 
L 55.108897 378.863175 
L 57.711542 383.48077 
L 59.936383 386.755065 
L 62.70694 390.365185 
L 66.191125 394.143217 
L 69.339486 396.871796 
L 73.243452 399.348506 
L 84.577549 405.687205 
L 87.725909 408.49974 
L 88.649428 410.052931 
L 89.153166 411.732056 
L 89.237122 412.9914 
L 89.111188 414.502613 
L 88.817341 416.055804 
L 87.557997 418.742405 
L 86.256675 420.169662 
L 83.528096 421.680875 
L 82.058861 422.100656 
L 79.414238 422.68835 
L 72.907627 423.276044 
L 69.675311 423.36 
L 65.981235 423.318022 
L 62.916831 422.982197 
L 60.733968 422.604394 
L 57.921433 421.722853 
L 55.94846 420.379552 
L 54.731094 418.952296 
L 53.639663 416.769433 
L 52.380319 411.983925 
L 51.498778 407.786111 
L 50.071521 403.294451 
L 47.720745 398.80279 
L 39.325118 386.293306 
L 36.302692 380.500323 
L 32.146857 369.837876 
L 28.830584 359.259386 
L 27.445306 354.557834 
L 24.129033 342.552087 
L 21.400454 331.763706 
L 20.015175 325.299073 
L 18.461984 315.056408 
L 17.832312 309.38936 
L 16.53099 291.002936 
L 16.53099 291.002936 
" clip-path="url(#p174f57346b)" style="fill: none; stroke: #ff1801; stroke-width: 3; stroke-linecap: square"/>
   </g>
  </g>
 </g>
 <defs>
  <clipPath id="p174f57346b">
   <rect x="0" y="-0" width="346.134921" height="443.52"/>
  </clipPath>
 </defs>
</svg>
