<?xml version="1.0" encoding="utf-8" standalone="no"?>
<!DOCTYPE svg PUBLIC "-//W3C//DTD SVG 1.1//EN"
  "http://www.w3.org/Graphics/SVG/1.1/DTD/svg11.dtd">
<svg xmlns:xlink="http://www.w3.org/1999/xlink" width="378.506267pt" height="443.52pt" viewBox="0 0 378.506267 443.52" xmlns="http://www.w3.org/2000/svg" version="1.1">
 <metadata>
  <rdf:RDF xmlns:dc="http://purl.org/dc/elements/1.1/" xmlns:cc="http://creativecommons.org/ns#" xmlns:rdf="http://www.w3.org/1999/02/22-rdf-syntax-ns#">
   <cc:Work>
    <dc:type rdf:resource="http://purl.org/dc/dcmitype/StillImage"/>
    <dc:date>2026-02-12T12:55:41.448913</dc:date>
    <dc:format>image/svg+xml</dc:format>
    <dc:creator>
     <cc:Agent>
      <dc:title>Matplotlib v3.9.2, https://matplotlib.org/</dc:title>
     </cc:Agent>
    </dc:creator>
   </cc:Work>
  </rdf:RDF>
 </metadata>
 <defs>
  <style type="text/css">*{stroke-linejoin: round; stroke-linecap: butt}</style>
 </defs>
 <g id="figure_1">
  <g id="patch_1">
   <path d="M 0 443.52 
L 378.506267 443.52 
L 378.506267 0 
L 0 0 
L 0 443.52 
z
" style="fill: none"/>
  </g>
  <g id="axes_1">
   <g id="line2d_1">
    <path d="M 110.489824 324.771912 
L 73.72537 258.442023 
L 36.191555 192.606722 
L 28.360562 179.390203 
L 26.217342 175.543399 
L 23.002513 169.086264 
L 20.969203 164.744871 
L 19.595344 161.475088 
L 18.166531 157.353512 
L 17.507079 154.495887 
L 17.20483 149.60495 
L 17.644465 146.445076 
L 18.248963 144.301856 
L 19.842639 141.361799 
L 23.414671 137.56995 
L 26.547068 135.564116 
L 29.020014 134.519984 
L 32.179888 133.833054 
L 36.328941 133.7781 
L 41.137446 134.877187 
L 43.665346 135.921319 
L 48.638713 138.696514 
L 58.970129 145.538329 
L 68.229936 151.610784 
L 80.100074 159.002143 
L 85.430645 161.227793 
L 89.249971 161.722382 
L 91.585531 161.557519 
L 94.415679 160.87059 
L 97.767894 159.331869 
L 101.916947 155.952177 
L 105.049344 151.116195 
L 106.230863 147.022096 
L 106.615543 141.993774 
L 106.560589 136.141137 
L 106.011045 116.87964 
L 105.983568 112.428339 
L 106.230863 107.207676 
L 106.780406 103.855461 
L 108.78624 97.618144 
L 110.901982 93.414137 
L 114.528968 88.13852 
L 119.859539 81.571476 
L 122.27753 78.823759 
L 134.834597 65.057697 
L 155.00284 42.801188 
L 164.125261 32.717067 
L 170.44501 25.957683 
L 173.192727 23.429783 
L 175.803058 21.753676 
L 179.045365 20.599635 
L 181.875513 20.16 
L 185.365114 20.214954 
L 189.733984 21.039269 
L 194.652397 23.127534 
L 197.564978 25.023459 
L 202.675731 29.309898 
L 206.522535 33.019316 
L 210.122044 37.003506 
L 211.605812 39.009339 
L 213.666599 42.718757 
L 215.50757 49.533095 
L 215.69991 52.967742 
L 215.397661 55.825367 
L 211.1387 63.711315 
L 205.31354 69.371612 
L 193.223585 81.021933 
L 189.239395 85.170985 
L 180.501655 94.925381 
L 177.808892 98.222641 
L 175.226038 101.932059 
L 173.220204 105.531569 
L 172.560752 107.097767 
L 172.066163 108.746398 
L 171.873823 111.274297 
L 172.121118 112.758065 
L 172.725615 114.241832 
L 173.54993 115.368396 
L 174.099474 115.890462 
L 176.105307 117.099458 
L 178.330958 117.786387 
L 180.199406 117.923773 
L 181.738127 117.841341 
L 185.804749 117.044503 
L 189.294349 115.862985 
L 201.768985 110.972049 
L 210.808974 107.207676 
L 213.501736 106.026158 
L 227.625002 99.376683 
L 241.363587 93.386659 
L 247.765768 90.721374 
L 251.612572 89.320038 
L 254.827401 88.413292 
L 260.130495 87.891225 
L 262.575963 88.193474 
L 265.653406 89.072744 
L 268.456077 90.419125 
L 272.055587 93.139365 
L 273.841603 95.117721 
L 274.803304 96.49158 
L 276.561843 100.008657 
L 277.413635 103.635644 
L 277.413635 107.345062 
L 276.671751 110.559891 
L 275.71005 112.813019 
L 274.418623 115.011193 
L 271.588475 118.280976 
L 267.109696 122.210211 
L 261.806602 127.815554 
L 257.712504 133.201079 
L 255.239558 136.992929 
L 251.502663 143.532496 
L 250.211236 146.142827 
L 247.078839 153.78148 
L 244.798234 161.557519 
L 242.709969 167.987177 
L 241.885654 169.690762 
L 238.093804 175.103764 
L 235.868153 177.192029 
L 229.933084 180.351904 
L 221.387684 182.852327 
L 216.386839 184.033845 
L 205.341017 186.012201 
L 203.747341 186.286973 
L 198.499201 187.331105 
L 193.910514 188.457669 
L 192.78395 188.897304 
L 189.569121 190.793229 
L 187.315993 193.183743 
L 185.777271 195.656688 
L 184.705662 198.486837 
L 184.128641 201.316985 
L 184.101164 203.78993 
L 184.568276 206.070536 
L 186.299338 209.724999 
L 188.827237 213.077214 
L 192.481701 217.226267 
L 196.026256 220.660913 
L 198.636587 222.83161 
L 201.71403 225.139692 
L 204.709042 227.173003 
L 208.41846 229.536039 
L 214.573346 232.888254 
L 217.183677 234.152204 
L 223.008837 236.570195 
L 226.938073 237.971531 
L 234.769066 240.142227 
L 241.638359 241.433654 
L 245.237868 241.818334 
L 251.777435 242.120583 
L 257.135483 242.120583 
L 262.548486 241.928243 
L 268.4286 241.488608 
L 281.178007 240.087273 
L 300.659321 237.77919 
L 306.017369 237.037307 
L 313.49116 235.855788 
L 319.178934 235.333722 
L 325.278866 235.635971 
L 330.362143 236.762535 
L 331.598615 237.20217 
L 335.610282 239.04314 
L 339.731858 241.708426 
L 343.716047 245.225504 
L 346.656105 248.550241 
L 348.991664 251.820025 
L 351.601995 255.969077 
L 354.76187 261.821715 
L 356.905089 266.190585 
L 358.526242 269.790094 
L 360.39469 275.093188 
L 361.109096 278.85756 
L 361.301437 282.237252 
L 359.872624 289.820951 
L 357.509587 295.096568 
L 353.525397 301.828475 
L 343.633616 316.116604 
L 339.759335 321.694469 
L 337.368821 324.524618 
L 332.835088 327.821878 
L 329.208101 329.223214 
L 323.932485 330.047529 
L 317.337964 329.497986 
L 314.810064 329.140782 
L 309.039858 328.069173 
L 285.272106 322.628693 
L 271.423612 319.826022 
L 258.646728 317.765234 
L 254.497675 317.462985 
L 246.749113 318.974229 
L 243.122126 320.925108 
L 238.835688 324.607049 
L 236.252834 327.876832 
L 231.746578 335.295669 
L 229.87813 338.895178 
L 222.761543 354.254916 
L 217.485926 365.767851 
L 210.479248 380.055979 
L 203.060412 394.454017 
L 195.943824 407.698013 
L 193.828082 411.379954 
L 190.118664 416.765479 
L 186.76645 420.007785 
L 185.090342 421.134349 
L 180.996244 422.810457 
L 178.825547 423.222614 
L 176.105307 423.36 
L 173.275159 423.112705 
L 172.011209 422.837934 
L 169.016197 421.876233 
L 163.905444 418.633927 
L 162.009519 416.820433 
L 160.113594 414.484874 
L 157.393354 410.308344 
L 155.057795 406.104337 
L 149.012817 394.61888 
L 140.714712 379.478959 
L 112.742952 328.838533 
L 112.742952 328.838533 
" clip-path="url(#p0565bd5d51)" style="fill: none; stroke: #ff1801; stroke-opacity: 0.3; stroke-width: 10; stroke-linecap: square"/>
   </g>
   <g id="line2d_2">
    <path d="M 110.489824 324.771912 
L 73.72537 258.442023 
L 36.191555 192.606722 
L 28.360562 179.390203 
L 26.217342 175.543399 
L 23.002513 169.086264 
L 20.969203 164.744871 
L 19.595344 161.475088 
L 18.166531 157.353512 
L 17.507079 154.495887 
L 17.20483 149.60495 
L 17.644465 146.445076 
L 18.248963 144.301856 
L 19.842639 141.361799 
L 23.414671 137.56995 
L 26.547068 135.564116 
L 29.020014 134.519984 
L 32.179888 133.833054 
L 36.328941 133.7781 
L 41.137446 134.877187 
L 43.665346 135.921319 
L 48.638713 138.696514 
L 58.970129 145.538329 
L 68.229936 151.610784 
L 80.100074 159.002143 
L 85.430645 161.227793 
L 89.249971 161.722382 
L 91.585531 161.557519 
L 94.415679 160.87059 
L 97.767894 159.331869 
L 101.916947 155.952177 
L 105.049344 151.116195 
L 106.230863 147.022096 
L 106.615543 141.993774 
L 106.560589 136.141137 
L 106.011045 116.87964 
L 105.983568 112.428339 
L 106.230863 107.207676 
L 106.780406 103.855461 
L 108.78624 97.618144 
L 110.901982 93.414137 
L 114.528968 88.13852 
L 119.859539 81.571476 
L 122.27753 78.823759 
L 134.834597 65.057697 
L 155.00284 42.801188 
L 164.125261 32.717067 
L 170.44501 25.957683 
L 173.192727 23.429783 
L 175.803058 21.753676 
L 179.045365 20.599635 
L 181.875513 20.16 
L 185.365114 20.214954 
L 189.733984 21.039269 
L 194.652397 23.127534 
L 197.564978 25.023459 
L 202.675731 29.309898 
L 206.522535 33.019316 
L 210.122044 37.003506 
L 211.605812 39.009339 
L 213.666599 42.718757 
L 215.50757 49.533095 
L 215.69991 52.967742 
L 215.397661 55.825367 
L 211.1387 63.711315 
L 205.31354 69.371612 
L 193.223585 81.021933 
L 189.239395 85.170985 
L 180.501655 94.925381 
L 177.808892 98.222641 
L 175.226038 101.932059 
L 173.220204 105.531569 
L 172.560752 107.097767 
L 172.066163 108.746398 
L 171.873823 111.274297 
L 172.121118 112.758065 
L 172.725615 114.241832 
L 173.54993 115.368396 
L 174.099474 115.890462 
L 176.105307 117.099458 
L 178.330958 117.786387 
L 180.199406 117.923773 
L 181.738127 117.841341 
L 185.804749 117.044503 
L 189.294349 115.862985 
L 201.768985 110.972049 
L 210.808974 107.207676 
L 213.501736 106.026158 
L 227.625002 99.376683 
L 241.363587 93.386659 
L 247.765768 90.721374 
L 251.612572 89.320038 
L 254.827401 88.413292 
L 260.130495 87.891225 
L 262.575963 88.193474 
L 265.653406 89.072744 
L 268.456077 90.419125 
L 272.055587 93.139365 
L 273.841603 95.117721 
L 274.803304 96.49158 
L 276.561843 100.008657 
L 277.413635 103.635644 
L 277.413635 107.345062 
L 276.671751 110.559891 
L 275.71005 112.813019 
L 274.418623 115.011193 
L 271.588475 118.280976 
L 267.109696 122.210211 
L 261.806602 127.815554 
L 257.712504 133.201079 
L 255.239558 136.992929 
L 251.502663 143.532496 
L 250.211236 146.142827 
L 247.078839 153.78148 
L 244.798234 161.557519 
L 242.709969 167.987177 
L 241.885654 169.690762 
L 238.093804 175.103764 
L 235.868153 177.192029 
L 229.933084 180.351904 
L 221.387684 182.852327 
L 216.386839 184.033845 
L 205.341017 186.012201 
L 203.747341 186.286973 
L 198.499201 187.331105 
L 193.910514 188.457669 
L 192.78395 188.897304 
L 189.569121 190.793229 
L 187.315993 193.183743 
L 185.777271 195.656688 
L 184.705662 198.486837 
L 184.128641 201.316985 
L 184.101164 203.78993 
L 184.568276 206.070536 
L 186.299338 209.724999 
L 188.827237 213.077214 
L 192.481701 217.226267 
L 196.026256 220.660913 
L 198.636587 222.83161 
L 201.71403 225.139692 
L 204.709042 227.173003 
L 208.41846 229.536039 
L 214.573346 232.888254 
L 217.183677 234.152204 
L 223.008837 236.570195 
L 226.938073 237.971531 
L 234.769066 240.142227 
L 241.638359 241.433654 
L 245.237868 241.818334 
L 251.777435 242.120583 
L 257.135483 242.120583 
L 262.548486 241.928243 
L 268.4286 241.488608 
L 281.178007 240.087273 
L 300.659321 237.77919 
L 306.017369 237.037307 
L 313.49116 235.855788 
L 319.178934 235.333722 
L 325.278866 235.635971 
L 330.362143 236.762535 
L 331.598615 237.20217 
L 335.610282 239.04314 
L 339.731858 241.708426 
L 343.716047 245.225504 
L 346.656105 248.550241 
L 348.991664 251.820025 
L 351.601995 255.969077 
L 354.76187 261.821715 
L 356.905089 266.190585 
L 358.526242 269.790094 
L 360.39469 275.093188 
L 361.109096 278.85756 
L 361.301437 282.237252 
L 359.872624 289.820951 
L 357.509587 295.096568 
L 353.525397 301.828475 
L 343.633616 316.116604 
L 339.759335 321.694469 
L 337.368821 324.524618 
L 332.835088 327.821878 
L 329.208101 329.223214 
L 323.932485 330.047529 
L 317.337964 329.497986 
L 314.810064 329.140782 
L 309.039858 328.069173 
L 285.272106 322.628693 
L 271.423612 319.826022 
L 258.646728 317.765234 
L 254.497675 317.462985 
L 246.749113 318.974229 
L 243.122126 320.925108 
L 238.835688 324.607049 
L 236.252834 327.876832 
L 231.746578 335.295669 
L 229.87813 338.895178 
L 222.761543 354.254916 
L 217.485926 365.767851 
L 210.479248 380.055979 
L 203.060412 394.454017 
L 195.943824 407.698013 
L 193.828082 411.379954 
L 190.118664 416.765479 
L 186.76645 420.007785 
L 185.090342 421.134349 
L 180.996244 422.810457 
L 178.825547 423.222614 
L 176.105307 423.36 
L 173.275159 423.112705 
L 172.011209 422.837934 
L 169.016197 421.876233 
L 163.905444 418.633927 
L 162.009519 416.820433 
L 160.113594 414.484874 
L 157.393354 410.308344 
L 155.057795 406.104337 
L 149.012817 394.61888 
L 140.714712 379.478959 
L 112.742952 328.838533 
L 112.742952 328.838533 
" clip-path="url(#p0565bd5d51)" style="fill: none; stroke: #ff1801; stroke-width: 3; stroke-linecap: square"/>
   </g>
  </g>
 </g>
 <defs>
  <clipPath id="p0565bd5d51">
   <rect x="0" y="-0" width="378.506267" height="443.52"/>
  </clipPath>
 </defs>
</svg>
