<?xml version="1.0" encoding="utf-8" standalone="no"?>
<!DOCTYPE svg PUBLIC "-//W3C//DTD SVG 1.1//EN"
  "http://www.w3.org/Graphics/SVG/1.1/DTD/svg11.dtd">
<svg xmlns:xlink="http://www.w3.org/1999/xlink" width="94.077061pt" height="443.52pt" viewBox="0 0 94.077061 443.52" xmlns="http://www.w3.org/2000/svg" version="1.1">
 <metadata>
  <rdf:RDF xmlns:dc="http://purl.org/dc/elements/1.1/" xmlns:cc="http://creativecommons.org/ns#" xmlns:rdf="http://www.w3.org/1999/02/22-rdf-syntax-ns#">
   <cc:Work>
    <dc:type rdf:resource="http://purl.org/dc/dcmitype/StillImage"/>
    <dc:date>2026-02-12T12:52:24.956845</dc:date>
    <dc:format>image/svg+xml</dc:format>
    <dc:creator>
     <cc:Agent>
      <dc:title>Matplotlib v3.9.2, https://matplotlib.org/</dc:title>
     </cc:Agent>
    </dc:creator>
   </cc:Work>
  </rdf:RDF>
 </metadata>
 <defs>
  <style type="text/css">*{stroke-linejoin: round; stroke-linecap: butt}</style>
 </defs>
 <g id="figure_1">
  <g id="patch_1">
   <path d="M 0 443.52 
L 94.077061 443.52 
L 94.077061 0 
L 0 0 
L 0 443.52 
z
" style="fill: none"/>
  </g>
  <g id="axes_1">
   <g id="line2d_1">
    <path d="M 69.947955 335.851581 
L 57.618894 302.214844 
L 56.281653 297.556545 
L 51.358845 279.525843 
L 50.15386 275.602292 
L 49.566062 274.132797 
L 48.787229 272.604522 
L 48.184736 271.752215 
L 46.950361 270.664789 
L 45.142882 270.106381 
L 41.292806 270.694179 
L 39.838006 270.48845 
L 39.250208 270.165161 
L 38.456681 269.356939 
L 38.236256 268.960175 
L 37.898272 267.975613 
L 37.795408 266.432644 
L 37.839493 265.389302 
L 38.324426 261.436361 
L 40.17599 252.090374 
L 40.440499 249.283639 
L 40.469888 246.844277 
L 40.014345 241.789215 
L 36.340608 212.972421 
L 35.855675 207.711629 
L 35.69403 207.094441 
L 34.929893 205.624946 
L 33.886551 204.74325 
L 32.8726 204.214231 
L 29.301728 202.671262 
L 27.626503 201.598531 
L 25.892499 199.923306 
L 24.687514 198.277472 
L 23.673562 196.455298 
L 22.909425 194.64782 
L 22.439187 193.10485 
L 22.042423 191.121032 
L 21.866084 189.563368 
L 21.836694 186.800717 
L 21.968948 185.081408 
L 22.218762 183.553134 
L 23.218019 180.467194 
L 26.083534 175.162318 
L 27.068095 171.855955 
L 27.273825 169.107999 
L 26.832976 164.846464 
L 25.71616 160.452674 
L 24.305445 156.470343 
L 23.394358 155.103713 
L 21.146031 153.399099 
L 18.6185 152.003079 
L 17.207785 150.504194 
L 16.311393 148.755495 
L 15.694205 146.360219 
L 15.356221 142.921601 
L 15.341526 138.96866 
L 15.488476 136.352959 
L 15.944019 133.164155 
L 16.811021 130.401504 
L 18.721365 127.315565 
L 21.954253 124.582305 
L 24.26136 123.259759 
L 28.375946 120.717533 
L 29.580932 119.394988 
L 30.624273 117.631594 
L 31.403105 115.471437 
L 31.697004 114.222366 
L 32.681566 108.755845 
L 34.195145 102.775001 
L 35.81159 97.323175 
L 36.649202 93.649438 
L 37.29578 88.917665 
L 37.986442 82.495972 
L 38.295036 78.763455 
L 38.60363 71.930304 
L 38.353816 61.864264 
L 37.472119 43.730698 
L 37.20761 39.807146 
L 36.458168 33.958557 
L 35.66464 29.711717 
L 34.577214 26.037979 
L 33.431008 23.921907 
L 32.387667 22.643446 
L 31.550055 21.879309 
L 30.609578 21.232731 
L 27.567724 20.174695 
L 26.421518 20.16 
L 24.907938 20.512679 
L 23.820512 21.027002 
L 22.101203 22.349547 
L 21.028471 23.642703 
L 20.161469 25.141588 
L 19.309162 27.595644 
L 18.897704 30.152565 
L 18.809534 31.636755 
L 18.838924 34.208371 
L 18.985874 36.148104 
L 19.338552 38.469906 
L 19.999825 40.982742 
L 20.617013 42.643271 
L 21.660354 44.700564 
L 24.17319 48.653505 
L 25.613295 51.151647 
L 26.450908 52.841566 
L 27.376689 55.207452 
L 28.170216 58.102357 
L 28.53759 60.042091 
L 28.890269 62.907606 
L 29.198863 67.845108 
L 29.095998 71.474761 
L 28.743319 74.648869 
L 28.405336 76.471043 
L 27.464859 80.056611 
L 26.539077 82.687006 
L 25.290007 85.596606 
L 22.439187 91.900739 
L 21.32237 94.986678 
L 20.234944 99.424553 
L 19.191603 105.346617 
L 18.70667 106.698552 
L 17.486989 108.638286 
L 16.752241 109.373033 
L 14.856593 110.460459 
L 10.668533 111.239291 
L 9.022698 112.062209 
L 7.053575 114.251756 
L 5.892674 116.426608 
L 5.393046 117.866713 
L 4.922808 119.835836 
L 4.496654 123.05403 
L 4.349705 125.155408 
L 4.290925 130.592539 
L 4.39379 134.163411 
L 4.672994 137.36691 
L 5.393046 141.67253 
L 6.069014 144.46457 
L 7.259305 148.226477 
L 9.272513 153.237455 
L 10.933042 157.087531 
L 13.181369 162.921426 
L 14.43044 167.153571 
L 15.282747 170.988953 
L 15.973409 175.779506 
L 16.223223 178.96831 
L 16.561207 187.388515 
L 16.987361 191.65005 
L 17.472294 194.927024 
L 18.001312 197.674979 
L 18.6185 200.158426 
L 19.294468 202.377363 
L 20.440674 205.389827 
L 23.188629 210.871043 
L 27.317909 217.909923 
L 29.110693 221.745305 
L 30.874087 226.770977 
L 31.608834 229.621798 
L 32.314192 233.031026 
L 32.78443 235.940625 
L 33.225279 239.658447 
L 33.592653 245.286613 
L 33.504483 250.826608 
L 33.357533 253.221885 
L 32.90199 257.718539 
L 31.579445 267.299646 
L 31.56475 268.475242 
L 31.770479 270.223941 
L 32.608091 272.207759 
L 33.372228 273.236405 
L 37.222305 276.513379 
L 39.029784 277.938789 
L 40.234769 279.026215 
L 41.909993 281.142287 
L 42.747606 282.846901 
L 43.364793 284.816024 
L 43.717472 286.682283 
L 43.937896 288.533846 
L 44.2171 292.428008 
L 44.158321 295.763761 
L 43.761557 299.143599 
L 43.129674 301.96503 
L 42.571266 303.610864 
L 40.455194 308.283857 
L 34.518434 320.186766 
L 33.357533 322.758382 
L 31.770479 326.990527 
L 30.506713 331.648826 
L 30.095255 333.808983 
L 29.536847 339.716353 
L 29.610321 344.712635 
L 30.154035 349.753002 
L 31.079816 354.778675 
L 33.034244 362.846202 
L 35.165012 370.987203 
L 35.929149 373.514734 
L 37.383949 377.790964 
L 38.868139 381.200192 
L 40.220074 383.830588 
L 42.453707 387.504325 
L 45.81885 392.074454 
L 48.449246 395.145699 
L 50.697573 397.49689 
L 57.736453 404.124312 
L 62.673956 408.547492 
L 67.11183 412.04489 
L 80.778133 422.257879 
L 82.027203 422.963236 
L 83.173409 423.286525 
L 84.025716 423.36 
L 85.921365 423.022016 
L 86.788366 422.625253 
L 87.625979 422.037455 
L 88.595845 421.008808 
L 89.154253 420.112416 
L 89.712661 418.290243 
L 89.800831 417.437936 
L 89.742051 415.953746 
L 88.7281 410.972158 
L 86.847146 402.052325 
L 85.627466 396.086175 
L 82.717866 383.066451 
L 81.086726 375.939401 
L 77.442379 359.539838 
L 76.399038 355.586897 
L 74.033151 347.886744 
L 71.44684 340.083726 
L 70.447584 337.232906 
L 70.447584 337.232906 
" clip-path="url(#p055b6e1d31)" style="fill: none; stroke: #ff1801; stroke-opacity: 0.3; stroke-width: 10; stroke-linecap: square"/>
   </g>
   <g id="line2d_2">
    <path d="M 69.947955 335.851581 
L 57.618894 302.214844 
L 56.281653 297.556545 
L 51.358845 279.525843 
L 50.15386 275.602292 
L 49.566062 274.132797 
L 48.787229 272.604522 
L 48.184736 271.752215 
L 46.950361 270.664789 
L 45.142882 270.106381 
L 41.292806 270.694179 
L 39.838006 270.48845 
L 39.250208 270.165161 
L 38.456681 269.356939 
L 38.236256 268.960175 
L 37.898272 267.975613 
L 37.795408 266.432644 
L 37.839493 265.389302 
L 38.324426 261.436361 
L 40.17599 252.090374 
L 40.440499 249.283639 
L 40.469888 246.844277 
L 40.014345 241.789215 
L 36.340608 212.972421 
L 35.855675 207.711629 
L 35.69403 207.094441 
L 34.929893 205.624946 
L 33.886551 204.74325 
L 32.8726 204.214231 
L 29.301728 202.671262 
L 27.626503 201.598531 
L 25.892499 199.923306 
L 24.687514 198.277472 
L 23.673562 196.455298 
L 22.909425 194.64782 
L 22.439187 193.10485 
L 22.042423 191.121032 
L 21.866084 189.563368 
L 21.836694 186.800717 
L 21.968948 185.081408 
L 22.218762 183.553134 
L 23.218019 180.467194 
L 26.083534 175.162318 
L 27.068095 171.855955 
L 27.273825 169.107999 
L 26.832976 164.846464 
L 25.71616 160.452674 
L 24.305445 156.470343 
L 23.394358 155.103713 
L 21.146031 153.399099 
L 18.6185 152.003079 
L 17.207785 150.504194 
L 16.311393 148.755495 
L 15.694205 146.360219 
L 15.356221 142.921601 
L 15.341526 138.96866 
L 15.488476 136.352959 
L 15.944019 133.164155 
L 16.811021 130.401504 
L 18.721365 127.315565 
L 21.954253 124.582305 
L 24.26136 123.259759 
L 28.375946 120.717533 
L 29.580932 119.394988 
L 30.624273 117.631594 
L 31.403105 115.471437 
L 31.697004 114.222366 
L 32.681566 108.755845 
L 34.195145 102.775001 
L 35.81159 97.323175 
L 36.649202 93.649438 
L 37.29578 88.917665 
L 37.986442 82.495972 
L 38.295036 78.763455 
L 38.60363 71.930304 
L 38.353816 61.864264 
L 37.472119 43.730698 
L 37.20761 39.807146 
L 36.458168 33.958557 
L 35.66464 29.711717 
L 34.577214 26.037979 
L 33.431008 23.921907 
L 32.387667 22.643446 
L 31.550055 21.879309 
L 30.609578 21.232731 
L 27.567724 20.174695 
L 26.421518 20.16 
L 24.907938 20.512679 
L 23.820512 21.027002 
L 22.101203 22.349547 
L 21.028471 23.642703 
L 20.161469 25.141588 
L 19.309162 27.595644 
L 18.897704 30.152565 
L 18.809534 31.636755 
L 18.838924 34.208371 
L 18.985874 36.148104 
L 19.338552 38.469906 
L 19.999825 40.982742 
L 20.617013 42.643271 
L 21.660354 44.700564 
L 24.17319 48.653505 
L 25.613295 51.151647 
L 26.450908 52.841566 
L 27.376689 55.207452 
L 28.170216 58.102357 
L 28.53759 60.042091 
L 28.890269 62.907606 
L 29.198863 67.845108 
L 29.095998 71.474761 
L 28.743319 74.648869 
L 28.405336 76.471043 
L 27.464859 80.056611 
L 26.539077 82.687006 
L 25.290007 85.596606 
L 22.439187 91.900739 
L 21.32237 94.986678 
L 20.234944 99.424553 
L 19.191603 105.346617 
L 18.70667 106.698552 
L 17.486989 108.638286 
L 16.752241 109.373033 
L 14.856593 110.460459 
L 10.668533 111.239291 
L 9.022698 112.062209 
L 7.053575 114.251756 
L 5.892674 116.426608 
L 5.393046 117.866713 
L 4.922808 119.835836 
L 4.496654 123.05403 
L 4.349705 125.155408 
L 4.290925 130.592539 
L 4.39379 134.163411 
L 4.672994 137.36691 
L 5.393046 141.67253 
L 6.069014 144.46457 
L 7.259305 148.226477 
L 9.272513 153.237455 
L 10.933042 157.087531 
L 13.181369 162.921426 
L 14.43044 167.153571 
L 15.282747 170.988953 
L 15.973409 175.779506 
L 16.223223 178.96831 
L 16.561207 187.388515 
L 16.987361 191.65005 
L 17.472294 194.927024 
L 18.001312 197.674979 
L 18.6185 200.158426 
L 19.294468 202.377363 
L 20.440674 205.389827 
L 23.188629 210.871043 
L 27.317909 217.909923 
L 29.110693 221.745305 
L 30.874087 226.770977 
L 31.608834 229.621798 
L 32.314192 233.031026 
L 32.78443 235.940625 
L 33.225279 239.658447 
L 33.592653 245.286613 
L 33.504483 250.826608 
L 33.357533 253.221885 
L 32.90199 257.718539 
L 31.579445 267.299646 
L 31.56475 268.475242 
L 31.770479 270.223941 
L 32.608091 272.207759 
L 33.372228 273.236405 
L 37.222305 276.513379 
L 39.029784 277.938789 
L 40.234769 279.026215 
L 41.909993 281.142287 
L 42.747606 282.846901 
L 43.364793 284.816024 
L 43.717472 286.682283 
L 43.937896 288.533846 
L 44.2171 292.428008 
L 44.158321 295.763761 
L 43.761557 299.143599 
L 43.129674 301.96503 
L 42.571266 303.610864 
L 40.455194 308.283857 
L 34.518434 320.186766 
L 33.357533 322.758382 
L 31.770479 326.990527 
L 30.506713 331.648826 
L 30.095255 333.808983 
L 29.536847 339.716353 
L 29.610321 344.712635 
L 30.154035 349.753002 
L 31.079816 354.778675 
L 33.034244 362.846202 
L 35.165012 370.987203 
L 35.929149 373.514734 
L 37.383949 377.790964 
L 38.868139 381.200192 
L 40.220074 383.830588 
L 42.453707 387.504325 
L 45.81885 392.074454 
L 48.449246 395.145699 
L 50.697573 397.49689 
L 57.736453 404.124312 
L 62.673956 408.547492 
L 67.11183 412.04489 
L 80.778133 422.257879 
L 82.027203 422.963236 
L 83.173409 423.286525 
L 84.025716 423.36 
L 85.921365 423.022016 
L 86.788366 422.625253 
L 87.625979 422.037455 
L 88.595845 421.008808 
L 89.154253 420.112416 
L 89.712661 418.290243 
L 89.800831 417.437936 
L 89.742051 415.953746 
L 88.7281 410.972158 
L 86.847146 402.052325 
L 85.627466 396.086175 
L 82.717866 383.066451 
L 81.086726 375.939401 
L 77.442379 359.539838 
L 76.399038 355.586897 
L 74.033151 347.886744 
L 71.44684 340.083726 
L 70.447584 337.232906 
L 70.447584 337.232906 
" clip-path="url(#p055b6e1d31)" style="fill: none; stroke: #ff1801; stroke-width: 3; stroke-linecap: square"/>
   </g>
  </g>
 </g>
 <defs>
  <clipPath id="p055b6e1d31">
   <rect x="0" y="-0" width="94.077061" height="443.52"/>
  </clipPath>
 </defs>
</svg>
