<?xml version="1.0" encoding="utf-8" standalone="no"?>
<!DOCTYPE svg PUBLIC "-//W3C//DTD SVG 1.1//EN"
  "http://www.w3.org/Graphics/SVG/1.1/DTD/svg11.dtd">
<svg xmlns:xlink="http://www.w3.org/1999/xlink" width="446.4pt" height="279pt" viewBox="0 0 446.4 279" xmlns="http://www.w3.org/2000/svg" version="1.1">
 <metadata>
  <rdf:RDF xmlns:dc="http://purl.org/dc/elements/1.1/" xmlns:cc="http://creativecommons.org/ns#" xmlns:rdf="http://www.w3.org/1999/02/22-rdf-syntax-ns#">
   <cc:Work>
    <dc:type rdf:resource="http://purl.org/dc/dcmitype/StillImage"/>
    <dc:date>2026-02-12T12:54:53.565314</dc:date>
    <dc:format>image/svg+xml</dc:format>
    <dc:creator>
     <cc:Agent>
      <dc:title>Matplotlib v3.9.2, https://matplotlib.org/</dc:title>
     </cc:Agent>
    </dc:creator>
   </cc:Work>
  </rdf:RDF>
 </metadata>
 <defs>
  <style type="text/css">*{stroke-linejoin: round; stroke-linecap: butt}</style>
 </defs>
 <g id="figure_1">
  <g id="patch_1">
   <path d="M 0 279 
L 446.4 279 
L 446.4 0 
L 0 0 
L 0 279 
z
" style="fill: none"/>
  </g>
  <g id="axes_1">
   <g id="line2d_1">
    <path d="M 420.695174 127.304588 
L 418.072808 110.019531 
L 416.268169 97.274269 
L 412.969064 71.473571 
L 410.290303 48.238845 
L 409.134206 40.992092 
L 408.485664 38.031356 
L 407.385962 34.365683 
L 405.242953 30.47443 
L 401.267108 27.147127 
L 398.67294 26.160215 
L 396.445338 25.624463 
L 393.259023 25.004118 
L 390.382879 24.327379 
L 387.478539 23.284072 
L 384.715185 21.592223 
L 378.906504 16.742256 
L 376.199545 14.627445 
L 374.253919 13.471348 
L 372.167305 12.794608 
L 370.334469 12.681818 
L 368.811805 12.935596 
L 366.217636 14.204482 
L 364.61038 15.811739 
L 363.426085 17.672773 
L 362.072606 21.225656 
L 361.536854 23.340467 
L 361.085694 26.047425 
L 360.634534 31.630527 
L 360.803719 35.465385 
L 361.818829 42.176386 
L 362.664753 45.419096 
L 364.469392 50.663828 
L 367.119956 57.290237 
L 372.844045 71.050609 
L 373.943747 73.870357 
L 376.14315 80.045606 
L 377.863197 85.685103 
L 378.878306 89.886528 
L 379.583243 93.552201 
L 380.090798 97.443453 
L 380.28818 100.714362 
L 380.28818 106.212871 
L 379.696033 110.668073 
L 378.906504 113.121254 
L 376.509718 116.927914 
L 374.705079 118.591566 
L 372.78765 119.747663 
L 368.727212 121.411314 
L 364.49759 122.482819 
L 361.677841 122.962176 
L 356.912467 123.441533 
L 352.288079 123.610718 
L 344.956734 123.356941 
L 318.479297 120.988352 
L 267.385457 116.927914 
L 256.839598 115.74362 
L 253.173925 115.151473 
L 247.252453 113.882586 
L 243.192016 112.698292 
L 237.467927 110.555283 
L 231.856627 107.876522 
L 225.935156 104.633812 
L 215.586679 98.458563 
L 198.10424 87.715322 
L 186.599666 80.214791 
L 177.209904 73.898555 
L 172.7829 71.163399 
L 168.271302 69.189575 
L 165.451554 68.287256 
L 162.603608 67.666911 
L 160.347809 67.441331 
L 157.020506 67.948886 
L 155.892607 68.343651 
L 151.4938 71.501769 
L 150.309505 72.742458 
L 148.561261 74.800874 
L 146.502845 77.507833 
L 144.444429 80.524963 
L 141.342706 85.290338 
L 138.83313 90.30949 
L 135.646814 97.302466 
L 132.742473 104.069862 
L 131.360796 106.833215 
L 129.75354 109.427384 
L 128.794825 110.668073 
L 126.144262 112.782884 
L 125.15735 113.121254 
L 122.478589 112.923872 
L 121.294295 112.359922 
L 118.841114 110.583481 
L 117.966992 109.793951 
L 114.470504 105.987291 
L 107.251948 96.682121 
L 104.911557 93.918768 
L 101.838031 90.563267 
L 98.341543 87.179569 
L 94.90145 84.641796 
L 92.391874 83.231922 
L 89.149164 81.991233 
L 85.793663 81.258098 
L 84.496579 81.201703 
L 81.564041 81.56827 
L 79.364637 82.414195 
L 77.785578 83.231922 
L 76.121926 84.303426 
L 74.599262 85.60051 
L 71.892304 88.645839 
L 68.198433 94.059755 
L 65.632462 98.571353 
L 63.038294 103.53411 
L 59.316226 111.429405 
L 55.312184 119.183713 
L 52.09767 125.04879 
L 31.118743 161.141569 
L 26.55075 168.021755 
L 23.843792 172.505154 
L 21.362413 177.129542 
L 20.290909 181.415559 
L 20.290909 183.41758 
L 20.770266 186.632094 
L 21.136834 188.01377 
L 21.898166 190.269569 
L 22.74409 192.186998 
L 23.674607 193.850649 
L 25.930406 196.924175 
L 28.101612 198.954394 
L 29.765264 200.166886 
L 31.5981 201.266587 
L 34.812613 202.817449 
L 40.254727 204.734878 
L 44.117783 206.539517 
L 46.035211 208.597933 
L 47.557876 211.840644 
L 48.460195 215.337132 
L 50.744191 227.772222 
L 51.223548 229.238491 
L 52.830805 231.945449 
L 55.086604 234.285841 
L 58.357512 237.077391 
L 65.294093 242.632296 
L 70.792602 247.369473 
L 73.189388 249.709864 
L 74.683855 251.345318 
L 76.573086 253.685709 
L 78.716095 256.81563 
L 81.930608 261.778387 
L 84.552974 264.682728 
L 85.596281 265.415862 
L 87.880277 266.318182 
L 89.572126 266.120799 
L 91.122988 265.21848 
L 91.77153 264.485345 
L 92.561059 263.329249 
L 93.068614 262.342337 
L 94.111921 259.297008 
L 94.986043 255.377558 
L 95.719177 251.288923 
L 96.536904 245.311057 
L 97.749396 236.203269 
L 98.341543 232.227424 
L 100.879317 218.974607 
L 102.655758 209.556648 
L 104.939754 196.444818 
L 109.817919 172.194982 
L 112.38389 162.184875 
L 115.795786 151.469832 
L 117.121067 147.634974 
L 120.589358 138.217015 
L 122.845156 132.521123 
L 125.129153 128.094118 
L 127.187569 125.753727 
L 128.907615 124.766815 
L 130.571267 124.37205 
L 132.657881 124.456643 
L 134.659902 125.04879 
L 137.141281 126.289479 
L 139.143302 127.642958 
L 142.527 130.265324 
L 147.602547 134.579539 
L 152.339724 138.837359 
L 157.810036 143.997499 
L 164.859407 150.003563 
L 173.093072 156.770959 
L 177.012522 159.647102 
L 182.539229 163.0308 
L 187.163616 165.202006 
L 195.199899 167.598792 
L 203.461762 168.670297 
L 220.972399 169.769998 
L 254.724786 171.969402 
L 271.107524 172.815327 
L 278.692647 173.012709 
L 297.979726 173.492066 
L 309.625287 174.168806 
L 314.785426 174.704558 
L 317.717965 175.381298 
L 320.763293 176.903962 
L 322.483339 179.216155 
L 323.188276 181.443757 
L 323.724029 183.727753 
L 324.964718 187.590808 
L 326.149012 190.072187 
L 327.023134 191.623048 
L 329.109748 194.442797 
L 330.350437 195.683486 
L 333.254778 197.854692 
L 337.230623 199.602936 
L 341.121876 200.56165 
L 343.321279 200.956415 
L 346.78957 201.322982 
L 349.186356 201.46397 
L 375.381818 202.056117 
L 387.168366 202.817449 
L 392.610481 203.155819 
L 401.80286 203.184016 
L 406.991197 202.338092 
L 410.43129 200.956415 
L 411.277215 200.44886 
L 414.23795 198.136667 
L 418.49577 193.06112 
L 421.710283 187.6754 
L 422.6408 185.757972 
L 424.304452 181.387362 
L 425.065784 178.539416 
L 425.686129 175.268508 
L 426.109091 170.75691 
L 426.109091 163.933119 
L 425.601536 158.068043 
L 424.783809 152.174769 
L 422.668998 139.542296 
L 422.668998 139.542296 
" clip-path="url(#p271f8e4802)" style="fill: none; stroke: #ff1801; stroke-opacity: 0.3; stroke-width: 10; stroke-linecap: square"/>
   </g>
   <g id="line2d_2">
    <path d="M 420.695174 127.304588 
L 418.072808 110.019531 
L 416.268169 97.274269 
L 412.969064 71.473571 
L 410.290303 48.238845 
L 409.134206 40.992092 
L 408.485664 38.031356 
L 407.385962 34.365683 
L 405.242953 30.47443 
L 401.267108 27.147127 
L 398.67294 26.160215 
L 396.445338 25.624463 
L 393.259023 25.004118 
L 390.382879 24.327379 
L 387.478539 23.284072 
L 384.715185 21.592223 
L 378.906504 16.742256 
L 376.199545 14.627445 
L 374.253919 13.471348 
L 372.167305 12.794608 
L 370.334469 12.681818 
L 368.811805 12.935596 
L 366.217636 14.204482 
L 364.61038 15.811739 
L 363.426085 17.672773 
L 362.072606 21.225656 
L 361.536854 23.340467 
L 361.085694 26.047425 
L 360.634534 31.630527 
L 360.803719 35.465385 
L 361.818829 42.176386 
L 362.664753 45.419096 
L 364.469392 50.663828 
L 367.119956 57.290237 
L 372.844045 71.050609 
L 373.943747 73.870357 
L 376.14315 80.045606 
L 377.863197 85.685103 
L 378.878306 89.886528 
L 379.583243 93.552201 
L 380.090798 97.443453 
L 380.28818 100.714362 
L 380.28818 106.212871 
L 379.696033 110.668073 
L 378.906504 113.121254 
L 376.509718 116.927914 
L 374.705079 118.591566 
L 372.78765 119.747663 
L 368.727212 121.411314 
L 364.49759 122.482819 
L 361.677841 122.962176 
L 356.912467 123.441533 
L 352.288079 123.610718 
L 344.956734 123.356941 
L 318.479297 120.988352 
L 267.385457 116.927914 
L 256.839598 115.74362 
L 253.173925 115.151473 
L 247.252453 113.882586 
L 243.192016 112.698292 
L 237.467927 110.555283 
L 231.856627 107.876522 
L 225.935156 104.633812 
L 215.586679 98.458563 
L 198.10424 87.715322 
L 186.599666 80.214791 
L 177.209904 73.898555 
L 172.7829 71.163399 
L 168.271302 69.189575 
L 165.451554 68.287256 
L 162.603608 67.666911 
L 160.347809 67.441331 
L 157.020506 67.948886 
L 155.892607 68.343651 
L 151.4938 71.501769 
L 150.309505 72.742458 
L 148.561261 74.800874 
L 146.502845 77.507833 
L 144.444429 80.524963 
L 141.342706 85.290338 
L 138.83313 90.30949 
L 135.646814 97.302466 
L 132.742473 104.069862 
L 131.360796 106.833215 
L 129.75354 109.427384 
L 128.794825 110.668073 
L 126.144262 112.782884 
L 125.15735 113.121254 
L 122.478589 112.923872 
L 121.294295 112.359922 
L 118.841114 110.583481 
L 117.966992 109.793951 
L 114.470504 105.987291 
L 107.251948 96.682121 
L 104.911557 93.918768 
L 101.838031 90.563267 
L 98.341543 87.179569 
L 94.90145 84.641796 
L 92.391874 83.231922 
L 89.149164 81.991233 
L 85.793663 81.258098 
L 84.496579 81.201703 
L 81.564041 81.56827 
L 79.364637 82.414195 
L 77.785578 83.231922 
L 76.121926 84.303426 
L 74.599262 85.60051 
L 71.892304 88.645839 
L 68.198433 94.059755 
L 65.632462 98.571353 
L 63.038294 103.53411 
L 59.316226 111.429405 
L 55.312184 119.183713 
L 52.09767 125.04879 
L 31.118743 161.141569 
L 26.55075 168.021755 
L 23.843792 172.505154 
L 21.362413 177.129542 
L 20.290909 181.415559 
L 20.290909 183.41758 
L 20.770266 186.632094 
L 21.136834 188.01377 
L 21.898166 190.269569 
L 22.74409 192.186998 
L 23.674607 193.850649 
L 25.930406 196.924175 
L 28.101612 198.954394 
L 29.765264 200.166886 
L 31.5981 201.266587 
L 34.812613 202.817449 
L 40.254727 204.734878 
L 44.117783 206.539517 
L 46.035211 208.597933 
L 47.557876 211.840644 
L 48.460195 215.337132 
L 50.744191 227.772222 
L 51.223548 229.238491 
L 52.830805 231.945449 
L 55.086604 234.285841 
L 58.357512 237.077391 
L 65.294093 242.632296 
L 70.792602 247.369473 
L 73.189388 249.709864 
L 74.683855 251.345318 
L 76.573086 253.685709 
L 78.716095 256.81563 
L 81.930608 261.778387 
L 84.552974 264.682728 
L 85.596281 265.415862 
L 87.880277 266.318182 
L 89.572126 266.120799 
L 91.122988 265.21848 
L 91.77153 264.485345 
L 92.561059 263.329249 
L 93.068614 262.342337 
L 94.111921 259.297008 
L 94.986043 255.377558 
L 95.719177 251.288923 
L 96.536904 245.311057 
L 97.749396 236.203269 
L 98.341543 232.227424 
L 100.879317 218.974607 
L 102.655758 209.556648 
L 104.939754 196.444818 
L 109.817919 172.194982 
L 112.38389 162.184875 
L 115.795786 151.469832 
L 117.121067 147.634974 
L 120.589358 138.217015 
L 122.845156 132.521123 
L 125.129153 128.094118 
L 127.187569 125.753727 
L 128.907615 124.766815 
L 130.571267 124.37205 
L 132.657881 124.456643 
L 134.659902 125.04879 
L 137.141281 126.289479 
L 139.143302 127.642958 
L 142.527 130.265324 
L 147.602547 134.579539 
L 152.339724 138.837359 
L 157.810036 143.997499 
L 164.859407 150.003563 
L 173.093072 156.770959 
L 177.012522 159.647102 
L 182.539229 163.0308 
L 187.163616 165.202006 
L 195.199899 167.598792 
L 203.461762 168.670297 
L 220.972399 169.769998 
L 254.724786 171.969402 
L 271.107524 172.815327 
L 278.692647 173.012709 
L 297.979726 173.492066 
L 309.625287 174.168806 
L 314.785426 174.704558 
L 317.717965 175.381298 
L 320.763293 176.903962 
L 322.483339 179.216155 
L 323.188276 181.443757 
L 323.724029 183.727753 
L 324.964718 187.590808 
L 326.149012 190.072187 
L 327.023134 191.623048 
L 329.109748 194.442797 
L 330.350437 195.683486 
L 333.254778 197.854692 
L 337.230623 199.602936 
L 341.121876 200.56165 
L 343.321279 200.956415 
L 346.78957 201.322982 
L 349.186356 201.46397 
L 375.381818 202.056117 
L 387.168366 202.817449 
L 392.610481 203.155819 
L 401.80286 203.184016 
L 406.991197 202.338092 
L 410.43129 200.956415 
L 411.277215 200.44886 
L 414.23795 198.136667 
L 418.49577 193.06112 
L 421.710283 187.6754 
L 422.6408 185.757972 
L 424.304452 181.387362 
L 425.065784 178.539416 
L 425.686129 175.268508 
L 426.109091 170.75691 
L 426.109091 163.933119 
L 425.601536 158.068043 
L 424.783809 152.174769 
L 422.668998 139.542296 
L 422.668998 139.542296 
" clip-path="url(#p271f8e4802)" style="fill: none; stroke: #ff1801; stroke-width: 3; stroke-linecap: square"/>
   </g>
  </g>
 </g>
 <defs>
  <clipPath id="p271f8e4802">
   <rect x="0" y="0" width="446.4" height="279"/>
  </clipPath>
 </defs>
</svg>
