<?xml version="1.0" encoding="utf-8" standalone="no"?>
<!DOCTYPE svg PUBLIC "-//W3C//DTD SVG 1.1//EN"
  "http://www.w3.org/Graphics/SVG/1.1/DTD/svg11.dtd">
<svg xmlns:xlink="http://www.w3.org/1999/xlink" width="279.022773pt" height="443.52pt" viewBox="0 0 279.022773 443.52" xmlns="http://www.w3.org/2000/svg" version="1.1">
 <metadata>
  <rdf:RDF xmlns:dc="http://purl.org/dc/elements/1.1/" xmlns:cc="http://creativecommons.org/ns#" xmlns:rdf="http://www.w3.org/1999/02/22-rdf-syntax-ns#">
   <cc:Work>
    <dc:type rdf:resource="http://purl.org/dc/dcmitype/StillImage"/>
    <dc:date>2026-02-12T12:55:19.940380</dc:date>
    <dc:format>image/svg+xml</dc:format>
    <dc:creator>
     <cc:Agent>
      <dc:title>Matplotlib v3.9.2, https://matplotlib.org/</dc:title>
     </cc:Agent>
    </dc:creator>
   </cc:Work>
  </rdf:RDF>
 </metadata>
 <defs>
  <style type="text/css">*{stroke-linejoin: round; stroke-linecap: butt}</style>
 </defs>
 <g id="figure_1">
  <g id="patch_1">
   <path d="M 0 443.52 
L 279.022773 443.52 
L 279.022773 0 
L 0 0 
L 0 443.52 
z
" style="fill: none"/>
  </g>
  <g id="axes_1">
   <g id="line2d_1">
    <path d="M 32.645168 305.291629 
L 35.242207 315.524738 
L 48.227402 364.054482 
L 51.677201 376.535774 
L 54.623096 386.730121 
L 57.297658 395.141427 
L 59.894697 402.19607 
L 62.879354 408.74681 
L 64.623634 411.847752 
L 65.864011 413.824603 
L 67.181911 415.685168 
L 70.089044 418.902396 
L 72.18218 420.646676 
L 74.081507 421.809529 
L 77.996447 423.204953 
L 81.640054 423.36 
L 83.30681 423.127429 
L 85.244899 422.507241 
L 88.423365 420.879246 
L 90.516501 419.406299 
L 95.400485 415.220027 
L 97.997524 412.933082 
L 102.145034 409.677093 
L 106.835209 407.118816 
L 112.494428 406.188533 
L 115.517847 406.692436 
L 118.269933 407.545195 
L 120.246783 408.281669 
L 128.968183 411.886514 
L 133.503311 413.592032 
L 136.836824 414.716124 
L 141.410713 415.878977 
L 146.682315 416.731736 
L 152.922961 417.04183 
L 156.799139 416.770498 
L 162.380834 416.15031 
L 166.722153 415.220027 
L 170.637093 414.018412 
L 177.032786 411.305087 
L 181.722961 408.708048 
L 186.606945 405.374536 
L 191.645976 401.11074 
L 192.963876 399.831602 
L 196.413674 396.149233 
L 199.398331 392.466864 
L 201.879085 388.900781 
L 205.871548 382.039946 
L 207.189448 379.326622 
L 210.988102 369.171036 
L 212.306003 364.635908 
L 215.600754 352.038331 
L 226.415289 307.927429 
L 229.671279 294.477093 
L 236.68716 266.684899 
L 245.834939 231.295397 
L 256.029287 192.921238 
L 264.285545 163.190956 
L 265.91354 155.4386 
L 266.339919 149.159192 
L 266.184872 145.748156 
L 265.874778 143.073594 
L 264.285545 137.026756 
L 262.773836 133.887052 
L 261.300888 131.716393 
L 258.703849 129.04183 
L 257.463472 128.034024 
L 252.695774 125.010606 
L 249.98245 123.770229 
L 247.346649 122.839946 
L 238.586487 120.630525 
L 233.082315 119.700242 
L 227.539381 119.235101 
L 223.779489 119.157577 
L 215.329421 119.351386 
L 210.212867 119.932813 
L 205.406406 120.824334 
L 201.103849 122.142234 
L 191.645976 126.6386 
L 185.095236 131.096205 
L 180.792678 134.623526 
L 176.645168 138.460942 
L 172.11004 143.383688 
L 165.132921 152.957847 
L 137.301965 192.649906 
L 118.386218 220.790956 
L 113.075855 228.620834 
L 109.238439 233.931198 
L 106.87397 236.877093 
L 98.230094 244.862019 
L 96.17572 246.218681 
L 91.214213 248.660673 
L 87.105464 249.978573 
L 83.694428 250.753809 
L 80.322153 251.257712 
L 75.128075 251.567806 
L 71.406945 251.373997 
L 69.197524 251.063903 
L 63.925922 249.668479 
L 59.507079 247.769152 
L 55.088237 245.249637 
L 49.545303 240.559462 
L 45.010175 235.171575 
L 42.606945 231.489206 
L 40.901427 228.233217 
L 38.730767 223.000377 
L 37.025249 217.457443 
L 35.474778 210.674132 
L 34.815828 207.108048 
L 33.885545 200.983688 
L 33.381642 194.510471 
L 33.536689 189.238869 
L 34.311925 184.432409 
L 35.125922 181.370229 
L 35.552301 180.207376 
L 37.141534 176.951386 
L 38.808291 174.819489 
L 41.211521 173.269017 
L 43.188371 172.687591 
L 44.738843 172.493782 
L 47.607214 172.726353 
L 49.27397 173.152732 
L 52.10358 174.238062 
L 55.863472 176.098627 
L 58.731844 177.649098 
L 62.763069 179.625949 
L 64.739919 180.439946 
L 68.926191 181.680323 
L 72.375989 182.106703 
L 74.701696 182.029179 
L 77.104926 181.602799 
L 78.810444 181.021373 
L 81.368721 179.587187 
L 83.035478 178.230525 
L 84.508425 176.525007 
L 85.981373 173.966729 
L 86.756608 171.524738 
L 87.182988 168.268748 
L 87.144226 166.136851 
L 86.601561 162.687052 
L 85.981373 160.593917 
L 85.361184 158.92716 
L 84.043284 156.175074 
L 82.570336 153.616797 
L 80.864818 150.980996 
L 77.570067 146.833486 
L 65.592678 133.848291 
L 62.530498 130.088398 
L 58.615559 124.700511 
L 55.282046 119.42891 
L 52.374913 113.692167 
L 50.126729 108.071709 
L 48.808829 103.614105 
L 48.072355 99.466595 
L 47.917308 96.210606 
L 48.072355 93.148425 
L 48.343688 91.171575 
L 49.196447 88.186918 
L 49.816635 86.946541 
L 50.78568 85.512355 
L 53.964145 83.22541 
L 55.59214 82.837793 
L 58.809367 82.99284 
L 60.863742 83.535505 
L 62.181642 84.07817 
L 65.321346 85.861211 
L 66.600485 86.830256 
L 68.383526 88.341965 
L 70.244092 90.086245 
L 73.461319 93.574805 
L 77.298735 98.458789 
L 80.477201 102.683822 
L 83.810713 106.753809 
L 87.260511 110.552463 
L 90.94288 113.963499 
L 95.555532 116.831871 
L 99.819327 118.576151 
L 108.657012 120.475478 
L 111.215289 120.74681 
L 115.59537 120.940619 
L 120.479354 120.669287 
L 123.89039 120.08786 
L 131.487699 117.800915 
L 135.247591 116.134159 
L 140.67424 112.955693 
L 145.790794 108.846945 
L 148.349071 106.327429 
L 155.364953 97.140888 
L 157.92323 93.109664 
L 168.272624 75.628102 
L 179.629825 55.084361 
L 180.482584 53.029987 
L 181.722961 48.611144 
L 181.955532 45.355155 
L 181.761723 42.758116 
L 181.335343 40.975074 
L 180.056205 37.990417 
L 178.505734 35.509664 
L 175.521077 32.486245 
L 171.489852 29.772921 
L 166.450821 27.292167 
L 160.055128 24.850175 
L 154.822288 23.105895 
L 151.294966 22.136851 
L 145.441938 20.896474 
L 143.038708 20.58638 
L 137.457012 20.16 
L 127.844092 20.237524 
L 121.874778 20.857712 
L 118.037362 21.4779 
L 107.920538 23.493513 
L 101.834939 25.121507 
L 94.702773 27.408452 
L 87.958223 29.927968 
L 80.322153 33.416528 
L 73.69389 36.943849 
L 68.150956 40.393647 
L 62.336689 44.618681 
L 56.367376 49.735236 
L 54.739381 51.285707 
L 46.134266 60.937389 
L 40.242476 69.581265 
L 37.91677 73.651252 
L 35.474778 78.380188 
L 30.93965 88.690821 
L 27.528614 98.26498 
L 25.629287 104.583149 
L 23.536151 112.839408 
L 18.225787 136.871709 
L 16.442746 146.019489 
L 15.318654 152.841561 
L 14.427133 159.663634 
L 13.613136 167.22218 
L 13.186756 172.8814 
L 12.682853 183.618412 
L 12.682853 197.029987 
L 13.651898 213.0386 
L 14.34961 219.434293 
L 15.628748 229.008452 
L 16.869125 236.683284 
L 19.117308 248.776958 
L 20.47397 255.13389 
L 24.078816 270.987456 
L 30.203176 295.601184 
L 30.203176 295.601184 
" clip-path="url(#pa01d08cb52)" style="fill: none; stroke: #ff1801; stroke-opacity: 0.3; stroke-width: 10; stroke-linecap: square"/>
   </g>
   <g id="line2d_2">
    <path d="M 32.645168 305.291629 
L 35.242207 315.524738 
L 48.227402 364.054482 
L 51.677201 376.535774 
L 54.623096 386.730121 
L 57.297658 395.141427 
L 59.894697 402.19607 
L 62.879354 408.74681 
L 64.623634 411.847752 
L 65.864011 413.824603 
L 67.181911 415.685168 
L 70.089044 418.902396 
L 72.18218 420.646676 
L 74.081507 421.809529 
L 77.996447 423.204953 
L 81.640054 423.36 
L 83.30681 423.127429 
L 85.244899 422.507241 
L 88.423365 420.879246 
L 90.516501 419.406299 
L 95.400485 415.220027 
L 97.997524 412.933082 
L 102.145034 409.677093 
L 106.835209 407.118816 
L 112.494428 406.188533 
L 115.517847 406.692436 
L 118.269933 407.545195 
L 120.246783 408.281669 
L 128.968183 411.886514 
L 133.503311 413.592032 
L 136.836824 414.716124 
L 141.410713 415.878977 
L 146.682315 416.731736 
L 152.922961 417.04183 
L 156.799139 416.770498 
L 162.380834 416.15031 
L 166.722153 415.220027 
L 170.637093 414.018412 
L 177.032786 411.305087 
L 181.722961 408.708048 
L 186.606945 405.374536 
L 191.645976 401.11074 
L 192.963876 399.831602 
L 196.413674 396.149233 
L 199.398331 392.466864 
L 201.879085 388.900781 
L 205.871548 382.039946 
L 207.189448 379.326622 
L 210.988102 369.171036 
L 212.306003 364.635908 
L 215.600754 352.038331 
L 226.415289 307.927429 
L 229.671279 294.477093 
L 236.68716 266.684899 
L 245.834939 231.295397 
L 256.029287 192.921238 
L 264.285545 163.190956 
L 265.91354 155.4386 
L 266.339919 149.159192 
L 266.184872 145.748156 
L 265.874778 143.073594 
L 264.285545 137.026756 
L 262.773836 133.887052 
L 261.300888 131.716393 
L 258.703849 129.04183 
L 257.463472 128.034024 
L 252.695774 125.010606 
L 249.98245 123.770229 
L 247.346649 122.839946 
L 238.586487 120.630525 
L 233.082315 119.700242 
L 227.539381 119.235101 
L 223.779489 119.157577 
L 215.329421 119.351386 
L 210.212867 119.932813 
L 205.406406 120.824334 
L 201.103849 122.142234 
L 191.645976 126.6386 
L 185.095236 131.096205 
L 180.792678 134.623526 
L 176.645168 138.460942 
L 172.11004 143.383688 
L 165.132921 152.957847 
L 137.301965 192.649906 
L 118.386218 220.790956 
L 113.075855 228.620834 
L 109.238439 233.931198 
L 106.87397 236.877093 
L 98.230094 244.862019 
L 96.17572 246.218681 
L 91.214213 248.660673 
L 87.105464 249.978573 
L 83.694428 250.753809 
L 80.322153 251.257712 
L 75.128075 251.567806 
L 71.406945 251.373997 
L 69.197524 251.063903 
L 63.925922 249.668479 
L 59.507079 247.769152 
L 55.088237 245.249637 
L 49.545303 240.559462 
L 45.010175 235.171575 
L 42.606945 231.489206 
L 40.901427 228.233217 
L 38.730767 223.000377 
L 37.025249 217.457443 
L 35.474778 210.674132 
L 34.815828 207.108048 
L 33.885545 200.983688 
L 33.381642 194.510471 
L 33.536689 189.238869 
L 34.311925 184.432409 
L 35.125922 181.370229 
L 35.552301 180.207376 
L 37.141534 176.951386 
L 38.808291 174.819489 
L 41.211521 173.269017 
L 43.188371 172.687591 
L 44.738843 172.493782 
L 47.607214 172.726353 
L 49.27397 173.152732 
L 52.10358 174.238062 
L 55.863472 176.098627 
L 58.731844 177.649098 
L 62.763069 179.625949 
L 64.739919 180.439946 
L 68.926191 181.680323 
L 72.375989 182.106703 
L 74.701696 182.029179 
L 77.104926 181.602799 
L 78.810444 181.021373 
L 81.368721 179.587187 
L 83.035478 178.230525 
L 84.508425 176.525007 
L 85.981373 173.966729 
L 86.756608 171.524738 
L 87.182988 168.268748 
L 87.144226 166.136851 
L 86.601561 162.687052 
L 85.981373 160.593917 
L 85.361184 158.92716 
L 84.043284 156.175074 
L 82.570336 153.616797 
L 80.864818 150.980996 
L 77.570067 146.833486 
L 65.592678 133.848291 
L 62.530498 130.088398 
L 58.615559 124.700511 
L 55.282046 119.42891 
L 52.374913 113.692167 
L 50.126729 108.071709 
L 48.808829 103.614105 
L 48.072355 99.466595 
L 47.917308 96.210606 
L 48.072355 93.148425 
L 48.343688 91.171575 
L 49.196447 88.186918 
L 49.816635 86.946541 
L 50.78568 85.512355 
L 53.964145 83.22541 
L 55.59214 82.837793 
L 58.809367 82.99284 
L 60.863742 83.535505 
L 62.181642 84.07817 
L 65.321346 85.861211 
L 66.600485 86.830256 
L 68.383526 88.341965 
L 70.244092 90.086245 
L 73.461319 93.574805 
L 77.298735 98.458789 
L 80.477201 102.683822 
L 83.810713 106.753809 
L 87.260511 110.552463 
L 90.94288 113.963499 
L 95.555532 116.831871 
L 99.819327 118.576151 
L 108.657012 120.475478 
L 111.215289 120.74681 
L 115.59537 120.940619 
L 120.479354 120.669287 
L 123.89039 120.08786 
L 131.487699 117.800915 
L 135.247591 116.134159 
L 140.67424 112.955693 
L 145.790794 108.846945 
L 148.349071 106.327429 
L 155.364953 97.140888 
L 157.92323 93.109664 
L 168.272624 75.628102 
L 179.629825 55.084361 
L 180.482584 53.029987 
L 181.722961 48.611144 
L 181.955532 45.355155 
L 181.761723 42.758116 
L 181.335343 40.975074 
L 180.056205 37.990417 
L 178.505734 35.509664 
L 175.521077 32.486245 
L 171.489852 29.772921 
L 166.450821 27.292167 
L 160.055128 24.850175 
L 154.822288 23.105895 
L 151.294966 22.136851 
L 145.441938 20.896474 
L 143.038708 20.58638 
L 137.457012 20.16 
L 127.844092 20.237524 
L 121.874778 20.857712 
L 118.037362 21.4779 
L 107.920538 23.493513 
L 101.834939 25.121507 
L 94.702773 27.408452 
L 87.958223 29.927968 
L 80.322153 33.416528 
L 73.69389 36.943849 
L 68.150956 40.393647 
L 62.336689 44.618681 
L 56.367376 49.735236 
L 54.739381 51.285707 
L 46.134266 60.937389 
L 40.242476 69.581265 
L 37.91677 73.651252 
L 35.474778 78.380188 
L 30.93965 88.690821 
L 27.528614 98.26498 
L 25.629287 104.583149 
L 23.536151 112.839408 
L 18.225787 136.871709 
L 16.442746 146.019489 
L 15.318654 152.841561 
L 14.427133 159.663634 
L 13.613136 167.22218 
L 13.186756 172.8814 
L 12.682853 183.618412 
L 12.682853 197.029987 
L 13.651898 213.0386 
L 14.34961 219.434293 
L 15.628748 229.008452 
L 16.869125 236.683284 
L 19.117308 248.776958 
L 20.47397 255.13389 
L 24.078816 270.987456 
L 30.203176 295.601184 
L 30.203176 295.601184 
" clip-path="url(#pa01d08cb52)" style="fill: none; stroke: #ff1801; stroke-width: 3; stroke-linecap: square"/>
   </g>
  </g>
 </g>
 <defs>
  <clipPath id="pa01d08cb52">
   <rect x="0" y="-0" width="279.022773" height="443.52"/>
  </clipPath>
 </defs>
</svg>
