<?xml version="1.0" encoding="utf-8" standalone="no"?>
<!DOCTYPE svg PUBLIC "-//W3C//DTD SVG 1.1//EN"
  "http://www.w3.org/Graphics/SVG/1.1/DTD/svg11.dtd">
<svg xmlns:xlink="http://www.w3.org/1999/xlink" width="367.52843pt" height="443.52pt" viewBox="0 0 367.52843 443.52" xmlns="http://www.w3.org/2000/svg" version="1.1">
 <metadata>
  <rdf:RDF xmlns:dc="http://purl.org/dc/elements/1.1/" xmlns:cc="http://creativecommons.org/ns#" xmlns:rdf="http://www.w3.org/1999/02/22-rdf-syntax-ns#">
   <cc:Work>
    <dc:type rdf:resource="http://purl.org/dc/dcmitype/StillImage"/>
    <dc:date>2026-02-12T12:53:12.703409</dc:date>
    <dc:format>image/svg+xml</dc:format>
    <dc:creator>
     <cc:Agent>
      <dc:title>Matplotlib v3.9.2, https://matplotlib.org/</dc:title>
     </cc:Agent>
    </dc:creator>
   </cc:Work>
  </rdf:RDF>
 </metadata>
 <defs>
  <style type="text/css">*{stroke-linejoin: round; stroke-linecap: butt}</style>
 </defs>
 <g id="figure_1">
  <g id="patch_1">
   <path d="M 0 443.52 
L 367.52843 443.52 
L 367.52843 0 
L 0 0 
L 0 443.52 
z
" style="fill: none"/>
  </g>
  <g id="axes_1">
   <g id="line2d_1">
    <path d="M 292.864982 181.864165 
L 242.312874 261.203856 
L 221.591377 292.286102 
L 192.908097 335.1198 
L 187.588652 343.672633 
L 179.696404 357.266769 
L 168.744606 376.945238 
L 165.302613 382.820964 
L 161.40864 388.870529 
L 158.835837 392.451593 
L 154.42035 397.840573 
L 152.299526 400.0657 
L 146.180426 404.86363 
L 144.754954 405.663285 
L 141.521566 406.880152 
L 134.707114 407.158293 
L 129.422437 405.59375 
L 118.609709 400.726284 
L 113.046891 399.439883 
L 109.013848 399.613721 
L 104.7722 400.691517 
L 103.277192 401.247799 
L 98.409727 403.646764 
L 90.239338 409.070511 
L 86.693041 411.608547 
L 80.330568 415.780661 
L 76.749504 417.797182 
L 69.170165 421.204408 
L 64.198396 422.595113 
L 56.619057 423.36 
L 47.301337 422.316972 
L 43.859343 421.378246 
L 36.245236 418.075323 
L 31.343003 414.807167 
L 27.414262 411.087033 
L 22.477261 404.168278 
L 21.538536 402.39513 
L 18.235613 393.390318 
L 17.192584 387.862268 
L 16.740605 382.751429 
L 16.705838 376.076047 
L 17.714098 365.715299 
L 19.59155 355.9456 
L 20.877951 350.834761 
L 25.641114 338.492258 
L 28.005312 334.215842 
L 30.299974 330.530475 
L 37.149194 320.656473 
L 40.69549 315.75424 
L 47.092731 305.428259 
L 52.238338 296.805891 
L 55.436958 291.764587 
L 61.729896 282.481635 
L 68.440045 273.302985 
L 71.082383 270.382506 
L 75.915081 266.279928 
L 81.130223 263.707124 
L 86.310598 262.768399 
L 90.378408 263.04654 
L 93.924705 264.020033 
L 98.270656 266.210392 
L 101.017298 268.365984 
L 104.946038 273.024844 
L 106.962559 276.258232 
L 109.743968 283.385593 
L 110.230715 285.61072 
L 110.786997 292.286102 
L 109.917806 299.5873 
L 108.735708 303.620343 
L 106.37151 309.183161 
L 103.381495 314.120162 
L 96.427973 323.889861 
L 81.61697 344.159379 
L 78.209744 348.922542 
L 75.706476 352.677444 
L 72.890299 357.475375 
L 71.047616 361.230277 
L 69.135397 367.801356 
L 68.996327 370.235088 
L 69.413538 373.051265 
L 70.10889 374.998251 
L 71.847271 377.64059 
L 74.211468 379.657111 
L 76.193222 380.630604 
L 79.044167 381.360724 
L 84.467914 381.291189 
L 86.588738 380.83921 
L 90.726084 379.483273 
L 93.577029 378.196872 
L 99.869966 374.893948 
L 107.692679 370.6523 
L 114.437596 367.279841 
L 120.939139 364.428897 
L 130.25686 360.500157 
L 135.159093 358.135959 
L 139.192136 355.876064 
L 145.10263 351.947324 
L 150.004863 348.018584 
L 153.238251 344.993802 
L 157.61897 340.300174 
L 160.748056 336.440969 
L 164.676796 331.086757 
L 172.638579 319.509142 
L 176.011037 314.050627 
L 177.471277 310.295725 
L 177.958024 308.140133 
L 178.3057 305.254421 
L 178.131862 298.648575 
L 177.366974 295.241349 
L 173.716375 289.504693 
L 170.656825 286.862354 
L 165.963197 283.559431 
L 162.834112 281.09093 
L 159.044443 277.336028 
L 155.220005 271.842746 
L 151.152195 263.463751 
L 149.379046 259.500243 
L 133.142571 225.32368 
L 129.283366 213.572227 
L 128.900923 210.61698 
L 128.866155 204.49788 
L 130.25686 195.353998 
L 130.639303 193.893759 
L 132.447219 188.609082 
L 134.150832 184.923715 
L 140.756678 176.370882 
L 144.511581 173.728544 
L 151.743244 170.356085 
L 157.653738 168.061423 
L 165.789359 164.515126 
L 187.727723 154.189145 
L 207.962473 144.558517 
L 214.394481 141.325129 
L 232.821316 131.520662 
L 255.142123 119.630139 
L 264.772752 114.623603 
L 271.761042 111.390215 
L 276.141761 109.547531 
L 282.643304 106.93996 
L 290.605088 103.567502 
L 292.89975 102.385403 
L 295.437786 100.820861 
L 297.975821 98.769571 
L 299.992343 96.231536 
L 300.931068 94.319317 
L 301.626421 91.572676 
L 301.661188 88.965105 
L 300.200949 83.64566 
L 298.566871 80.690413 
L 297.732448 79.543082 
L 295.507321 77.109349 
L 293.838475 75.683877 
L 291.30044 74.154102 
L 287.3717 72.693862 
L 283.269121 71.894207 
L 280.626783 71.685601 
L 275.620247 71.824672 
L 271.309063 72.554792 
L 263.834026 75.19713 
L 257.471553 78.882497 
L 247.31941 85.731717 
L 244.155557 87.331027 
L 238.975183 89.243246 
L 233.308062 90.286274 
L 231.117703 90.390577 
L 226.111167 89.869063 
L 225.276744 89.660457 
L 221.278469 87.887309 
L 219.331482 86.392301 
L 216.44577 82.637399 
L 214.498784 77.144117 
L 214.185876 73.45875 
L 214.776925 68.521749 
L 215.472277 66.018481 
L 217.558334 61.324853 
L 222.112891 54.96238 
L 224.303251 52.702485 
L 230.839562 47.209202 
L 238.418901 41.298708 
L 248.883953 32.3982 
L 253.43851 28.712833 
L 256.393757 26.522473 
L 265.781012 21.655007 
L 274.542451 20.16 
L 281.461205 20.751049 
L 290.500785 23.35862 
L 295.124877 25.375142 
L 302.21747 29.234347 
L 308.684246 33.26739 
L 330.587842 47.417808 
L 336.533103 51.798527 
L 340.0794 55.031915 
L 343.347555 58.508676 
L 345.816056 61.742064 
L 348.249789 66.296622 
L 350.822592 75.996785 
L 350.648754 85.905555 
L 350.370613 87.470097 
L 346.476641 98.248057 
L 341.400569 106.974728 
L 310.735535 153.98054 
L 300.513857 169.869339 
L 300.513857 169.869339 
" clip-path="url(#p5d3f09f058)" style="fill: none; stroke: #ff1801; stroke-opacity: 0.3; stroke-width: 10; stroke-linecap: square"/>
   </g>
   <g id="line2d_2">
    <path d="M 292.864982 181.864165 
L 242.312874 261.203856 
L 221.591377 292.286102 
L 192.908097 335.1198 
L 187.588652 343.672633 
L 179.696404 357.266769 
L 168.744606 376.945238 
L 165.302613 382.820964 
L 161.40864 388.870529 
L 158.835837 392.451593 
L 154.42035 397.840573 
L 152.299526 400.0657 
L 146.180426 404.86363 
L 144.754954 405.663285 
L 141.521566 406.880152 
L 134.707114 407.158293 
L 129.422437 405.59375 
L 118.609709 400.726284 
L 113.046891 399.439883 
L 109.013848 399.613721 
L 104.7722 400.691517 
L 103.277192 401.247799 
L 98.409727 403.646764 
L 90.239338 409.070511 
L 86.693041 411.608547 
L 80.330568 415.780661 
L 76.749504 417.797182 
L 69.170165 421.204408 
L 64.198396 422.595113 
L 56.619057 423.36 
L 47.301337 422.316972 
L 43.859343 421.378246 
L 36.245236 418.075323 
L 31.343003 414.807167 
L 27.414262 411.087033 
L 22.477261 404.168278 
L 21.538536 402.39513 
L 18.235613 393.390318 
L 17.192584 387.862268 
L 16.740605 382.751429 
L 16.705838 376.076047 
L 17.714098 365.715299 
L 19.59155 355.9456 
L 20.877951 350.834761 
L 25.641114 338.492258 
L 28.005312 334.215842 
L 30.299974 330.530475 
L 37.149194 320.656473 
L 40.69549 315.75424 
L 47.092731 305.428259 
L 52.238338 296.805891 
L 55.436958 291.764587 
L 61.729896 282.481635 
L 68.440045 273.302985 
L 71.082383 270.382506 
L 75.915081 266.279928 
L 81.130223 263.707124 
L 86.310598 262.768399 
L 90.378408 263.04654 
L 93.924705 264.020033 
L 98.270656 266.210392 
L 101.017298 268.365984 
L 104.946038 273.024844 
L 106.962559 276.258232 
L 109.743968 283.385593 
L 110.230715 285.61072 
L 110.786997 292.286102 
L 109.917806 299.5873 
L 108.735708 303.620343 
L 106.37151 309.183161 
L 103.381495 314.120162 
L 96.427973 323.889861 
L 81.61697 344.159379 
L 78.209744 348.922542 
L 75.706476 352.677444 
L 72.890299 357.475375 
L 71.047616 361.230277 
L 69.135397 367.801356 
L 68.996327 370.235088 
L 69.413538 373.051265 
L 70.10889 374.998251 
L 71.847271 377.64059 
L 74.211468 379.657111 
L 76.193222 380.630604 
L 79.044167 381.360724 
L 84.467914 381.291189 
L 86.588738 380.83921 
L 90.726084 379.483273 
L 93.577029 378.196872 
L 99.869966 374.893948 
L 107.692679 370.6523 
L 114.437596 367.279841 
L 120.939139 364.428897 
L 130.25686 360.500157 
L 135.159093 358.135959 
L 139.192136 355.876064 
L 145.10263 351.947324 
L 150.004863 348.018584 
L 153.238251 344.993802 
L 157.61897 340.300174 
L 160.748056 336.440969 
L 164.676796 331.086757 
L 172.638579 319.509142 
L 176.011037 314.050627 
L 177.471277 310.295725 
L 177.958024 308.140133 
L 178.3057 305.254421 
L 178.131862 298.648575 
L 177.366974 295.241349 
L 173.716375 289.504693 
L 170.656825 286.862354 
L 165.963197 283.559431 
L 162.834112 281.09093 
L 159.044443 277.336028 
L 155.220005 271.842746 
L 151.152195 263.463751 
L 149.379046 259.500243 
L 133.142571 225.32368 
L 129.283366 213.572227 
L 128.900923 210.61698 
L 128.866155 204.49788 
L 130.25686 195.353998 
L 130.639303 193.893759 
L 132.447219 188.609082 
L 134.150832 184.923715 
L 140.756678 176.370882 
L 144.511581 173.728544 
L 151.743244 170.356085 
L 157.653738 168.061423 
L 165.789359 164.515126 
L 187.727723 154.189145 
L 207.962473 144.558517 
L 214.394481 141.325129 
L 232.821316 131.520662 
L 255.142123 119.630139 
L 264.772752 114.623603 
L 271.761042 111.390215 
L 276.141761 109.547531 
L 282.643304 106.93996 
L 290.605088 103.567502 
L 292.89975 102.385403 
L 295.437786 100.820861 
L 297.975821 98.769571 
L 299.992343 96.231536 
L 300.931068 94.319317 
L 301.626421 91.572676 
L 301.661188 88.965105 
L 300.200949 83.64566 
L 298.566871 80.690413 
L 297.732448 79.543082 
L 295.507321 77.109349 
L 293.838475 75.683877 
L 291.30044 74.154102 
L 287.3717 72.693862 
L 283.269121 71.894207 
L 280.626783 71.685601 
L 275.620247 71.824672 
L 271.309063 72.554792 
L 263.834026 75.19713 
L 257.471553 78.882497 
L 247.31941 85.731717 
L 244.155557 87.331027 
L 238.975183 89.243246 
L 233.308062 90.286274 
L 231.117703 90.390577 
L 226.111167 89.869063 
L 225.276744 89.660457 
L 221.278469 87.887309 
L 219.331482 86.392301 
L 216.44577 82.637399 
L 214.498784 77.144117 
L 214.185876 73.45875 
L 214.776925 68.521749 
L 215.472277 66.018481 
L 217.558334 61.324853 
L 222.112891 54.96238 
L 224.303251 52.702485 
L 230.839562 47.209202 
L 238.418901 41.298708 
L 248.883953 32.3982 
L 253.43851 28.712833 
L 256.393757 26.522473 
L 265.781012 21.655007 
L 274.542451 20.16 
L 281.461205 20.751049 
L 290.500785 23.35862 
L 295.124877 25.375142 
L 302.21747 29.234347 
L 308.684246 33.26739 
L 330.587842 47.417808 
L 336.533103 51.798527 
L 340.0794 55.031915 
L 343.347555 58.508676 
L 345.816056 61.742064 
L 348.249789 66.296622 
L 350.822592 75.996785 
L 350.648754 85.905555 
L 350.370613 87.470097 
L 346.476641 98.248057 
L 341.400569 106.974728 
L 310.735535 153.98054 
L 300.513857 169.869339 
L 300.513857 169.869339 
" clip-path="url(#p5d3f09f058)" style="fill: none; stroke: #ff1801; stroke-width: 3; stroke-linecap: square"/>
   </g>
  </g>
 </g>
 <defs>
  <clipPath id="p5d3f09f058">
   <rect x="0" y="-0" width="367.52843" height="443.52"/>
  </clipPath>
 </defs>
</svg>
