<?xml version="1.0" encoding="utf-8" standalone="no"?>
<!DOCTYPE svg PUBLIC "-//W3C//DTD SVG 1.1//EN"
  "http://www.w3.org/Graphics/SVG/1.1/DTD/svg11.dtd">
<svg xmlns:xlink="http://www.w3.org/1999/xlink" width="446.4pt" height="258.732308pt" viewBox="0 0 446.4 258.732308" xmlns="http://www.w3.org/2000/svg" version="1.1">
 <metadata>
  <rdf:RDF xmlns:dc="http://purl.org/dc/elements/1.1/" xmlns:cc="http://creativecommons.org/ns#" xmlns:rdf="http://www.w3.org/1999/02/22-rdf-syntax-ns#">
   <cc:Work>
    <dc:type rdf:resource="http://purl.org/dc/dcmitype/StillImage"/>
    <dc:date>2026-02-12T12:55:11.882532</dc:date>
    <dc:format>image/svg+xml</dc:format>
    <dc:creator>
     <cc:Agent>
      <dc:title>Matplotlib v3.9.2, https://matplotlib.org/</dc:title>
     </cc:Agent>
    </dc:creator>
   </cc:Work>
  </rdf:RDF>
 </metadata>
 <defs>
  <style type="text/css">*{stroke-linejoin: round; stroke-linecap: butt}</style>
 </defs>
 <g id="figure_1">
  <g id="patch_1">
   <path d="M 0 258.732308 
L 446.4 258.732308 
L 446.4 0 
L 0 0 
L 0 258.732308 
z
" style="fill: none"/>
  </g>
  <g id="axes_1">
   <g id="line2d_1">
    <path d="M 50.813986 167.038881 
L 76.481119 186.686434 
L 127.972028 226.160559 
L 133.342657 230.367552 
L 139.362238 234.954965 
L 142.248951 237.25986 
L 144.41958 239.206713 
L 151.244755 244.733986 
L 152.005594 245.271049 
L 154.220979 246.345175 
L 156.682517 246.904615 
L 158.047552 246.971748 
L 160.33007 246.30042 
L 161.672727 245.06965 
L 162.232168 244.174545 
L 162.746853 242.003916 
L 162.724476 240.638881 
L 162.276923 236.991329 
L 161.381818 232.448671 
L 160.88951 230.837483 
L 159.681119 228.062657 
L 155.80979 219.648671 
L 153.885315 214.568951 
L 152.833566 210.943776 
L 152.13986 207.967552 
L 151.871329 203.447273 
L 152.274126 200.18014 
L 152.855944 197.181538 
L 153.840559 193.713007 
L 156.123077 188.968951 
L 159.076923 184.560559 
L 161.001399 182.457063 
L 162.925874 180.733986 
L 164.962238 179.122797 
L 170.937063 175.184336 
L 184.60979 167.889231 
L 188.995804 164.778741 
L 194.411189 160.638881 
L 197.812587 157.438881 
L 200.565035 153.187133 
L 205.376224 144.706014 
L 208.911888 139.738182 
L 212.290909 136.605315 
L 218.4 133.494825 
L 221.868531 131.436084 
L 224.688112 128.236084 
L 226.567832 124.901818 
L 227.507692 122.485035 
L 230.058741 112.191329 
L 230.998601 109.796923 
L 233.169231 105.836084 
L 234.131469 104.538182 
L 238.830769 100.107413 
L 244.08951 96.773147 
L 248.229371 95.027692 
L 252.167832 94.177343 
L 256.934266 94.356364 
L 260.984615 95.408112 
L 264.251748 96.683636 
L 266.802797 97.824895 
L 271.904895 100.622098 
L 279.020979 103.173147 
L 282.48951 103.687832 
L 284.951049 103.464056 
L 288.128671 102.099021 
L 290.948252 100.353566 
L 293.87972 98.227692 
L 295.737063 96.415105 
L 297.482517 94.333986 
L 299.608392 91.559161 
L 304.576224 86.099021 
L 307.06014 84.241678 
L 311.2 82.72 
L 315.474126 82.876643 
L 319.211189 84.241678 
L 321.426573 85.718601 
L 324.111888 88.023497 
L 326.931469 90.887832 
L 328.699301 91.894825 
L 331.362238 92.70042 
L 334.226573 92.901818 
L 338.411189 92.543776 
L 342.73007 91.984336 
L 345.393007 91.424895 
L 355.865734 88.717203 
L 362.355245 86.77035 
L 367.703497 84.443077 
L 372.514685 82.115804 
L 376.072727 79.721399 
L 378.959441 76.968951 
L 381.241958 74.619301 
L 385.986014 69.092028 
L 395.116084 57.679441 
L 416.41958 31.60951 
L 420.716084 26.731189 
L 422.640559 24.403916 
L 423.66993 22.949371 
L 425.325874 19.794126 
L 425.93007 18.071049 
L 426.109091 16.213706 
L 425.907692 15.13958 
L 425.415385 14.132587 
L 424.654545 13.304615 
L 423.737063 12.678042 
L 422.416783 12.140979 
L 420.604196 11.805315 
L 419.776224 11.760559 
L 416.88951 11.961958 
L 413.555245 12.543776 
L 410.690909 13.349371 
L 406.662937 14.736783 
L 395.765035 18.742378 
L 377.661538 25.075245 
L 369.426573 27.805315 
L 356.917483 31.43049 
L 344.095105 34.943776 
L 326.304895 39.464056 
L 315.25035 42.082238 
L 297.169231 46.065455 
L 279.222378 49.623497 
L 262.528671 52.577343 
L 249.93007 54.658462 
L 239.569231 55.978741 
L 221.465734 57.903217 
L 174.495105 62.535385 
L 171.697902 63.251469 
L 169.773427 64.303217 
L 168.475524 65.243077 
L 167.66993 66.093427 
L 167.177622 66.921399 
L 166.774825 68.12979 
L 166.73007 70.926993 
L 167.401399 73.052867 
L 168.721678 75.581538 
L 170.109091 77.662657 
L 171.765035 79.60951 
L 174.092308 81.981538 
L 181.230769 88.784336 
L 184.363636 92.006713 
L 186.690909 94.938182 
L 187.966434 96.907413 
L 189.376224 100.017902 
L 189.913287 102.85986 
L 189.958042 104.448671 
L 189.823776 105.791329 
L 189.062937 108.073846 
L 188.346853 109.282238 
L 187.429371 110.445874 
L 186.467133 111.318601 
L 185.415385 111.945175 
L 184.072727 112.325594 
L 182.483916 112.504615 
L 179.440559 112.526993 
L 177.359441 112.236084 
L 174.853147 111.229091 
L 172.995804 110.154965 
L 170.646154 108.029091 
L 167.983217 104.985734 
L 166.707692 102.837483 
L 161.806993 93.841678 
L 158.92028 90.44028 
L 156.324476 87.956364 
L 154.802797 86.792727 
L 152.945455 85.696224 
L 150.506294 84.778741 
L 148.067133 84.487832 
L 146.634965 84.622098 
L 143.994406 85.472448 
L 142.047552 86.926993 
L 140.995804 88.538182 
L 140.727273 89.925594 
L 141.040559 92.208112 
L 142.002797 94.66965 
L 142.763636 96.034685 
L 146.970629 101.83049 
L 151.423776 107.424895 
L 152.632168 108.879441 
L 155.429371 112.683636 
L 157.040559 115.368951 
L 158.137063 117.517203 
L 159.278322 120.761958 
L 160.33007 124.901818 
L 160.620979 126.58014 
L 160.867133 130.093427 
L 160.620979 135.083636 
L 159.412587 139.805315 
L 157.264336 144.616503 
L 153.236364 149.740979 
L 149.834965 152.336783 
L 143.144056 155.514406 
L 138.847552 156.879441 
L 136.99021 157.304615 
L 132.111888 157.550769 
L 127.144056 157.058462 
L 122.892308 156.23049 
L 116 153.612308 
L 110.718881 150.501818 
L 106.914685 147.301818 
L 102.931469 142.378741 
L 100.626573 139.022098 
L 99.082517 136.068252 
L 95.569231 129.981538 
L 92.570629 125.237483 
L 89.191608 121.075245 
L 86.439161 118.255664 
L 83.932867 116.286434 
L 81.046154 114.585734 
L 78.808392 113.668252 
L 74.332867 112.996923 
L 70.148252 113.377343 
L 65.605594 114.697622 
L 46.651748 123.492028 
L 29.667133 130.518601 
L 27.205594 131.726993 
L 24.699301 133.315804 
L 23.28951 134.501818 
L 21.812587 136.157762 
L 20.581818 138.417902 
L 20.290909 141.058462 
L 20.716084 142.848671 
L 21.342657 144.213706 
L 21.902098 145.108811 
L 24.251748 148.085035 
L 26.176224 149.897622 
L 28.324476 151.575944 
L 32.352448 154.373147 
L 44.503497 162.138182 
L 44.503497 162.138182 
" clip-path="url(#pfd91f96108)" style="fill: none; stroke: #ff1801; stroke-opacity: 0.3; stroke-width: 10; stroke-linecap: square"/>
   </g>
   <g id="line2d_2">
    <path d="M 50.813986 167.038881 
L 76.481119 186.686434 
L 127.972028 226.160559 
L 133.342657 230.367552 
L 139.362238 234.954965 
L 142.248951 237.25986 
L 144.41958 239.206713 
L 151.244755 244.733986 
L 152.005594 245.271049 
L 154.220979 246.345175 
L 156.682517 246.904615 
L 158.047552 246.971748 
L 160.33007 246.30042 
L 161.672727 245.06965 
L 162.232168 244.174545 
L 162.746853 242.003916 
L 162.724476 240.638881 
L 162.276923 236.991329 
L 161.381818 232.448671 
L 160.88951 230.837483 
L 159.681119 228.062657 
L 155.80979 219.648671 
L 153.885315 214.568951 
L 152.833566 210.943776 
L 152.13986 207.967552 
L 151.871329 203.447273 
L 152.274126 200.18014 
L 152.855944 197.181538 
L 153.840559 193.713007 
L 156.123077 188.968951 
L 159.076923 184.560559 
L 161.001399 182.457063 
L 162.925874 180.733986 
L 164.962238 179.122797 
L 170.937063 175.184336 
L 184.60979 167.889231 
L 188.995804 164.778741 
L 194.411189 160.638881 
L 197.812587 157.438881 
L 200.565035 153.187133 
L 205.376224 144.706014 
L 208.911888 139.738182 
L 212.290909 136.605315 
L 218.4 133.494825 
L 221.868531 131.436084 
L 224.688112 128.236084 
L 226.567832 124.901818 
L 227.507692 122.485035 
L 230.058741 112.191329 
L 230.998601 109.796923 
L 233.169231 105.836084 
L 234.131469 104.538182 
L 238.830769 100.107413 
L 244.08951 96.773147 
L 248.229371 95.027692 
L 252.167832 94.177343 
L 256.934266 94.356364 
L 260.984615 95.408112 
L 264.251748 96.683636 
L 266.802797 97.824895 
L 271.904895 100.622098 
L 279.020979 103.173147 
L 282.48951 103.687832 
L 284.951049 103.464056 
L 288.128671 102.099021 
L 290.948252 100.353566 
L 293.87972 98.227692 
L 295.737063 96.415105 
L 297.482517 94.333986 
L 299.608392 91.559161 
L 304.576224 86.099021 
L 307.06014 84.241678 
L 311.2 82.72 
L 315.474126 82.876643 
L 319.211189 84.241678 
L 321.426573 85.718601 
L 324.111888 88.023497 
L 326.931469 90.887832 
L 328.699301 91.894825 
L 331.362238 92.70042 
L 334.226573 92.901818 
L 338.411189 92.543776 
L 342.73007 91.984336 
L 345.393007 91.424895 
L 355.865734 88.717203 
L 362.355245 86.77035 
L 367.703497 84.443077 
L 372.514685 82.115804 
L 376.072727 79.721399 
L 378.959441 76.968951 
L 381.241958 74.619301 
L 385.986014 69.092028 
L 395.116084 57.679441 
L 416.41958 31.60951 
L 420.716084 26.731189 
L 422.640559 24.403916 
L 423.66993 22.949371 
L 425.325874 19.794126 
L 425.93007 18.071049 
L 426.109091 16.213706 
L 425.907692 15.13958 
L 425.415385 14.132587 
L 424.654545 13.304615 
L 423.737063 12.678042 
L 422.416783 12.140979 
L 420.604196 11.805315 
L 419.776224 11.760559 
L 416.88951 11.961958 
L 413.555245 12.543776 
L 410.690909 13.349371 
L 406.662937 14.736783 
L 395.765035 18.742378 
L 377.661538 25.075245 
L 369.426573 27.805315 
L 356.917483 31.43049 
L 344.095105 34.943776 
L 326.304895 39.464056 
L 315.25035 42.082238 
L 297.169231 46.065455 
L 279.222378 49.623497 
L 262.528671 52.577343 
L 249.93007 54.658462 
L 239.569231 55.978741 
L 221.465734 57.903217 
L 174.495105 62.535385 
L 171.697902 63.251469 
L 169.773427 64.303217 
L 168.475524 65.243077 
L 167.66993 66.093427 
L 167.177622 66.921399 
L 166.774825 68.12979 
L 166.73007 70.926993 
L 167.401399 73.052867 
L 168.721678 75.581538 
L 170.109091 77.662657 
L 171.765035 79.60951 
L 174.092308 81.981538 
L 181.230769 88.784336 
L 184.363636 92.006713 
L 186.690909 94.938182 
L 187.966434 96.907413 
L 189.376224 100.017902 
L 189.913287 102.85986 
L 189.958042 104.448671 
L 189.823776 105.791329 
L 189.062937 108.073846 
L 188.346853 109.282238 
L 187.429371 110.445874 
L 186.467133 111.318601 
L 185.415385 111.945175 
L 184.072727 112.325594 
L 182.483916 112.504615 
L 179.440559 112.526993 
L 177.359441 112.236084 
L 174.853147 111.229091 
L 172.995804 110.154965 
L 170.646154 108.029091 
L 167.983217 104.985734 
L 166.707692 102.837483 
L 161.806993 93.841678 
L 158.92028 90.44028 
L 156.324476 87.956364 
L 154.802797 86.792727 
L 152.945455 85.696224 
L 150.506294 84.778741 
L 148.067133 84.487832 
L 146.634965 84.622098 
L 143.994406 85.472448 
L 142.047552 86.926993 
L 140.995804 88.538182 
L 140.727273 89.925594 
L 141.040559 92.208112 
L 142.002797 94.66965 
L 142.763636 96.034685 
L 146.970629 101.83049 
L 151.423776 107.424895 
L 152.632168 108.879441 
L 155.429371 112.683636 
L 157.040559 115.368951 
L 158.137063 117.517203 
L 159.278322 120.761958 
L 160.33007 124.901818 
L 160.620979 126.58014 
L 160.867133 130.093427 
L 160.620979 135.083636 
L 159.412587 139.805315 
L 157.264336 144.616503 
L 153.236364 149.740979 
L 149.834965 152.336783 
L 143.144056 155.514406 
L 138.847552 156.879441 
L 136.99021 157.304615 
L 132.111888 157.550769 
L 127.144056 157.058462 
L 122.892308 156.23049 
L 116 153.612308 
L 110.718881 150.501818 
L 106.914685 147.301818 
L 102.931469 142.378741 
L 100.626573 139.022098 
L 99.082517 136.068252 
L 95.569231 129.981538 
L 92.570629 125.237483 
L 89.191608 121.075245 
L 86.439161 118.255664 
L 83.932867 116.286434 
L 81.046154 114.585734 
L 78.808392 113.668252 
L 74.332867 112.996923 
L 70.148252 113.377343 
L 65.605594 114.697622 
L 46.651748 123.492028 
L 29.667133 130.518601 
L 27.205594 131.726993 
L 24.699301 133.315804 
L 23.28951 134.501818 
L 21.812587 136.157762 
L 20.581818 138.417902 
L 20.290909 141.058462 
L 20.716084 142.848671 
L 21.342657 144.213706 
L 21.902098 145.108811 
L 24.251748 148.085035 
L 26.176224 149.897622 
L 28.324476 151.575944 
L 32.352448 154.373147 
L 44.503497 162.138182 
L 44.503497 162.138182 
" clip-path="url(#pfd91f96108)" style="fill: none; stroke: #ff1801; stroke-width: 3; stroke-linecap: square"/>
   </g>
  </g>
 </g>
 <defs>
  <clipPath id="pfd91f96108">
   <rect x="0" y="0" width="446.4" height="258.732308"/>
  </clipPath>
 </defs>
</svg>
